<svg width="320" height="321" viewBox="0 0 320 321" fill="none" xmlns="http://www.w3.org/2000/svg">
<path d="M165.525 319.613C146.327 319.613 131.663 316.929 125.814 315.741C111.062 312.745 86.7396 307.805 63.3218 293.349H181.309C175.924 294.077 173.78 295.088 179.895 298.5C182.274 299.828 184.734 300.376 187.177 300.376C191.596 300.375 195.956 298.58 199.651 296.363C207.674 299.369 216.348 299.613 218.945 299.613C219.446 299.613 219.721 299.604 219.721 299.604C223.015 297.517 225.734 295.416 227.964 293.349H259.446C227.054 314.507 191.985 319.613 165.525 319.613ZM282.196 56.47H140.308L138.331 54.9009C138.554 52.856 138.452 50.7608 137.997 48.693L141.13 45.6017C141.24 45.493 141.269 45.326 141.203 45.1877L138.92 40.422C138.859 40.2962 138.731 40.2173 138.594 40.2173C138.58 40.2173 138.565 40.2173 138.552 40.2196L134.178 40.7228C132.853 39.0724 131.283 37.6806 129.55 36.5724L129.578 32.1681C129.579 32.0137 129.483 31.8753 129.337 31.8238L124.354 30.0683C124.314 30.0546 124.274 30.0488 124.234 30.0488C124.125 30.0488 124.02 30.0969 123.95 30.185L121.212 33.6365C120.52 33.5611 119.823 33.5222 119.123 33.5222C117.753 33.5222 116.372 33.6686 115.004 33.9705L111.912 30.8369C111.842 30.766 111.748 30.7293 111.655 30.7293C111.601 30.7293 111.548 30.7408 111.498 30.7648L106.732 33.0476C106.594 33.1139 106.511 33.2626 106.53 33.4159L107.033 37.7892C105.383 39.1148 103.991 40.6839 102.884 42.4177L98.4783 42.388C98.4772 42.388 98.4772 42.388 98.476 42.388C98.3228 42.388 98.1855 42.4852 98.1341 42.6304L96.3797 47.6134C96.3282 47.7598 96.3751 47.9211 96.4963 48.0171L99.9468 50.7551C99.7421 52.6376 99.8118 54.5635 100.179 56.47H90.8145L91.7913 53.6966C91.8679 53.4793 91.7981 53.2369 91.6174 53.0928L86.4606 49.0018C86.7934 45.9459 86.6413 42.8145 85.9608 39.7243L90.6441 35.1039C90.8077 34.9415 90.8511 34.6922 90.7516 34.4852L87.3401 27.3635C87.2497 27.1748 87.0587 27.0559 86.8529 27.0559C86.8311 27.0559 86.8106 27.057 86.79 27.0604L80.255 27.813C79.8067 27.2549 79.3389 26.7162 78.8552 26.1981C82.9026 23.4167 87.2097 20.7508 91.7947 18.2656C91.8107 18.285 91.8256 18.3033 91.8416 18.3227C92.0703 18.6007 92.402 18.7448 92.7359 18.7448C92.8686 18.7448 93.0001 18.7219 93.1271 18.6762C93.2483 18.6327 93.3649 18.5687 93.4702 18.4817C93.8602 18.1604 93.986 17.6377 93.8213 17.1882C106.792 10.4314 121.871 5.16939 139.171 2.90834C145.952 2.02199 152.923 1.57364 159.984 1.57364C195.973 1.57364 234.435 13.1991 263.613 37.644C270.49 43.4058 276.673 49.7155 282.196 56.47V56.47ZM149.185 48.7308C149.157 48.7308 149.128 48.7319 149.1 48.7354C148.707 48.7811 148.428 49.1391 148.475 49.5313C148.545 50.1055 148.598 50.6899 148.633 51.2674C148.656 51.6471 148.972 51.9388 149.347 51.9388C149.36 51.9388 149.375 51.9388 149.389 51.9377C149.46 51.9331 149.526 51.9193 149.589 51.8965C149.88 51.7924 150.08 51.5053 150.059 51.1805C150.024 50.5755 149.968 49.9625 149.894 49.3598C149.851 48.9972 149.542 48.7308 149.185 48.7308V48.7308ZM147.376 41.5382C147.295 41.5382 147.214 41.5508 147.137 41.5771C146.769 41.7189 146.585 42.1318 146.725 42.5C146.802 42.6979 146.875 42.8958 146.947 43.0936C147.285 44.0303 147.577 44.9956 147.819 45.962C147.9 46.2879 148.192 46.5052 148.512 46.5052C148.569 46.5052 148.627 46.4983 148.684 46.4834C148.71 46.4766 148.733 46.4697 148.755 46.4617C149.096 46.3394 149.295 45.9756 149.206 45.6165C148.953 44.6032 148.646 43.5911 148.292 42.6087C148.217 42.4017 148.14 42.1947 148.061 41.9888C147.95 41.7006 147.664 41.5382 147.376 41.5382V41.5382ZM143.907 34.9792C143.766 34.9792 143.623 35.0216 143.498 35.1085C143.174 35.3361 143.096 35.781 143.323 36.1035C144.015 37.0905 144.653 38.1312 145.22 39.1971C145.348 39.4396 145.595 39.5768 145.852 39.5768C145.932 39.5768 146.014 39.5631 146.093 39.5345C146.124 39.5231 146.156 39.5093 146.187 39.4933C146.535 39.308 146.667 38.8746 146.482 38.5258C145.888 37.4084 145.218 36.3162 144.493 35.2834C144.355 35.0844 144.133 34.9792 143.907 34.9792V34.9792ZM100.626 30.6527C100.503 30.6527 100.378 30.6721 100.254 30.7145L100.234 30.7213C99.6414 30.9352 99.3269 31.5837 99.5305 32.1818C99.9308 33.3644 100.284 34.5744 100.582 35.7809C100.711 36.3082 101.184 36.6616 101.705 36.6616C101.796 36.6616 101.889 36.6501 101.981 36.6273C102.021 36.6181 102.06 36.6055 102.098 36.5918C102.649 36.394 102.972 35.8073 102.829 35.2274C102.517 33.9579 102.144 32.6827 101.722 31.4384C101.558 30.9569 101.109 30.6527 100.626 30.6527V30.6527ZM138.924 29.4782C138.723 29.4782 138.523 29.5628 138.381 29.7275C138.124 30.026 138.158 30.4777 138.458 30.7351C139.373 31.5219 140.248 32.3739 141.057 33.2683C141.198 33.4238 141.392 33.5027 141.587 33.5027C141.669 33.5027 141.751 33.4879 141.829 33.4604C141.915 33.4296 141.995 33.3815 142.067 33.3175C142.36 33.0521 142.382 32.6004 142.116 32.3076C141.267 31.3709 140.349 30.4766 139.39 29.6508C139.255 29.5342 139.089 29.4782 138.924 29.4782V29.4782ZM132.745 25.3689C132.482 25.3689 132.229 25.5142 132.105 25.7635C131.927 26.1169 132.071 26.5458 132.425 26.723C133.501 27.2606 134.559 27.8736 135.564 28.5426C135.685 28.6238 135.823 28.6616 135.959 28.6616C136.042 28.6616 136.125 28.6478 136.204 28.6193C136.342 28.5689 136.467 28.4752 136.556 28.3437C136.774 28.0143 136.685 27.5705 136.356 27.3521C135.301 26.651 134.193 26.0083 133.063 25.4433C132.961 25.393 132.853 25.3689 132.745 25.3689V25.3689ZM107.53 24.5363C107.438 24.5363 107.343 24.5558 107.253 24.597C107.099 24.6622 106.946 24.7273 106.793 24.7959C105.783 25.2408 104.79 25.7429 103.842 26.2873C103.5 26.484 103.382 26.9209 103.579 27.2629C103.711 27.4928 103.952 27.6208 104.199 27.6208C104.28 27.6208 104.361 27.6071 104.44 27.5797C104.479 27.5659 104.518 27.5477 104.555 27.5259C105.458 27.0067 106.406 26.5286 107.372 26.1032C107.518 26.038 107.662 25.9751 107.806 25.9156C108.171 25.7624 108.341 25.3438 108.188 24.9789C108.075 24.7067 107.807 24.5363 107.53 24.5363V24.5363ZM96.3557 21.5228C96.1509 21.5228 95.9416 21.5765 95.7529 21.692C95.2074 22.0248 95.0359 22.7374 95.3687 23.2829C96.016 24.3419 96.6267 25.4456 97.1848 26.5606C97.3872 26.9666 97.7967 27.2011 98.221 27.2011C98.3514 27.2011 98.4829 27.1782 98.611 27.1325C98.6533 27.1176 98.6956 27.0993 98.7368 27.0787C99.3086 26.7928 99.5408 26.0975 99.2549 25.5256C98.6682 24.3522 98.0254 23.1914 97.3438 22.0763C97.1253 21.7195 96.7456 21.5228 96.3557 21.5228V21.5228ZM125.75 22.886C125.422 22.886 125.128 23.1125 125.054 23.4453C124.968 23.8307 125.212 24.2127 125.596 24.2984C126.773 24.5603 127.946 24.8966 129.084 25.3003C129.163 25.3289 129.243 25.3415 129.323 25.3415C129.407 25.3415 129.488 25.3278 129.566 25.2992C129.76 25.2294 129.922 25.0762 129.997 24.8657C130.129 24.494 129.934 24.0857 129.562 23.9531C128.369 23.531 127.14 23.1765 125.907 22.9032C125.854 22.8917 125.802 22.886 125.75 22.886V22.886ZM114.668 22.5166C114.633 22.5166 114.596 22.5189 114.56 22.5246C113.313 22.7156 112.063 22.989 110.841 23.3344C110.463 23.4487 110.241 23.8376 110.349 24.2173C110.438 24.5318 110.725 24.7376 111.037 24.7376C111.101 24.7376 111.166 24.7285 111.231 24.7102C112.396 24.3796 113.589 24.1201 114.777 23.9371C114.824 23.9302 114.868 23.9188 114.911 23.9028C115.226 23.7895 115.428 23.4659 115.375 23.1228C115.32 22.7694 115.016 22.5166 114.668 22.5166V22.5166ZM119.222 23.5974C120.153 23.5974 121.089 23.642 122.014 23.7312C122.037 23.7335 122.06 23.7335 122.083 23.7335C122.167 23.7335 122.248 23.7186 122.324 23.6923C122.576 23.6008 122.767 23.3709 122.793 23.0873C122.831 22.6939 122.542 22.3451 122.15 22.3073C121.18 22.2147 120.198 22.1678 119.221 22.1678C118.931 22.1678 118.639 22.1724 118.35 22.1804C117.954 22.1929 117.644 22.5212 117.655 22.9158C117.667 23.3035 117.984 23.61 118.369 23.61C118.376 23.61 118.383 23.61 118.39 23.61C118.666 23.602 118.944 23.5974 119.222 23.5974" fill="url(#paint0_linear)"/>
<path d="M101.705 36.6616C101.184 36.6616 100.711 36.3082 100.582 35.781C100.284 34.5744 99.9308 33.3644 99.5305 32.1819C99.327 31.5837 99.6415 30.9352 100.234 30.7214L100.254 30.7145C100.378 30.6722 100.503 30.6528 100.626 30.6528C101.109 30.6528 101.558 30.957 101.722 31.4385C102.144 32.6828 102.517 33.958 102.829 35.2274C102.972 35.8073 102.649 36.394 102.098 36.5919C102.06 36.6056 102.021 36.6182 101.981 36.6273C101.889 36.6502 101.796 36.6616 101.705 36.6616V36.6616ZM98.221 27.2012C97.7967 27.2012 97.3873 26.9667 97.1848 26.5607C96.6267 25.4456 96.016 24.342 95.3687 23.2829C95.0359 22.7374 95.2074 22.0249 95.753 21.6921C95.9417 21.5766 96.151 21.5228 96.3557 21.5228C96.7457 21.5228 97.1254 21.7195 97.3438 22.0764C98.0254 23.1914 98.6682 24.3523 99.2549 25.5257C99.5408 26.0975 99.3086 26.7929 98.7368 27.0788C98.6956 27.0994 98.6533 27.1177 98.611 27.1325C98.4829 27.1783 98.3514 27.2012 98.221 27.2012" fill="url(#paint1_linear)"/>
<path d="M91.7946 18.2656C91.0181 17.3244 90.1924 16.4049 89.3392 15.5322C88.8931 15.0759 88.9012 14.3428 89.3586 13.8957C89.5828 13.6761 89.8756 13.5674 90.1672 13.5674C90.468 13.5674 90.7676 13.6829 90.9941 13.9151C91.9113 14.8518 92.7977 15.841 93.6291 16.8532C93.7137 16.9561 93.7778 17.0705 93.8212 17.1883C93.1408 17.544 92.4648 17.9031 91.7946 18.2656" fill="#DEE8FD"/>
<path d="M92.7359 18.7448C92.402 18.7448 92.0703 18.6007 91.8416 18.3228C91.8256 18.3033 91.8107 18.2851 91.7947 18.2656C92.4649 17.9031 93.1408 17.544 93.8213 17.1883C93.986 17.6377 93.8602 18.1604 93.4702 18.4818C93.3649 18.5687 93.2483 18.6327 93.1271 18.6762C93.0001 18.7219 92.8686 18.7448 92.7359 18.7448" fill="url(#paint2_linear)"/>
<path d="M26.4834 15.0885C26.182 15.0885 25.881 14.9718 25.6543 14.7385C25.2083 14.281 25.2178 13.548 25.6755 13.1019C26.6134 12.1893 27.6042 11.3041 28.6197 10.4726C28.8348 10.2965 29.0943 10.2107 29.3522 10.2107C29.6872 10.2107 30.0194 10.3548 30.2481 10.635C30.653 11.1291 30.5804 11.8576 30.086 12.2625C29.1216 13.0527 28.1812 13.8922 27.2906 14.7603C27.1685 14.8792 27.027 14.9661 26.8761 15.0199C26.7494 15.0656 26.6164 15.0885 26.4834 15.0885V15.0885ZM85.4955 11.7261C85.2484 11.7261 84.9991 11.6483 84.7887 11.4859C83.8028 10.7242 82.7724 9.99686 81.7259 9.32438C81.1884 8.97785 81.0329 8.26191 81.3783 7.72438C81.6001 7.38128 81.973 7.19371 82.3538 7.19371C82.5677 7.19371 82.785 7.25318 82.9783 7.37784C84.0796 8.08691 85.165 8.85204 86.2034 9.65261C86.7089 10.0437 86.8027 10.77 86.4127 11.2766C86.272 11.4573 86.0902 11.5854 85.8889 11.6575C85.7631 11.7032 85.6293 11.7261 85.4955 11.7261V11.7261ZM34.4539 8.91266C34.0632 8.91266 33.682 8.71479 33.4643 8.35682C33.132 7.81128 33.3055 7.09878 33.8516 6.76597C34.9701 6.08663 36.1329 5.44503 37.3069 4.86061C37.4724 4.77713 37.6484 4.73825 37.8217 4.73825C38.2469 4.73825 38.6563 4.97498 38.8587 5.38212C39.1433 5.95396 38.9102 6.64817 38.338 6.93294C37.222 7.48877 36.117 8.09721 35.0543 8.74453C34.9865 8.7857 34.9159 8.81888 34.8441 8.84404C34.7168 8.88979 34.5848 8.91266 34.4539 8.91266V8.91266ZM76.8745 6.49721C76.7121 6.49721 76.5474 6.46291 76.3895 6.39086C75.2619 5.8682 74.0953 5.38786 72.9231 4.96127C72.3226 4.74168 72.0127 4.07834 72.2312 3.47791C72.4027 3.00786 72.8453 2.71622 73.3188 2.71622C73.4503 2.71622 73.5841 2.73795 73.7145 2.78598C74.9474 3.2343 76.1745 3.74095 77.3617 4.28992C77.9415 4.55868 78.1943 5.24604 77.9255 5.82588C77.7905 6.11866 77.5492 6.32794 77.2679 6.42859C77.1421 6.47433 77.0094 6.49721 76.8745 6.49721ZM43.5952 4.65933C43.1121 4.65933 42.6616 4.35397 42.4987 3.87134C42.2975 3.27319 42.6122 2.62587 43.2028 2.41315L43.2262 2.40515C44.469 1.98657 45.744 1.61714 47.0152 1.30607C47.1073 1.28434 47.1996 1.27292 47.2904 1.27292C47.8117 1.27292 48.2849 1.62745 48.4141 2.15582C48.5558 2.73567 48.233 3.32122 47.6834 3.51908C47.6449 3.5328 47.6051 3.54425 47.5645 3.55455C46.3567 3.84961 45.1456 4.20071 43.9649 4.59871C43.8423 4.63988 43.7176 4.65933 43.5952 4.65933V4.65933ZM67.3145 3.30636C67.2344 3.30636 67.1532 3.29836 67.072 3.28007C65.8552 3.02045 64.612 2.81001 63.3768 2.65332C62.7421 2.57327 62.2926 1.99457 62.3727 1.36097C62.447 0.77541 62.9445 0.34768 63.5198 0.34768C63.5678 0.34768 63.617 0.351098 63.6662 0.356816C64.9654 0.521505 66.2749 0.743391 67.5558 1.01673C68.1803 1.15054 68.5794 1.76583 68.4456 2.39028C68.3587 2.79743 68.0693 3.10736 67.7045 3.23774C67.5821 3.28234 67.4495 3.30636 67.3145 3.30636V3.30636ZM53.4469 2.5321C52.8593 2.5321 52.3559 2.08721 52.2962 1.49021C52.2325 0.854332 52.6972 0.290487 53.3326 0.224154C54.6362 0.0937754 55.9611 0.0182974 57.271 -1.41397e-06C57.2764 -1.41397e-06 57.2817 -1.41397e-06 57.2871 -1.41397e-06C57.9189 -1.41397e-06 58.4354 0.507799 58.4441 1.14139C58.451 1.64804 58.131 2.08378 57.6794 2.24618C57.5617 2.2885 57.435 2.31252 57.3028 2.31366C56.059 2.33082 54.8009 2.40286 53.5632 2.52638C53.5241 2.53095 53.4853 2.5321 53.4469 2.5321Z" fill="#DEE8FD"/>
<path d="M21.1981 21.2632C20.9664 21.2632 20.7325 21.1934 20.5291 21.0493C20.0082 20.6799 19.8858 19.9571 20.2557 19.4356C20.6191 18.9232 20.999 18.4109 21.3853 17.9111C21.6129 17.616 21.9551 17.4616 22.3011 17.4616C22.5485 17.4616 22.7978 17.5405 23.0085 17.7029C23.5142 18.0941 23.6073 18.8215 23.2165 19.327C22.8495 19.8016 22.4881 20.2888 22.143 20.776C22.0009 20.9761 21.807 21.1168 21.5926 21.1946C21.4662 21.2392 21.3325 21.2632 21.1981 21.2632" fill="#DEE8FD"/>
<path d="M13.6311 55.7232C13.0859 55.7232 12.6001 55.3366 12.495 54.7808C12.3783 54.1644 12.2726 53.5342 12.1807 52.9086C12.0879 52.2773 12.5227 51.6895 13.1577 51.5957C13.2147 51.5877 13.2713 51.5831 13.3272 51.5831C13.8918 51.5831 14.3862 51.9971 14.4707 52.5724C14.5578 53.1671 14.6583 53.7652 14.7694 54.3508C14.8763 54.9181 14.5512 55.4647 14.0257 55.6546C13.9685 55.6752 13.9089 55.6923 13.8472 55.7037C13.7746 55.7175 13.7025 55.7243 13.6311 55.7232Z" fill="#DEE8FD"/>
<path d="M91.7915 53.6966C91.8681 53.4793 91.7984 53.2369 91.6177 53.0928L86.4609 49.0018C86.7937 45.9459 86.6416 42.8145 85.9611 39.7243L90.6444 35.1039C90.808 34.9415 90.8514 34.6922 90.7519 34.4852L87.3403 27.3635C87.2408 27.1553 87.019 27.033 86.7902 27.0604L80.2553 27.813C78.2733 25.3472 75.9288 23.2657 73.3383 21.6108L73.3807 15.0278C73.3829 14.7968 73.2377 14.5909 73.0204 14.5143L65.5728 11.8907C65.3544 11.8141 65.1119 11.885 64.9689 12.0657L60.8774 17.2225C57.8213 16.8897 54.69 17.0407 51.6003 17.7212L46.9791 13.039C46.817 12.8743 46.5686 12.8308 46.3604 12.9315L39.2392 16.3431C39.0312 16.4426 38.9094 16.6633 38.9358 16.892L39.6888 23.4281C37.2226 25.409 35.142 27.7546 33.4866 30.3451L26.9038 30.3016C26.6731 30.3005 26.4667 30.4457 26.3901 30.663L23.767 38.1106C23.6904 38.3279 23.7604 38.5704 23.941 38.7145L29.0982 42.8054C28.7649 45.8613 28.917 48.9927 29.5971 52.0829L24.9149 56.7033C24.7506 56.8657 24.7073 57.1139 24.807 57.322L28.2187 64.4437C28.3184 64.6519 28.5391 64.7731 28.7683 64.7468L35.3039 63.9942C37.2855 66.46 39.6305 68.5404 42.2209 70.1964L42.1777 76.7794C42.176 77.0104 42.3211 77.2163 42.5388 77.2929L49.9866 79.9153C50.2042 79.992 50.4464 79.9222 50.5899 79.7415L54.6812 74.5847C57.7375 74.9175 60.8686 74.7665 63.9579 74.086L68.5795 78.7682C68.7419 78.9318 68.9901 78.9752 69.1982 78.8757L76.3187 75.4642C76.5269 75.3647 76.6493 75.1439 76.623 74.9141L75.8693 68.3791C78.3362 66.3971 80.4165 64.0526 82.0726 61.4621L88.6556 61.5056C88.8854 61.5068 89.0925 61.3615 89.1691 61.1442L91.7915 53.6966" fill="#91B3FA"/>
<path d="M52.7087 42.539C51.8099 43.8931 51.4923 45.5159 51.8145 47.1102C52.4795 50.3983 55.6965 52.5335 58.9852 51.8679C62.2755 51.2046 64.4084 47.9863 63.7439 44.6971C63.0795 41.409 59.8621 39.2738 56.5733 39.9383C56.2751 39.9989 55.985 40.0801 55.704 40.1819C54.4833 40.6222 53.4393 41.4376 52.7087 42.539ZM59.3521 53.6829C55.0625 54.5498 50.8671 51.7661 49.9996 47.4762C49.5793 45.3981 49.9935 43.2812 51.1659 41.5142C52.3379 39.7484 54.1278 38.5441 56.2063 38.1244C60.4959 37.2563 64.6909 40.0412 65.5589 44.3311C66.3481 48.2333 64.1145 52.0578 60.4747 53.3696C60.1139 53.4999 59.7389 53.6052 59.3521 53.6829Z" fill="#BDD0FB"/>
<path d="M64.2082 64.2093C64.8326 63.984 65.4502 63.7267 66.0575 63.435C66.2497 63.3435 66.4395 63.2486 66.6271 63.1514C67.5546 62.6699 68.4432 62.1152 69.2781 61.4953C69.2895 61.4873 69.301 61.4782 69.3124 61.4702C69.3444 61.4462 69.3765 61.4222 69.4085 61.397C69.4714 61.3501 69.5331 61.3021 69.5949 61.2552C69.7573 61.1294 69.8133 60.9167 69.747 60.7325C69.731 60.6879 69.7081 60.6444 69.6773 60.6056C69.5206 60.4031 69.2301 60.3677 69.0276 60.5232C67.988 61.3284 66.8547 62.0272 65.6584 62.6001C59.7177 65.4479 53.0011 64.8463 47.7838 61.6006C44.8816 59.7947 42.4434 57.1711 40.8604 53.867C40.5827 53.2872 40.3364 52.6982 40.1217 52.1023C38.6764 48.0892 38.6552 43.7375 40.0914 39.6592C41.7408 34.9758 45.1156 31.2154 49.5936 29.0699C58.8426 24.6393 69.9632 28.5587 74.3915 37.803C74.6648 38.3725 74.9073 38.9547 75.12 39.5448C76.0418 42.1055 76.394 44.8389 76.1402 47.5494C76.1333 47.6203 76.1424 47.6878 76.1653 47.7495C76.2236 47.9131 76.3735 48.0366 76.5576 48.0537C76.8126 48.0766 77.0379 47.8913 77.0619 47.6363C77.3284 44.7885 76.959 41.9191 75.9915 39.2315C75.7685 38.6116 75.5134 38.0009 75.2264 37.4027C70.5773 27.6975 58.8958 23.586 49.1938 28.2339C44.4924 30.4869 40.9499 34.4349 39.2183 39.3515C37.7104 43.6323 37.7327 48.2013 39.2499 52.4146C39.4756 53.0402 39.7341 53.6589 40.0253 54.2673C42.2779 58.9678 46.2261 62.5109 51.143 64.2424C55.4244 65.7509 59.9942 65.7281 64.2082 64.2093" fill="#BDD0FB"/>
<path d="M149.347 51.9388C148.971 51.9388 148.656 51.6472 148.633 51.2675C148.597 50.6899 148.545 50.1055 148.475 49.5314C148.428 49.1391 148.707 48.7811 149.1 48.7354C149.128 48.732 149.157 48.7308 149.185 48.7308C149.542 48.7308 149.851 48.9973 149.894 49.3598C149.968 49.9625 150.024 50.5755 150.059 51.1805C150.08 51.5054 149.88 51.7924 149.589 51.8965C149.526 51.9194 149.46 51.9331 149.389 51.9377C149.375 51.9388 149.36 51.9388 149.347 51.9388" fill="url(#paint3_linear)"/>
<path d="M148.512 46.5052C148.192 46.5052 147.9 46.288 147.819 45.962C147.577 44.9956 147.285 44.0303 146.947 43.0937C146.875 42.8958 146.802 42.6979 146.725 42.5001C146.585 42.1318 146.769 41.719 147.137 41.5772C147.214 41.5508 147.295 41.5383 147.376 41.5383C147.664 41.5383 147.95 41.7007 148.061 41.9889C148.14 42.1947 148.217 42.4017 148.292 42.6087C148.646 43.5912 148.953 44.6033 149.206 45.6166C149.295 45.9757 149.096 46.3394 148.755 46.4618C148.733 46.4698 148.71 46.4767 148.684 46.4835C148.627 46.4984 148.569 46.5052 148.512 46.5052V46.5052ZM145.852 39.5769C145.595 39.5769 145.348 39.4396 145.22 39.1972C144.653 38.1313 144.015 37.0905 143.323 36.1035C143.097 35.781 143.174 35.3361 143.498 35.1085C143.623 35.0216 143.766 34.9793 143.907 34.9793C144.133 34.9793 144.355 35.0845 144.493 35.2835C145.218 36.3162 145.888 37.4085 146.482 38.5258C146.667 38.8746 146.536 39.3081 146.187 39.4934C146.156 39.5094 146.124 39.5231 146.093 39.5346C146.014 39.5631 145.932 39.5769 145.852 39.5769V39.5769ZM141.587 33.5028C141.392 33.5028 141.198 33.4239 141.057 33.2684C140.248 32.374 139.373 31.522 138.458 30.7351C138.158 30.4778 138.124 30.026 138.381 29.7276C138.523 29.5629 138.723 29.4782 138.924 29.4782C139.089 29.4782 139.255 29.5343 139.39 29.6509C140.349 30.4766 141.267 31.371 142.116 32.3077C142.382 32.6005 142.36 33.0522 142.067 33.3175C141.995 33.3816 141.915 33.4296 141.829 33.4605C141.752 33.4879 141.669 33.5028 141.587 33.5028V33.5028ZM135.959 28.6616C135.823 28.6616 135.685 28.6239 135.564 28.5427C134.559 27.8736 133.501 27.2606 132.425 26.7231C132.071 26.5458 131.927 26.117 132.105 25.7636C132.229 25.5142 132.482 25.369 132.745 25.369C132.853 25.369 132.961 25.393 133.063 25.4433C134.193 26.0083 135.301 26.6511 136.356 27.3521C136.685 27.5706 136.774 28.0143 136.556 28.3437C136.467 28.4752 136.342 28.569 136.204 28.6193C136.125 28.6479 136.042 28.6616 135.959 28.6616ZM104.199 27.6209C103.952 27.6209 103.711 27.4928 103.579 27.2629C103.382 26.921 103.5 26.4841 103.842 26.2874C104.79 25.743 105.783 25.2409 106.793 24.796C106.946 24.7274 107.099 24.6622 107.253 24.597C107.343 24.5558 107.438 24.5364 107.531 24.5364C107.807 24.5364 108.075 24.7068 108.188 24.979C108.341 25.3438 108.171 25.7624 107.806 25.9157C107.662 25.9751 107.518 26.0381 107.372 26.1032C106.406 26.5287 105.458 27.0067 104.555 27.526C104.518 27.5477 104.479 27.566 104.44 27.5797C104.361 27.6072 104.28 27.6209 104.199 27.6209V27.6209ZM129.323 25.3416C129.243 25.3416 129.163 25.329 129.084 25.3004C127.946 24.8967 126.773 24.5604 125.596 24.2985C125.212 24.2127 124.968 23.8308 125.054 23.4453C125.128 23.1125 125.422 22.8861 125.75 22.8861C125.802 22.8861 125.854 22.8918 125.907 22.9032C127.14 23.1766 128.369 23.5311 129.562 23.9531C129.934 24.0858 130.13 24.4941 129.997 24.8658C129.923 25.0762 129.76 25.2295 129.566 25.2992C129.488 25.3278 129.407 25.3416 129.323 25.3416V25.3416ZM111.037 24.7377C110.725 24.7377 110.438 24.5318 110.349 24.2173C110.241 23.8376 110.463 23.4488 110.841 23.3344C112.063 22.989 113.313 22.7157 114.56 22.5247C114.596 22.519 114.633 22.5167 114.668 22.5167C115.016 22.5167 115.32 22.7694 115.375 23.1228C115.428 23.4659 115.226 23.7896 114.911 23.9028C114.868 23.9188 114.824 23.9303 114.777 23.9371C113.589 24.1201 112.396 24.3797 111.231 24.7102C111.166 24.7285 111.101 24.7377 111.037 24.7377V24.7377ZM122.083 23.7335C122.06 23.7335 122.037 23.7335 122.014 23.7313C121.089 23.6421 120.153 23.5975 119.222 23.5975C118.944 23.5975 118.666 23.602 118.39 23.61C118.383 23.61 118.376 23.61 118.369 23.61C117.984 23.61 117.667 23.3035 117.655 22.9158C117.644 22.5212 117.954 22.193 118.35 22.1804C118.639 22.1724 118.931 22.1679 119.221 22.1679C120.198 22.1679 121.18 22.2147 122.15 22.3074C122.542 22.3451 122.831 22.6939 122.793 23.0874C122.767 23.371 122.576 23.6009 122.324 23.6924C122.248 23.7187 122.167 23.7335 122.083 23.7335" fill="url(#paint4_linear)"/>
<path d="M141.898 58.0426C141.949 57.8973 141.903 57.7349 141.782 57.6389L138.331 54.9009C138.554 52.856 138.452 50.7608 137.997 48.693L141.131 45.6017C141.24 45.4931 141.269 45.3261 141.203 45.1877L138.92 40.422C138.852 40.2825 138.705 40.2013 138.552 40.2196L134.178 40.7228C132.853 39.0725 131.284 37.6806 129.55 36.5724L129.578 32.1681C129.579 32.0137 129.483 31.8753 129.337 31.8239L124.354 30.0683C124.208 30.018 124.045 30.0649 123.95 30.185L121.212 33.6366C119.167 33.4136 117.072 33.5154 115.005 33.9705L111.912 30.8369C111.803 30.7271 111.638 30.6985 111.498 30.7648L106.732 33.0476C106.594 33.1139 106.512 33.2626 106.53 33.4159L107.033 37.7893C105.383 39.1148 103.991 40.6839 102.884 42.4177L98.4784 42.388C98.324 42.388 98.1856 42.484 98.1342 42.6304L96.3798 47.6134C96.3283 47.7598 96.3752 47.9211 96.4964 48.0171L99.9469 50.7551C99.7239 52.8 99.8257 54.8952 100.281 56.963L97.1472 60.0555C97.0374 60.1641 97.0088 60.3299 97.0751 60.4695L99.3579 65.234C99.4254 65.3735 99.5729 65.4559 99.7262 65.4376L104.1 64.9344C105.425 66.5835 106.994 67.9765 108.728 69.0836L108.699 73.489C108.698 73.6434 108.796 73.7818 108.941 73.8321L113.925 75.5877C114.07 75.6392 114.233 75.5923 114.329 75.471L117.065 72.0206C119.111 72.2436 121.207 72.1418 123.273 71.6866L126.366 74.8203C126.474 74.9301 126.64 74.9587 126.78 74.8923L131.545 72.6096C131.684 72.5421 131.766 72.3946 131.748 72.2413L131.245 67.8679C132.895 66.5424 134.287 64.9733 135.395 63.2394L139.799 63.268C139.954 63.2692 140.092 63.172 140.144 63.0267L141.898 58.0426" fill="#91B3FA"/>
<path d="M115.241 53.6166C115.452 54.6573 116.054 55.5551 116.94 56.1418C117.825 56.7296 118.886 56.9366 119.927 56.7262C120.968 56.5146 121.865 55.9119 122.453 55.0267C123.04 54.1427 123.247 53.0813 123.037 52.0406C122.602 49.8905 120.501 48.4963 118.351 48.9298C118.158 48.9698 117.97 49.0224 117.788 49.0876C115.965 49.7441 114.846 51.6609 115.241 53.6166V53.6166ZM120.211 58.1272C118.795 58.4143 117.352 58.1318 116.149 57.3335C114.946 56.5352 114.126 55.3161 113.84 53.9002C113.249 50.9781 115.143 48.1258 118.067 47.5288C120.991 46.9387 123.847 48.836 124.438 51.7569C124.725 53.1717 124.442 54.615 123.644 55.8181C122.994 56.796 122.068 57.5211 120.983 57.9111C120.733 58.0014 120.475 58.0735 120.211 58.1272Z" fill="#BDD0FB"/>
<path d="M123.591 65.4536C124.017 65.3003 124.437 65.1242 124.854 64.9252C125.681 64.5295 126.467 64.0492 127.196 63.4956C127.228 63.4705 127.26 63.4453 127.293 63.4202C127.545 63.2257 127.631 62.8975 127.529 62.6139C127.504 62.5452 127.467 62.4789 127.42 62.4183C127.179 62.1061 126.731 62.0512 126.418 62.2913C125.744 62.814 125.009 63.2657 124.236 63.6352C124.194 63.6557 124.152 63.6763 124.109 63.6958C122.272 64.5535 120.29 64.9218 118.32 64.8017C117.249 64.7354 116.181 64.5249 115.142 64.1693L115.117 64.1612C115.09 64.1521 115.064 64.1429 115.039 64.1338C112.007 63.0656 109.572 60.8812 108.184 57.982C108.003 57.6069 107.844 57.226 107.704 56.8394C106.769 54.2422 106.755 51.4241 107.685 48.7845C108.753 45.7527 110.938 43.3178 113.837 41.9294C116.734 40.5421 120.002 40.3637 123.034 41.4307C126.066 42.4989 128.501 44.6833 129.889 47.5825C130.067 47.952 130.224 48.3282 130.362 48.7102C130.959 50.3685 131.186 52.1366 131.022 53.8922C131.011 54.0008 131.026 54.1049 131.06 54.201C131.152 54.4526 131.382 54.6436 131.667 54.6699C132.06 54.7065 132.408 54.4183 132.445 54.0249C132.628 52.0612 132.375 50.0815 131.707 48.2276C131.553 47.7987 131.377 47.3778 131.179 46.965C129.625 43.7215 126.901 41.2775 123.509 40.0823C120.117 38.8883 116.463 39.0828 113.219 40.6393C109.976 42.1936 107.532 44.9166 106.337 48.3099C105.297 51.2629 105.312 54.4148 106.359 57.3221C106.514 57.7532 106.692 58.1798 106.893 58.5996C109.902 64.8795 117.176 67.765 123.591 65.4536" fill="#BDD0FB"/>
<path d="M316.511 293.349H227.964C231.428 290.138 233.718 287.007 235.179 284.116H298.451C304.948 284.116 310.216 278.849 310.216 272.352V75.6003C310.216 69.1031 304.948 63.8353 298.451 63.8353H18.8351C12.3376 63.8353 7.07042 69.1031 7.07042 75.6003V272.352C7.07042 278.849 12.3376 284.116 18.8351 284.116H22.1184C23.7932 289.634 25.1743 292.825 25.1743 292.825C25.1792 292.545 25.184 292.266 25.1886 291.986C25.2904 291.945 25.347 291.832 25.3167 291.725C25.2774 291.585 25.2383 291.444 25.1996 291.302C25.2373 288.898 25.2647 286.501 25.2813 284.116H28.6136C28.8777 285.635 29.0546 286.446 29.0546 286.446C29.1083 286.098 29.1616 285.752 29.215 285.404C29.3173 285.378 29.3882 285.28 29.3778 285.173C29.3614 285 29.3456 284.826 29.3304 284.65C29.3577 284.472 29.3848 284.294 29.4119 284.116H30.4476C30.2764 287.762 30.2779 290.889 30.3441 293.349H3.48992C1.56249 293.349 0 291.786 0 289.858V59.9594C0 58.0323 1.56249 56.47 3.48992 56.47H25.1518H90.8146H100.179H140.308H282.196H316.511C318.438 56.47 320 58.0323 320 59.9594V289.858C320 291.786 318.438 293.349 316.511 293.349V293.349ZM181.309 293.349H63.3218H32.6674C33.6407 290.258 34.5902 287.18 35.515 284.116H167.466C167.726 284.795 168.099 285.602 168.586 286.558C170.148 289.632 175.949 290.588 182.564 290.588C184.897 290.588 187.332 290.469 189.716 290.282C190.37 290.939 191.069 291.551 191.803 292.12C187.894 292.658 184.151 292.964 181.309 293.349V293.349ZM207.284 291.632C207.1 291.632 206.904 291.576 206.71 291.447C206.645 291.405 206.578 291.36 206.514 291.317C207.092 290.811 207.605 290.342 208.047 289.925C208.669 290.601 208.08 291.632 207.284 291.632V291.632ZM222.399 287.61C221.817 287.61 222.02 286.222 223.031 284.116H225.942C224.993 285.253 224.156 286.193 223.555 286.817C223.03 287.363 222.645 287.61 222.399 287.61Z" fill="url(#paint5_linear)"/>
<path d="M298.451 284.116H18.8352C12.3377 284.116 7.07056 278.849 7.07056 272.352V75.6003C7.07056 69.1031 12.3377 63.8353 18.8352 63.8353H298.451C304.948 63.8353 310.216 69.1031 310.216 75.6003V272.352C310.216 278.849 304.948 284.116 298.451 284.116Z" fill="#7D97F4"/>
<path d="M295.299 281.184H21.9977C15.5002 281.184 10.2329 275.917 10.2329 269.419V81.1722C10.2329 74.675 15.5002 69.4084 21.9977 69.4084H295.299C301.796 69.4084 307.064 74.675 307.064 81.1722V269.419C307.064 275.917 301.796 281.184 295.299 281.184" fill="#BDD0FB"/>
<path d="M105.166 262.662H101.673C101.266 262.662 100.936 262.333 100.936 261.925V76.1698C100.936 75.7638 101.266 75.4333 101.673 75.4333H105.166C105.573 75.4333 105.902 75.7638 105.902 76.1698V261.925C105.902 262.333 105.573 262.662 105.166 262.662" fill="#E4ECFD"/>
<path d="M211.16 234.462C209.525 233.33 207.813 232.34 206.194 231.573V75.1599C206.194 74.7528 206.523 74.4234 206.93 74.4234H210.423C210.83 74.4234 211.16 74.7528 211.16 75.1599V234.462" fill="#E4ECFD"/>
<path d="M300.278 152.473H222.916C221.603 152.473 220.539 151.41 220.539 150.097V108.21C220.539 106.898 221.603 105.834 222.916 105.834H300.278C301.59 105.834 302.654 106.898 302.654 108.21V150.097C302.654 151.41 301.59 152.473 300.278 152.473Z" fill="url(#paint6_linear)"/>
<path d="M291.775 150.493H230.322C225.899 150.493 222.312 146.906 222.312 142.482V115.824C222.312 111.401 225.899 107.815 230.322 107.815H291.775C296.199 107.815 299.785 111.401 299.785 115.824V142.482C299.785 146.906 296.199 150.493 291.775 150.493Z" fill="#7D97F4"/>
<path d="M295.372 122.873H259.054C258.707 122.873 258.424 122.59 258.424 122.243V119.25C258.424 118.902 258.707 118.62 259.054 118.62H295.372C295.721 118.62 296.003 118.902 296.003 119.25V122.243C296.003 122.59 295.721 122.873 295.372 122.873Z" fill="url(#paint7_linear)"/>
<path d="M295.372 131.99H259.054C258.707 131.99 258.424 131.708 258.424 131.359V128.367C258.424 128.018 258.707 127.736 259.054 127.736H295.372C295.721 127.736 296.003 128.018 296.003 128.367V131.359C296.003 131.708 295.721 131.99 295.372 131.99Z" fill="url(#paint8_linear)"/>
<path d="M295.372 140.735H259.054C258.707 140.735 258.424 140.452 258.424 140.104V137.112C258.424 136.763 258.707 136.48 259.054 136.48H295.372C295.721 136.48 296.003 136.763 296.003 137.112V140.104C296.003 140.452 295.721 140.735 295.372 140.735Z" fill="url(#paint9_linear)"/>
<path d="M242.341 125.709H228.184C227.721 125.709 227.344 125.334 227.344 124.871V113.313C227.344 112.85 227.721 112.475 228.184 112.475H242.341C242.804 112.475 243.18 112.85 243.18 113.313V124.871C243.18 125.334 242.804 125.709 242.341 125.709Z" fill="url(#paint10_linear)"/>
<path d="M230.583 118.624C231.156 118.288 231.895 118.489 232.219 119.07L233.743 121.802C233.897 122.076 234.296 122.059 234.424 121.773L238.205 113.355C238.394 112.935 239.019 113.077 239.012 113.537C238.973 116.113 238.29 121.006 234.176 125.103C234.176 125.103 231.909 124.222 230.084 120.213C229.819 119.634 230.034 118.947 230.583 118.624" fill="url(#paint11_linear)"/>
<path d="M196.13 151.441H118.766C117.454 151.441 116.391 150.377 116.391 149.064V107.178C116.391 105.865 117.454 104.802 118.766 104.802H196.13C197.442 104.802 198.505 105.865 198.505 107.178V149.064C198.505 150.377 197.442 151.441 196.13 151.441Z" fill="url(#paint12_linear)"/>
<path d="M187.625 149.46H126.173C121.748 149.46 118.163 145.873 118.163 141.45V114.792C118.163 110.368 121.748 106.783 126.173 106.783H187.625C192.049 106.783 195.636 110.368 195.636 114.792V141.45C195.636 145.873 192.049 149.46 187.625 149.46Z" fill="#7D97F4"/>
<path d="M191.224 121.841H154.906C154.557 121.841 154.275 121.559 154.275 121.21V118.218C154.275 117.869 154.557 117.587 154.906 117.587H191.224C191.572 117.587 191.855 117.869 191.855 118.218V121.21C191.855 121.559 191.572 121.841 191.224 121.841Z" fill="url(#paint13_linear)"/>
<path d="M191.224 130.958H154.906C154.557 130.958 154.275 130.675 154.275 130.326V127.334C154.275 126.986 154.557 126.703 154.906 126.703H191.224C191.572 126.703 191.855 126.986 191.855 127.334V130.326C191.855 130.675 191.572 130.958 191.224 130.958Z" fill="url(#paint14_linear)"/>
<path d="M191.224 139.702H154.906C154.557 139.702 154.275 139.42 154.275 139.071V136.079C154.275 135.73 154.557 135.448 154.906 135.448H191.224C191.572 135.448 191.855 135.73 191.855 136.079V139.071C191.855 139.42 191.572 139.702 191.224 139.702Z" fill="url(#paint15_linear)"/>
<path d="M138.193 124.677H124.034C123.571 124.677 123.196 124.301 123.196 123.838V112.28C123.196 111.817 123.571 111.442 124.034 111.442H138.193C138.656 111.442 139.031 111.817 139.031 112.28V123.838C139.031 124.301 138.656 124.677 138.193 124.677Z" fill="url(#paint16_linear)"/>
<path d="M196.368 205.046H119.005C117.693 205.046 116.629 203.982 116.629 202.669V160.782C116.629 159.47 117.693 158.407 119.005 158.407H196.368C197.68 158.407 198.744 159.47 198.744 160.782V202.669C198.744 203.982 197.68 205.046 196.368 205.046Z" fill="url(#paint17_linear)"/>
<path d="M187.865 203.065H126.411C121.988 203.065 118.402 199.478 118.402 195.055V168.397C118.402 163.973 121.988 160.388 126.411 160.388H187.865C192.288 160.388 195.875 163.973 195.875 168.397V195.055C195.875 199.478 192.288 203.065 187.865 203.065Z" fill="#7D97F4"/>
<path d="M191.462 175.445H155.145C154.796 175.445 154.514 175.163 154.514 174.815V171.822C154.514 171.474 154.796 171.192 155.145 171.192H191.462C191.81 171.192 192.094 171.474 192.094 171.822V174.815C192.094 175.163 191.81 175.445 191.462 175.445Z" fill="url(#paint18_linear)"/>
<path d="M191.462 184.563H155.145C154.796 184.563 154.514 184.28 154.514 183.931V180.94C154.514 180.591 154.796 180.308 155.145 180.308H191.462C191.81 180.308 192.094 180.591 192.094 180.94V183.931C192.094 184.28 191.81 184.563 191.462 184.563Z" fill="url(#paint19_linear)"/>
<path d="M191.462 193.307H155.145C154.796 193.307 154.514 193.025 154.514 192.676V189.684C154.514 189.335 154.796 189.053 155.145 189.053H191.462C191.81 189.053 192.094 189.335 192.094 189.684V192.676C192.094 193.025 191.81 193.307 191.462 193.307Z" fill="url(#paint20_linear)"/>
<path d="M138.43 178.282H124.273C123.809 178.282 123.434 177.906 123.434 177.443V165.885C123.434 165.422 123.809 165.047 124.273 165.047H138.43C138.893 165.047 139.27 165.422 139.27 165.885V177.443C139.27 177.906 138.893 178.282 138.43 178.282Z" fill="white"/>
<path d="M91.8737 148.704H14.5111C13.1989 148.704 12.135 147.64 12.135 146.328V104.441C12.135 103.128 13.1989 102.065 14.5111 102.065H91.8737C93.1866 102.065 94.2502 103.128 94.2502 104.441V146.328C94.2502 147.64 93.1866 148.704 91.8737 148.704Z" fill="url(#paint21_linear)"/>
<path d="M83.3706 146.724H21.9178C17.4939 146.724 13.9077 143.138 13.9077 138.714V112.056C13.9077 107.632 17.4939 104.046 21.9178 104.046H83.3706C87.7943 104.046 91.3809 107.632 91.3809 112.056V138.714C91.3809 143.138 87.7943 146.724 83.3706 146.724Z" fill="#7D97F4"/>
<path d="M86.9683 119.104H50.6505C50.302 119.104 50.0195 118.822 50.0195 118.473V115.481C50.0195 115.132 50.302 114.85 50.6505 114.85H86.9683C87.316 114.85 87.5985 115.132 87.5985 115.481V118.473C87.5985 118.822 87.316 119.104 86.9683 119.104Z" fill="url(#paint22_linear)"/>
<path d="M86.9683 128.221H50.6505C50.302 128.221 50.0195 127.938 50.0195 127.589V124.598C50.0195 124.249 50.302 123.966 50.6505 123.966H86.9683C87.316 123.966 87.5985 124.249 87.5985 124.598V127.589C87.5985 127.938 87.316 128.221 86.9683 128.221Z" fill="url(#paint23_linear)"/>
<path d="M86.9683 136.965H50.6505C50.302 136.965 50.0195 136.683 50.0195 136.335V133.342C50.0195 132.994 50.302 132.712 50.6505 132.712H86.9683C87.316 132.712 87.5985 132.994 87.5985 133.342V136.335C87.5985 136.683 87.316 136.965 86.9683 136.965Z" fill="url(#paint24_linear)"/>
<path d="M33.9364 121.941H19.7785C19.3153 121.941 18.9397 121.565 18.9397 121.101V109.543C18.9397 109.08 19.3153 108.705 19.7785 108.705H33.9364C34.3995 108.705 34.775 109.08 34.775 109.543V121.101C34.775 121.565 34.3995 121.941 33.9364 121.941" fill="url(#paint25_linear)"/>
<path d="M300.278 206.464H222.916C221.603 206.464 220.539 205.399 220.539 204.087V162.2C220.539 160.889 221.603 159.825 222.916 159.825H300.278C301.59 159.825 302.654 160.889 302.654 162.2V204.087C302.654 205.399 301.59 206.464 300.278 206.464Z" fill="url(#paint26_linear)"/>
<path d="M291.775 204.483H230.322C225.899 204.483 222.312 200.897 222.312 196.473V169.815C222.312 165.391 225.899 161.806 230.322 161.806H291.775C296.199 161.806 299.785 165.391 299.785 169.815V196.473C299.785 200.897 296.199 204.483 291.775 204.483Z" fill="#7D97F4"/>
<path d="M295.372 176.863H259.054C258.707 176.863 258.424 176.581 258.424 176.233V173.24C258.424 172.893 258.707 172.61 259.054 172.61H295.372C295.721 172.61 296.003 172.893 296.003 173.24V176.233C296.003 176.581 295.721 176.863 295.372 176.863Z" fill="url(#paint27_linear)"/>
<path d="M295.372 185.981H259.054C258.707 185.981 258.424 185.698 258.424 185.35V182.358C258.424 182.009 258.707 181.726 259.054 181.726H295.372C295.721 181.726 296.003 182.009 296.003 182.358V185.35C296.003 185.698 295.721 185.981 295.372 185.981" fill="url(#paint28_linear)"/>
<path d="M295.372 194.725H259.054C258.707 194.725 258.424 194.443 258.424 194.094V191.102C258.424 190.753 258.707 190.471 259.054 190.471H295.372C295.721 190.471 296.003 190.753 296.003 191.102V194.094C296.003 194.443 295.721 194.725 295.372 194.725Z" fill="url(#paint29_linear)"/>
<path d="M242.341 179.7H228.184C227.721 179.7 227.344 179.325 227.344 178.861V167.303C227.344 166.84 227.721 166.464 228.184 166.464H242.341C242.804 166.464 243.18 166.84 243.18 167.303V178.861C243.18 179.325 242.804 179.7 242.341 179.7Z" fill="url(#paint30_linear)"/>
<path d="M276.723 203.158C291.523 201.138 295.571 204.01 295.571 204.01L289.023 215.665C289.023 215.665 274.4 216.149 263.508 208.635C265.355 206.421 266.592 204.018 267.369 202.157C270.127 203.136 273.27 203.629 276.723 203.158Z" fill="url(#paint31_linear)"/>
<path d="M252.29 182.567C252.285 182.089 252.924 181.925 253.149 182.346L255.26 186.294C255.667 187.057 255.832 187.926 255.729 188.785L255.188 191.177C255.05 192.336 255.412 193.497 256.189 194.37C258.046 196.456 261.969 200.24 267.369 202.157C266.593 204.018 265.355 206.421 263.508 208.635C259.511 205.877 256.016 202.045 253.93 196.714C253.054 196.496 252.435 195.715 252.422 194.811L252.29 182.567Z" fill="url(#paint32_linear)"/>
<path d="M300.768 311.811C300.768 311.811 301.649 313.621 301.384 318.378C301.36 318.821 300.969 319.157 300.528 319.108L292.15 318.163C291.813 318.124 291.611 317.768 291.753 317.46C292.409 316.062 294.292 312.687 297.832 311.037L300.768 311.811" fill="url(#paint33_linear)"/>
<path d="M301.493 308.649L300.571 312.568C300.491 312.907 300.192 313.151 299.844 313.152C299.381 313.153 298.711 313.115 298.075 312.936C297.497 312.772 297.133 312.2 297.201 311.604L297.633 307.768L301.493 308.649" fill="url(#paint34_linear)"/>
<path d="M280.116 309.296C280.116 309.296 281.666 311.843 281.545 315.285C281.517 316.094 280.822 316.723 280.011 316.703L266.922 316.377C266.309 316.361 266.08 315.567 266.59 315.227C269.111 313.551 274.06 310.423 277.613 309.233L280.116 309.296Z" fill="url(#paint35_linear)"/>
<path d="M281.239 305.527L280.013 310.417C279.877 310.964 279.321 311.313 278.776 311.166C278.445 311.077 278.057 310.918 277.646 310.637C277.256 310.369 277.073 309.884 277.175 309.422L278.479 303.49L281.239 305.527" fill="url(#paint36_linear)"/>
<path d="M307.5 238.693C307.5 238.693 310.665 242.188 310.905 245.989C311.146 249.791 301.781 310.088 301.781 310.088C301.781 310.088 298.201 310.276 296.513 308.974C296.513 308.974 298.798 269.414 298.19 260.145C298.19 260.145 285.033 299.907 281.831 306.999C281.831 306.999 278.398 307.028 277.379 306.261C277.379 306.261 285.576 253.719 289.453 244.651L307.5 238.693Z" fill="url(#paint37_linear)"/>
<path d="M298.48 258.831C298.44 258.831 298.398 258.824 298.36 258.809C298.187 258.743 298.101 258.549 298.167 258.378L300.306 252.819C300.336 252.742 300.394 252.678 300.47 252.64L303.928 250.935C304.093 250.853 304.293 250.922 304.375 251.087C304.457 251.253 304.389 251.453 304.223 251.534L300.883 253.181L298.791 258.617C298.739 258.749 298.613 258.831 298.48 258.831" fill="#7D97F4"/>
<path d="M271.167 205.736C277.007 200.711 287.212 199.294 293.073 198.9C295.64 198.728 297.963 200.407 298.584 202.905C300.385 210.143 305.376 229.01 306.388 232.271C307.219 234.946 308.105 237.566 308.671 239.206C309.01 240.185 308.497 241.255 307.519 241.597C302.424 243.382 293.433 245.036 289.792 245.667C288.992 245.805 288.285 245.136 288.377 244.329C288.453 243.644 288.342 242.951 288.056 242.324L277.215 218.572C267.855 226.86 260.473 226.882 255.103 224.232C256.372 221.429 257.317 218.585 257.941 215.698C266.37 215.213 271.167 205.736 271.167 205.736" fill="url(#paint38_linear)"/>
<path d="M244.446 212.609L246.164 210.787C250.621 214.649 254.571 215.891 257.94 215.698C257.316 218.585 256.371 221.429 255.102 224.232C248.028 220.741 244.446 212.609 244.446 212.609" fill="url(#paint39_linear)"/>
<path d="M245.495 212.763L237.05 212.142L229.797 206.947C230.986 206.376 237.11 208.508 237.11 208.508C237.11 208.508 243.79 208.255 245.568 208.453C247.045 208.618 246.595 210.717 246.4 211.424C246.36 211.568 246.331 211.654 246.331 211.654L245.495 212.763" fill="url(#paint40_linear)"/>
<path d="M286.335 187.703L289.551 199.029C289.551 199.029 284.056 201.982 279.993 201.184L278.877 191.201L286.335 187.703Z" fill="url(#paint41_linear)"/>
<path d="M278.982 177.537C278.982 177.537 275.111 183.729 274.398 187.176C273.686 190.623 272.599 192.767 276.514 194.068C280.429 195.367 284.114 193.871 286.465 190.683C286.465 190.683 290.135 185.776 289.817 183.495C289.498 181.213 278.982 177.537 278.982 177.537" fill="url(#paint42_linear)"/>
<path d="M285.464 187.988L285.25 187.853C284.978 187.68 284.905 187.316 285.093 187.055C285.824 186.044 287.303 183.699 285.964 182.901C284.237 181.872 277.172 179.298 275.986 176.478C274.846 173.768 276.663 170.76 278.812 170.148C278.955 170.107 279.107 170.179 279.156 170.321L279.277 170.662C279.359 170.897 279.685 170.912 279.789 170.686C279.887 170.469 280.196 170.47 280.291 170.689C280.658 171.535 281.775 172.983 285.169 174.148C289.991 175.803 292.969 178.3 292.539 181.738C292.511 181.956 292.725 182.112 292.927 182.027C293.328 181.858 293.929 181.841 294.613 182.616C295.804 183.965 294.803 186.851 291.453 188.849C291.294 188.944 291.262 189.166 291.401 189.288C291.89 189.722 292.572 190.68 290.314 191.485C287.98 192.318 286.379 191.983 285.773 191.787C285.622 191.738 285.545 191.573 285.601 191.426L286.714 188.513C286.777 188.348 286.672 188.168 286.498 188.141L285.464 187.988" fill="url(#paint43_linear)"/>
<path d="M285.244 188.604C285.244 188.604 286.976 184.538 288.695 186.007C290.415 187.477 287.003 190.6 285.455 190.532L285.244 188.604Z" fill="url(#paint44_linear)"/>
<path d="M229.297 188.735C231.125 187.662 233.48 188.302 234.514 190.155L239.374 198.868C239.861 199.739 241.134 199.684 241.543 198.774L253.597 171.934C254.199 170.596 256.194 171.048 256.171 172.516C256.048 180.726 253.87 196.33 240.753 209.393C240.753 209.393 233.524 206.583 227.702 193.799C226.862 191.953 227.547 189.762 229.297 188.735" fill="url(#paint45_linear)"/>
<path d="M12.135 74.7562V73.4147C12.135 72.5729 12.8168 71.8913 13.6578 71.8913H14.7674C13.7399 72.693 12.8487 73.6617 12.135 74.7562Z" fill="#C9D4FA"/>
<path d="M92.7267 90.5961H13.6578C12.8168 90.5961 12.135 89.9145 12.135 89.0728V74.7562C12.8487 73.6617 13.7399 72.6931 14.7674 71.8913H92.7267C93.5685 71.8913 94.2501 72.573 94.2501 73.4147V89.0728C94.2501 89.9145 93.5685 90.5961 92.7267 90.5961Z" fill="#E4ECFD"/>
<path d="M195.968 90.9816H116.899C116.058 90.9816 115.376 90.2999 115.376 89.4582V73.8002C115.376 72.9584 116.058 72.2768 116.899 72.2768H195.968C196.809 72.2768 197.491 72.9584 197.491 73.8002V89.4582C197.491 90.2999 196.809 90.9816 195.968 90.9816Z" fill="#E4ECFD"/>
<path d="M299.812 90.9816H220.743C219.902 90.9816 219.22 90.2999 219.22 89.4582V73.8002C219.22 72.9584 219.902 72.2768 220.743 72.2768H299.812C300.653 72.2768 301.336 72.9584 301.336 73.8002V89.4582C301.336 90.2999 300.653 90.9816 299.812 90.9816" fill="#E4ECFD"/>
<path d="M25.1743 292.825C25.1743 292.825 8.23008 253.682 21.0589 212.443C21.1427 212.173 21.6192 212.225 21.6542 212.508C24.7469 237.45 25.6692 264.462 25.1743 292.825" fill="#7D97F4"/>
<path d="M25.1885 291.986C25.1923 291.757 25.1959 291.529 25.1995 291.302C25.2381 291.444 25.2772 291.585 25.3166 291.725C25.3469 291.832 25.2903 291.945 25.1885 291.986Z" fill="url(#paint46_linear)"/>
<path d="M25.1072 292.002C25.012 292.002 24.9248 291.939 24.8978 291.843C21.8917 281.163 20.7484 263.015 20.3187 249.673C19.8532 235.224 20.101 223.139 20.1035 223.019C20.106 222.9 20.1849 222.806 20.323 222.806C20.3239 222.806 20.3248 222.806 20.3257 222.806C20.4458 222.808 20.5413 222.908 20.5388 223.028C20.5361 223.149 20.2888 235.223 20.7537 249.662C21.1772 262.805 22.2925 280.612 25.1997 291.302C25.1962 291.529 25.1925 291.757 25.1887 291.986C25.1814 291.988 25.174 291.991 25.1662 291.994C25.1466 291.998 25.1267 292.002 25.1072 292.002" fill="#C9D4FA"/>
<path d="M29.0547 286.446C29.0547 286.446 18.5872 238.417 38.3697 189.816C38.4988 189.498 38.9689 189.591 38.9567 189.932C37.8898 220.034 34.2968 252.475 29.0547 286.446" fill="#7D97F4"/>
<path d="M29.2148 285.404C29.2533 285.153 29.2919 284.901 29.3302 284.65C29.3454 284.826 29.3612 285 29.3776 285.173C29.388 285.28 29.3171 285.378 29.2148 285.404" fill="url(#paint47_linear)"/>
<path d="M29.1612 285.411C29.0503 285.411 28.9556 285.326 28.945 285.213C26.589 260.361 35.5528 202.995 35.6435 202.418C35.6603 202.311 35.7512 202.235 35.857 202.235C35.8687 202.235 35.8804 202.235 35.8923 202.237C36.0113 202.255 36.0923 202.367 36.0737 202.486C35.9836 203.058 27.1516 259.58 29.3306 284.65C29.2923 284.901 29.2537 285.153 29.2152 285.404C29.2045 285.406 29.1934 285.408 29.1821 285.41L29.1612 285.411" fill="#C9D4FA"/>
<path d="M30.7154 299.469C30.7154 299.469 25.7005 257.57 50.6128 219.866C50.7755 219.62 51.2292 219.771 51.1794 220.054C46.7926 245.135 39.6527 271.788 30.7154 299.469Z" fill="#7D97F4"/>
<path d="M30.9792 298.651C31.0494 298.434 31.1183 298.219 31.1882 298.001C31.1839 298.149 31.1803 298.293 31.1773 298.438C31.1752 298.55 31.0885 298.642 30.9792 298.651" fill="white"/>
<path d="M30.9599 298.652H30.9554C30.8354 298.65 30.7399 298.55 30.7422 298.43C30.9655 287.338 35.2465 269.323 38.7986 256.162C42.6455 241.911 46.4893 230.126 46.5277 230.009C46.5575 229.916 46.643 229.858 46.7345 229.858C46.7569 229.858 46.7796 229.861 46.802 229.869C46.9164 229.906 46.9786 230.029 46.9413 230.144C46.903 230.26 43.0622 242.037 39.2183 256.278C35.7193 269.241 31.5117 286.922 31.1884 298.001C31.1185 298.219 31.0495 298.434 30.9794 298.651C30.973 298.652 30.9665 298.652 30.9599 298.652" fill="#C9D4FA"/>
<path d="M17.9958 276.28H41.0257C42.7495 276.28 44.0388 277.903 43.719 279.596C42.3438 286.875 39.5587 293.304 36.664 298.683C36.0172 299.885 34.765 300.652 33.4003 300.652H25.8853C24.4996 300.652 23.2289 299.899 22.5614 298.685C18.9483 292.11 17.1823 285.586 15.7089 279.202C15.3693 277.731 16.4861 276.28 17.9958 276.28Z" fill="#7D97F4"/>
<path d="M209.862 288.105C209.862 288.105 193.532 306.109 179.895 298.5C168.934 292.385 184.507 293.983 197.715 291.094C198.752 290.867 198.48 289.317 197.429 289.457C187.094 290.827 171.325 291.947 168.585 286.558C164.45 278.423 168.461 281.061 181.045 282.237C193.629 283.412 196.053 280.304 187.839 278.369C184.312 277.538 179.891 277.853 175.752 278.168C170.252 278.586 165.251 279.005 163.513 276.734C160.469 272.754 158.806 264.852 157.593 261.454C156.379 258.056 173.257 252.957 177.82 257.418C182.383 261.878 186.088 271.836 191.504 273.654C196.919 275.472 191.093 266.664 187.502 262.117C183.911 257.571 182.487 254.193 189.662 255.277C196.838 256.361 200.63 265.118 201.386 271.656C202.143 278.192 204.671 281.848 204.555 278.614C204.441 275.381 203.267 265.463 200.974 262.481C198.681 259.5 215.052 263.138 209.862 288.105" fill="#7D97F4"/>
<path d="M195.935 279.39C183.58 271.912 170.73 267.04 170.555 266.975C170.444 266.934 170.388 266.81 170.43 266.698C170.462 266.612 170.544 266.56 170.631 266.56C170.656 266.56 170.682 266.564 170.706 266.573C170.874 266.636 182.766 271.145 194.69 278.148C195.099 278.564 195.515 278.978 195.935 279.39" fill="#C2CEFA"/>
<path d="M218.945 299.613C216.347 299.613 207.674 299.369 199.651 296.363C196.862 295.317 194.152 293.939 191.803 292.12C191.069 291.551 190.37 290.939 189.716 290.282C187.629 288.186 185.987 285.621 185.073 282.483C185.033 282.345 184.994 282.205 184.956 282.064C184.874 281.758 184.799 281.465 184.731 281.184C184.393 279.795 184.216 278.706 184.185 277.884C184.13 276.417 184.541 275.791 185.332 275.791C186.635 275.791 188.971 277.486 191.975 279.927C192.062 279.998 192.151 280.07 192.239 280.142C196.17 283.352 201.193 287.761 206.514 291.317C206.578 291.36 206.645 291.405 206.71 291.447C206.904 291.576 207.1 291.632 207.284 291.632C208.08 291.632 208.669 290.601 208.047 289.925C208.005 289.88 207.959 289.838 207.907 289.797C204.164 286.835 199.805 283.177 195.935 279.39C195.514 278.978 195.099 278.564 194.69 278.148C192.982 276.415 191.4 274.665 190.051 272.956C186.74 268.767 184.818 264.815 185.822 261.892C185.99 261.404 186.152 260.951 186.31 260.531C187.4 257.635 188.286 256.349 189.326 256.349C191.404 256.349 194.097 261.491 200.275 269.184C200.586 269.571 200.891 269.945 201.191 270.305C202.214 271.535 203.177 272.616 204.072 273.555C207.243 276.88 209.577 278.421 210.775 278.421C210.812 278.421 210.846 278.419 210.881 278.416C212.044 278.321 211.996 276.603 210.414 273.526C210.149 273.011 209.842 272.46 209.49 271.87C207.541 268.606 204.294 265.48 201.011 262.53C195.348 257.442 189.575 252.879 190.15 249.028C191.059 242.944 196.603 234.727 198.562 230.753C198.857 230.156 199.535 229.886 200.476 229.886C201.914 229.886 203.967 230.519 206.194 231.573C207.813 232.34 209.525 233.33 211.16 234.462C215.567 237.515 219.416 241.6 219.401 245.139C219.367 252.973 213.754 264.746 216.777 271.072C217.352 272.274 217.918 272.791 218.464 272.791C220.794 272.791 222.768 263.401 223.529 257.689C224.122 253.24 225.043 249.95 226.941 249.95C228.052 249.95 229.496 251.074 231.405 253.75C236.579 261.002 232.098 271.827 226.982 278.079C226.103 279.153 225.344 280.2 224.702 281.184C224.006 282.253 223.45 283.246 223.031 284.116C222.02 286.222 221.817 287.61 222.399 287.61C222.645 287.61 223.03 287.363 223.555 286.817C224.155 286.193 224.992 285.253 225.942 284.116C226.677 283.238 227.478 282.242 228.289 281.184C231.237 277.339 234.308 272.679 234.718 269.877C234.791 269.376 234.986 269.142 235.24 269.142C236.409 269.142 238.833 274.138 236.422 281.184C236.1 282.127 235.69 283.107 235.179 284.116C233.718 287.007 231.428 290.138 227.964 293.349C225.734 295.416 223.015 297.517 219.721 299.604C219.721 299.604 219.446 299.613 218.945 299.613V299.613ZM205.01 246.53C204.976 246.53 204.94 246.537 204.906 246.552C204.772 246.61 204.712 246.765 204.769 246.899C204.892 247.182 217.118 275.521 218.283 298.354C218.287 298.454 218.349 298.539 218.434 298.579C218.468 298.595 218.506 298.603 218.544 298.603C218.549 298.603 218.555 298.603 218.559 298.603C218.705 298.596 218.816 298.471 218.809 298.326C217.64 275.398 205.376 246.973 205.253 246.688C205.209 246.589 205.112 246.53 205.01 246.53Z" fill="url(#paint48_linear)"/>
<path d="M218.545 298.603C218.506 298.603 218.468 298.595 218.434 298.579C218.35 298.539 218.288 298.454 218.283 298.354C217.119 275.521 204.893 247.182 204.77 246.899C204.712 246.765 204.773 246.61 204.907 246.552C204.941 246.537 204.977 246.53 205.011 246.53C205.113 246.53 205.21 246.589 205.253 246.688C205.377 246.973 217.64 275.398 218.809 298.326C218.816 298.471 218.705 298.596 218.56 298.603C218.555 298.603 218.55 298.603 218.545 298.603" fill="url(#paint49_linear)"/>
<path d="M184.079 186.388H93.7731C92.4613 186.388 91.3977 185.324 91.3977 184.011V134.774C91.3977 133.462 92.4613 132.397 93.7731 132.397H184.079C185.392 132.397 186.455 133.462 186.455 134.774V184.011C186.455 185.324 185.392 186.388 184.079 186.388Z" fill="url(#paint50_linear)"/>
<path d="M180.758 184.095H95.8263C94.5133 184.095 93.4497 183.031 93.4497 181.719V137.067C93.4497 135.754 94.5133 134.69 95.8263 134.69H180.758C182.07 134.69 183.133 135.754 183.133 137.067V181.719C183.133 183.031 182.07 184.095 180.758 184.095Z" fill="url(#paint51_linear)"/>
<path d="M178.125 152.122H135.884C135.536 152.122 135.253 151.84 135.253 151.492V147.829C135.253 147.48 135.536 147.198 135.884 147.198H178.125C178.474 147.198 178.756 147.48 178.756 147.829V151.492C178.756 151.84 178.474 152.122 178.125 152.122Z" fill="white"/>
<path d="M178.125 162.676H135.884C135.536 162.676 135.253 162.394 135.253 162.045V158.383C135.253 158.034 135.536 157.752 135.884 157.752H178.125C178.474 157.752 178.756 158.034 178.756 158.383V162.045C178.756 162.394 178.474 162.676 178.125 162.676Z" fill="white"/>
<path d="M178.125 172.8H135.884C135.536 172.8 135.253 172.516 135.253 172.169V168.505C135.253 168.157 135.536 167.874 135.884 167.874H178.125C178.474 167.874 178.756 168.157 178.756 168.505V172.169C178.756 172.516 178.474 172.8 178.125 172.8Z" fill="white"/>
<path d="M116.768 155.406H100.114C99.6508 155.406 99.2756 155.031 99.2756 154.568V140.924C99.2756 140.46 99.6508 140.084 100.114 140.084H116.768C117.231 140.084 117.606 140.46 117.606 140.924V154.568C117.606 155.031 117.231 155.406 116.768 155.406Z" fill="white"/>
<path d="M91.5432 173.71L91.6301 170.816L88.6051 164.809C88.0515 163.711 88.047 162.415 88.5937 161.314L92.0201 154.395C92.0201 154.395 93.9987 169.412 94.519 170.66C95.0405 171.909 93.1077 174.151 93.1077 174.151L91.5432 173.71" fill="url(#paint52_linear)"/>
<path d="M66.5046 171.176C66.5046 171.176 63.2703 172.749 62.6756 174.556C62.1983 176.006 58.6221 176.193 58.2689 179.044C58.0866 180.516 56.997 181.697 55.5305 181.921C51.8781 182.481 46.2494 184.377 45.3488 190.719C44.6613 195.559 47.1289 197.395 49.7185 198.029C51.6205 198.496 52.8845 200.347 52.4997 202.267C52.1308 204.108 52.681 206.238 55.8717 207.921C63.0221 211.694 70.1632 198.982 70.1632 198.982L71.626 176.788L66.5046 171.176" fill="url(#paint53_linear)"/>
<path d="M91.5429 173.71C91.5429 173.71 92.1959 192.956 75.2844 192.392C75.2844 192.392 80.5019 200.906 83.225 201.422C83.225 201.422 100.526 195.416 94.5187 170.66L91.5429 173.71" fill="url(#paint54_linear)"/>
<path d="M37.1137 310.345L36.651 314.149C36.1693 315.956 33.842 320.511 30.8552 320.215C29.0174 320.032 28.7962 314.664 29.0522 313.857C29.5189 312.39 30.3728 310.185 31.6037 308.888H35.8233C36.6035 308.888 37.208 309.571 37.1137 310.345Z" fill="url(#paint55_linear)"/>
<path d="M70.1631 265.786L70.8745 269.976C70.8745 269.976 68.4899 294.134 68.0656 303.798C67.9993 305.312 68.3916 306.809 69.1864 308.1L73.3334 314.835L62.7933 308.616L62.584 307.329L64.3086 304.957L62.0491 277.893C61.9163 276.304 62.2443 274.709 62.9946 273.302L65.1744 269.206L70.1631 265.786" fill="url(#paint56_linear)"/>
<path d="M74.0276 315.811H70.6641C70.0339 315.811 69.4403 315.521 69.0572 315.023C68.0085 313.661 65.8355 311.002 64.797 310.933C63.3983 310.839 63.5779 315.811 63.5779 315.811H62.7933L61.8007 309.633C61.5508 308.078 62.3233 306.539 63.7197 305.81C63.7197 305.81 64.0388 308.174 65.7726 309.221C67.5052 310.266 72.8256 314.011 72.8256 314.011C72.8256 314.011 73.4775 313.918 74.1935 314.047C75.2536 314.239 75.1061 315.811 74.0276 315.811Z" fill="url(#paint57_linear)"/>
<path d="M55.7267 267.776C55.7267 267.776 41.7547 294.28 39.5336 300.331C37.3125 306.382 36.5345 311.43 36.5048 311.909C36.4581 312.655 35.5291 313.371 32.9682 313.371C31.6465 313.371 30.9992 312.842 30.6823 312.329C30.4119 311.891 30.398 311.345 30.6258 310.883C31.434 309.247 33.9989 304.021 34.9488 301.65C36.083 298.819 38.5225 285.991 39.8605 281.53C41.1985 277.07 42.7108 272.232 48.5372 267.776C48.5372 267.776 52.537 263.858 55.7267 267.776" fill="url(#paint58_linear)"/>
<path d="M64.5535 224.349C66.5995 215.677 64.5409 209.145 62.3782 205.118C60.6539 201.905 61.8664 197.932 65.1013 196.25C70.1563 193.622 75.2845 192.392 75.2845 192.392C75.2845 192.392 85.3008 199.714 84.1126 205.446C83.4161 208.805 77.0721 225.568 77.0721 225.568C77.0721 225.568 71.2062 228.344 64.5535 224.349" fill="url(#paint59_linear)"/>
<path d="M56.5622 231.91C58.029 227.49 64.5536 224.349 64.5536 224.349C71.2064 228.344 77.0723 225.568 77.0723 225.568C77.0723 225.568 78.3875 230.597 77.4794 235.27C76.5713 239.943 70.8747 269.976 70.8747 269.976C61.8989 271.794 48.0938 268.146 48.0938 268.146C53.8112 257.995 55.0954 236.328 56.5622 231.91" fill="url(#paint60_linear)"/>
<path d="M68.737 182.299L65.8058 195.462C65.5256 196.62 66.5824 196.431 67.7546 196.21C69.6749 195.848 72.1486 195.103 72.9755 193.609C73.0601 193.457 73.1013 193.285 73.1253 193.113L74.3845 183.986C74.484 183.262 74.0929 182.559 73.425 182.263L70.9947 181.185C70.0603 180.771 68.9772 181.304 68.737 182.299" fill="url(#paint61_linear)"/>
<path d="M72.1751 169.767C72.1751 169.767 75.645 171.232 78.0044 176.247C80.3649 181.262 78.6025 183.578 76.3895 183.896C74.1754 184.214 70.8656 184.165 67.3636 180.926C63.8629 177.686 67.6633 168.03 72.1751 169.767" fill="url(#paint62_linear)"/>
<path d="M69.7174 178.248C69.7174 178.248 67.0995 170.911 73.6047 170.825L75.135 171.894C75.135 171.894 77.5218 167.826 73.6047 165.884C69.6865 163.943 65.1027 165.547 63.4352 170.825C61.7682 176.102 61.4835 179.635 64.2575 182.16C67.0309 184.685 68.1734 181.822 68.1734 181.822C68.1734 181.822 66.6626 179.461 67.2779 178.197C67.8932 176.933 69.3114 178.458 69.3114 178.458L69.7174 178.248" fill="url(#paint63_linear)"/>
<path d="M68.9874 179.065C68.9874 179.065 67.6642 175.286 65.8983 176.791C64.1325 178.296 67.3336 180.282 68.5871 180.926L68.9874 179.065Z" fill="url(#paint64_linear)"/>
<path d="M103.741 188.711C103.741 188.711 94.8733 208.621 66.5502 197.88C64.6837 197.172 62.8127 199.193 62.6571 201.183L62.5736 202.259C62.3495 205.142 64.702 207.572 67.5909 207.426C77.9343 206.902 92.7907 212.949 105.842 195.416L103.741 188.711" fill="url(#paint65_linear)"/>
<path d="M105.842 195.416C105.842 195.416 107.325 191.054 107.696 188.329C108.069 185.602 106.698 179.484 105.521 177.764C104.343 176.043 104.146 180.26 103.616 182.242C103.086 184.224 103.984 187.052 103.984 187.052L103.442 190.759L105.842 195.416Z" fill="url(#paint66_linear)"/>
<defs>
<linearGradient id="paint0_linear" x1="360.254" y1="413.482" x2="77.2585" y2="62.0191" gradientUnits="userSpaceOnUse">
<stop stop-color="#DAE3FE"/>
<stop offset="1" stop-color="#E9EFFD"/>
</linearGradient>
<linearGradient id="paint1_linear" x1="360.254" y1="413.481" x2="77.2586" y2="62.0192" gradientUnits="userSpaceOnUse">
<stop stop-color="#C4D5FD"/>
<stop offset="1" stop-color="#CEDDFC"/>
</linearGradient>
<linearGradient id="paint2_linear" x1="360.254" y1="413.48" x2="77.2599" y2="62.0179" gradientUnits="userSpaceOnUse">
<stop stop-color="#C4D5FD"/>
<stop offset="1" stop-color="#CEDDFC"/>
</linearGradient>
<linearGradient id="paint3_linear" x1="360.254" y1="413.482" x2="77.2585" y2="62.0192" gradientUnits="userSpaceOnUse">
<stop stop-color="#C4D5FD"/>
<stop offset="1" stop-color="#CEDDFC"/>
</linearGradient>
<linearGradient id="paint4_linear" x1="360.254" y1="413.482" x2="77.2585" y2="62.0193" gradientUnits="userSpaceOnUse">
<stop stop-color="#C4D5FD"/>
<stop offset="1" stop-color="#CEDDFC"/>
</linearGradient>
<linearGradient id="paint5_linear" x1="0" y1="174.909" x2="320" y2="174.909" gradientUnits="userSpaceOnUse">
<stop stop-color="#09005D"/>
<stop offset="1" stop-color="#1A0F91"/>
</linearGradient>
<linearGradient id="paint6_linear" x1="274.65" y1="35.9536" x2="252.099" y2="196.975" gradientUnits="userSpaceOnUse">
<stop stop-color="#4F52FF"/>
<stop offset="1" stop-color="#4042E2"/>
</linearGradient>
<linearGradient id="paint7_linear" x1="258.424" y1="120.747" x2="296.004" y2="120.747" gradientUnits="userSpaceOnUse">
<stop stop-color="#DAE3FE"/>
<stop offset="1" stop-color="#E9EFFD"/>
</linearGradient>
<linearGradient id="paint8_linear" x1="258.424" y1="129.863" x2="296.004" y2="129.863" gradientUnits="userSpaceOnUse">
<stop stop-color="#DAE3FE"/>
<stop offset="1" stop-color="#E9EFFD"/>
</linearGradient>
<linearGradient id="paint9_linear" x1="258.424" y1="138.608" x2="296.004" y2="138.608" gradientUnits="userSpaceOnUse">
<stop stop-color="#DAE3FE"/>
<stop offset="1" stop-color="#E9EFFD"/>
</linearGradient>
<linearGradient id="paint10_linear" x1="227.344" y1="119.092" x2="243.18" y2="119.092" gradientUnits="userSpaceOnUse">
<stop stop-color="#DAE3FE"/>
<stop offset="1" stop-color="#E9EFFD"/>
</linearGradient>
<linearGradient id="paint11_linear" x1="253.276" y1="86.5773" x2="213.811" y2="153.935" gradientUnits="userSpaceOnUse">
<stop stop-color="#E1473D"/>
<stop offset="1" stop-color="#E9605A"/>
</linearGradient>
<linearGradient id="paint12_linear" x1="172.411" y1="21.2815" x2="149.86" y2="182.303" gradientUnits="userSpaceOnUse">
<stop stop-color="#4F52FF"/>
<stop offset="1" stop-color="#4042E2"/>
</linearGradient>
<linearGradient id="paint13_linear" x1="154.275" y1="119.714" x2="191.854" y2="119.714" gradientUnits="userSpaceOnUse">
<stop stop-color="#DAE3FE"/>
<stop offset="1" stop-color="#E9EFFD"/>
</linearGradient>
<linearGradient id="paint14_linear" x1="154.275" y1="128.83" x2="191.854" y2="128.83" gradientUnits="userSpaceOnUse">
<stop stop-color="#DAE3FE"/>
<stop offset="1" stop-color="#E9EFFD"/>
</linearGradient>
<linearGradient id="paint15_linear" x1="154.275" y1="137.575" x2="191.854" y2="137.575" gradientUnits="userSpaceOnUse">
<stop stop-color="#DAE3FE"/>
<stop offset="1" stop-color="#E9EFFD"/>
</linearGradient>
<linearGradient id="paint16_linear" x1="123.196" y1="118.059" x2="139.031" y2="118.059" gradientUnits="userSpaceOnUse">
<stop stop-color="#DAE3FE"/>
<stop offset="1" stop-color="#E9EFFD"/>
</linearGradient>
<linearGradient id="paint17_linear" x1="166.355" y1="144.104" x2="129.749" y2="302.973" gradientUnits="userSpaceOnUse">
<stop stop-color="#4F52FF"/>
<stop offset="1" stop-color="#4042E2"/>
</linearGradient>
<linearGradient id="paint18_linear" x1="154.514" y1="173.319" x2="192.093" y2="173.319" gradientUnits="userSpaceOnUse">
<stop stop-color="#DAE3FE"/>
<stop offset="1" stop-color="#E9EFFD"/>
</linearGradient>
<linearGradient id="paint19_linear" x1="154.514" y1="182.435" x2="192.093" y2="182.435" gradientUnits="userSpaceOnUse">
<stop stop-color="#DAE3FE"/>
<stop offset="1" stop-color="#E9EFFD"/>
</linearGradient>
<linearGradient id="paint20_linear" x1="154.514" y1="191.18" x2="192.093" y2="191.18" gradientUnits="userSpaceOnUse">
<stop stop-color="#DAE3FE"/>
<stop offset="1" stop-color="#E9EFFD"/>
</linearGradient>
<linearGradient id="paint21_linear" x1="69.8282" y1="6.60356" x2="47.2773" y2="167.625" gradientUnits="userSpaceOnUse">
<stop stop-color="#4F52FF"/>
<stop offset="1" stop-color="#4042E2"/>
</linearGradient>
<linearGradient id="paint22_linear" x1="50.0195" y1="116.977" x2="87.5988" y2="116.977" gradientUnits="userSpaceOnUse">
<stop stop-color="#DAE3FE"/>
<stop offset="1" stop-color="#E9EFFD"/>
</linearGradient>
<linearGradient id="paint23_linear" x1="50.0195" y1="126.093" x2="87.5988" y2="126.093" gradientUnits="userSpaceOnUse">
<stop stop-color="#DAE3FE"/>
<stop offset="1" stop-color="#E9EFFD"/>
</linearGradient>
<linearGradient id="paint24_linear" x1="50.0195" y1="134.839" x2="87.5988" y2="134.839" gradientUnits="userSpaceOnUse">
<stop stop-color="#DAE3FE"/>
<stop offset="1" stop-color="#E9EFFD"/>
</linearGradient>
<linearGradient id="paint25_linear" x1="18.9397" y1="115.322" x2="34.775" y2="115.322" gradientUnits="userSpaceOnUse">
<stop stop-color="#DAE3FE"/>
<stop offset="1" stop-color="#E9EFFD"/>
</linearGradient>
<linearGradient id="paint26_linear" x1="268.704" y1="159.919" x2="246.178" y2="233.53" gradientUnits="userSpaceOnUse">
<stop stop-color="#4F52FF"/>
<stop offset="1" stop-color="#4042E2"/>
</linearGradient>
<linearGradient id="paint27_linear" x1="258.424" y1="174.736" x2="296.004" y2="174.736" gradientUnits="userSpaceOnUse">
<stop stop-color="#DAE3FE"/>
<stop offset="1" stop-color="#E9EFFD"/>
</linearGradient>
<linearGradient id="paint28_linear" x1="258.424" y1="183.854" x2="296.004" y2="183.854" gradientUnits="userSpaceOnUse">
<stop stop-color="#DAE3FE"/>
<stop offset="1" stop-color="#E9EFFD"/>
</linearGradient>
<linearGradient id="paint29_linear" x1="258.424" y1="192.598" x2="296.004" y2="192.598" gradientUnits="userSpaceOnUse">
<stop stop-color="#DAE3FE"/>
<stop offset="1" stop-color="#E9EFFD"/>
</linearGradient>
<linearGradient id="paint30_linear" x1="227.344" y1="173.082" x2="243.18" y2="173.082" gradientUnits="userSpaceOnUse">
<stop stop-color="#DAE3FE"/>
<stop offset="1" stop-color="#E9EFFD"/>
</linearGradient>
<linearGradient id="paint31_linear" x1="272.241" y1="147.612" x2="285.667" y2="255.607" gradientUnits="userSpaceOnUse">
<stop stop-color="#E1473D"/>
<stop offset="1" stop-color="#E9605A"/>
</linearGradient>
<linearGradient id="paint32_linear" x1="266.986" y1="194.9" x2="252.466" y2="195.668" gradientUnits="userSpaceOnUse">
<stop stop-color="#FEBBBA"/>
<stop offset="1" stop-color="#FF928E"/>
</linearGradient>
<linearGradient id="paint33_linear" x1="301.726" y1="315.359" x2="292.087" y2="314.272" gradientUnits="userSpaceOnUse">
<stop stop-color="#09005D"/>
<stop offset="1" stop-color="#1A0F91"/>
</linearGradient>
<linearGradient id="paint34_linear" x1="301.254" y1="310.769" x2="297.345" y2="310.329" gradientUnits="userSpaceOnUse">
<stop stop-color="#FEBBBA"/>
<stop offset="1" stop-color="#FF928E"/>
</linearGradient>
<linearGradient id="paint35_linear" x1="281.602" y1="313.038" x2="266.387" y2="312.658" gradientUnits="userSpaceOnUse">
<stop stop-color="#09005D"/>
<stop offset="1" stop-color="#1A0F91"/>
</linearGradient>
<linearGradient id="paint36_linear" x1="281.157" y1="307.447" x2="277.248" y2="307.282" gradientUnits="userSpaceOnUse">
<stop stop-color="#FEBBBA"/>
<stop offset="1" stop-color="#FF928E"/>
</linearGradient>
<linearGradient id="paint37_linear" x1="318.295" y1="217.635" x2="283.265" y2="309.882" gradientUnits="userSpaceOnUse">
<stop stop-color="#4F52FF"/>
<stop offset="1" stop-color="#4042E2"/>
</linearGradient>
<linearGradient id="paint38_linear" x1="340.917" y1="153.255" x2="313.929" y2="188.339" gradientUnits="userSpaceOnUse">
<stop stop-color="#FF928E"/>
<stop offset="1" stop-color="#FE7062"/>
</linearGradient>
<linearGradient id="paint39_linear" x1="235.447" y1="189.495" x2="262.29" y2="231.856" gradientUnits="userSpaceOnUse">
<stop stop-color="#FEBBBA"/>
<stop offset="1" stop-color="#FF928E"/>
</linearGradient>
<linearGradient id="paint40_linear" x1="228.992" y1="193.585" x2="255.835" y2="235.947" gradientUnits="userSpaceOnUse">
<stop stop-color="#FEBBBA"/>
<stop offset="1" stop-color="#FF928E"/>
</linearGradient>
<linearGradient id="paint41_linear" x1="273.218" y1="169.982" x2="297.193" y2="228.948" gradientUnits="userSpaceOnUse">
<stop stop-color="#FEBBBA"/>
<stop offset="1" stop-color="#FF928E"/>
</linearGradient>
<linearGradient id="paint42_linear" x1="277.508" y1="183.277" x2="292.106" y2="198.347" gradientUnits="userSpaceOnUse">
<stop stop-color="#FEBBBA"/>
<stop offset="1" stop-color="#FF928E"/>
</linearGradient>
<linearGradient id="paint43_linear" x1="290.6" y1="175.023" x2="272.301" y2="192.496" gradientUnits="userSpaceOnUse">
<stop stop-color="#09005D"/>
<stop offset="1" stop-color="#1A0F91"/>
</linearGradient>
<linearGradient id="paint44_linear" x1="279.951" y1="180.911" x2="294.55" y2="195.981" gradientUnits="userSpaceOnUse">
<stop stop-color="#FEBBBA"/>
<stop offset="1" stop-color="#FF928E"/>
</linearGradient>
<linearGradient id="paint45_linear" x1="251.605" y1="160.993" x2="207.233" y2="276.593" gradientUnits="userSpaceOnUse">
<stop stop-color="#E1473D"/>
<stop offset="1" stop-color="#E9605A"/>
</linearGradient>
<linearGradient id="paint46_linear" x1="0.000421532" y1="174.909" x2="319.993" y2="174.909" gradientUnits="userSpaceOnUse">
<stop stop-color="#9A96BC"/>
<stop offset="1" stop-color="#A19CD2"/>
</linearGradient>
<linearGradient id="paint47_linear" x1="-0.000162562" y1="174.909" x2="319.999" y2="174.909" gradientUnits="userSpaceOnUse">
<stop stop-color="#9A96BC"/>
<stop offset="1" stop-color="#A19CD2"/>
</linearGradient>
<linearGradient id="paint48_linear" x1="189.923" y1="302.365" x2="247.759" y2="206.066" gradientUnits="userSpaceOnUse">
<stop stop-color="#4F52FF"/>
<stop offset="1" stop-color="#4042E2"/>
</linearGradient>
<linearGradient id="paint49_linear" x1="189.924" y1="302.365" x2="247.76" y2="206.066" gradientUnits="userSpaceOnUse">
<stop stop-color="#ACAEFF"/>
<stop offset="1" stop-color="#A5A6F1"/>
</linearGradient>
<linearGradient id="paint50_linear" x1="166.232" y1="52.9018" x2="158.261" y2="83.9882" gradientUnits="userSpaceOnUse">
<stop stop-color="#FF928E"/>
<stop offset="1" stop-color="#FE7062"/>
</linearGradient>
<linearGradient id="paint51_linear" x1="137.73" y1="117.28" x2="140.05" y2="291.28" gradientUnits="userSpaceOnUse">
<stop stop-color="#FF928E"/>
<stop offset="1" stop-color="#FE7062"/>
</linearGradient>
<linearGradient id="paint52_linear" x1="93.2095" y1="162.831" x2="66.4913" y2="223.158" gradientUnits="userSpaceOnUse">
<stop stop-color="#FEBBBA"/>
<stop offset="1" stop-color="#FF928E"/>
</linearGradient>
<linearGradient id="paint53_linear" x1="71.9999" y1="169.555" x2="54.644" y2="199.472" gradientUnits="userSpaceOnUse">
<stop stop-color="#09005D"/>
<stop offset="1" stop-color="#1A0F91"/>
</linearGradient>
<linearGradient id="paint54_linear" x1="96.2548" y1="165.147" x2="76.9246" y2="208.793" gradientUnits="userSpaceOnUse">
<stop stop-color="#FEBBBA"/>
<stop offset="1" stop-color="#FF928E"/>
</linearGradient>
<linearGradient id="paint55_linear" x1="37.1235" y1="314.558" x2="28.9646" y2="314.558" gradientUnits="userSpaceOnUse">
<stop stop-color="#09005D"/>
<stop offset="1" stop-color="#1A0F91"/>
</linearGradient>
<linearGradient id="paint56_linear" x1="71.4966" y1="344.375" x2="59.7901" y2="207.554" gradientUnits="userSpaceOnUse">
<stop stop-color="#FEBBBA"/>
<stop offset="1" stop-color="#FF928E"/>
</linearGradient>
<linearGradient id="paint57_linear" x1="66.0105" y1="310.811" x2="52.8477" y2="310.811" gradientUnits="userSpaceOnUse">
<stop stop-color="#09005D"/>
<stop offset="1" stop-color="#1A0F91"/>
</linearGradient>
<linearGradient id="paint58_linear" x1="47.9487" y1="346.411" x2="36.2391" y2="209.554" gradientUnits="userSpaceOnUse">
<stop stop-color="#FEBBBA"/>
<stop offset="1" stop-color="#FF928E"/>
</linearGradient>
<linearGradient id="paint59_linear" x1="170.065" y1="117.758" x2="144.62" y2="141.662" gradientUnits="userSpaceOnUse">
<stop stop-color="#FF928E"/>
<stop offset="1" stop-color="#FE7062"/>
</linearGradient>
<linearGradient id="paint60_linear" x1="44.0901" y1="125.748" x2="53.2643" y2="185.686" gradientUnits="userSpaceOnUse">
<stop stop-color="#4F52FF"/>
<stop offset="1" stop-color="#4042E2"/>
</linearGradient>
<linearGradient id="paint61_linear" x1="72.7811" y1="209.511" x2="70.582" y2="193.423" gradientUnits="userSpaceOnUse">
<stop stop-color="#FEBBBA"/>
<stop offset="1" stop-color="#FF928E"/>
</linearGradient>
<linearGradient id="paint62_linear" x1="78.3315" y1="188.769" x2="59.1447" y2="154.623" gradientUnits="userSpaceOnUse">
<stop stop-color="#FEBBBA"/>
<stop offset="1" stop-color="#FF928E"/>
</linearGradient>
<linearGradient id="paint63_linear" x1="70.6392" y1="168.766" x2="53.2832" y2="198.682" gradientUnits="userSpaceOnUse">
<stop stop-color="#09005D"/>
<stop offset="1" stop-color="#1A0F91"/>
</linearGradient>
<linearGradient id="paint64_linear" x1="74.2471" y1="191.064" x2="55.0604" y2="156.918" gradientUnits="userSpaceOnUse">
<stop stop-color="#FEBBBA"/>
<stop offset="1" stop-color="#FF928E"/>
</linearGradient>
<linearGradient id="paint65_linear" x1="55.405" y1="218.37" x2="121.459" y2="173.144" gradientUnits="userSpaceOnUse">
<stop stop-color="#FEBBBA"/>
<stop offset="1" stop-color="#FF928E"/>
</linearGradient>
<linearGradient id="paint66_linear" x1="56.45" y1="219.895" x2="122.504" y2="174.669" gradientUnits="userSpaceOnUse">
<stop stop-color="#FEBBBA"/>
<stop offset="1" stop-color="#FF928E"/>
</linearGradient>
</defs>
</svg>
