<svg width="24" height="24" viewBox="0 0 24 24" fill="none" xmlns="http://www.w3.org/2000/svg">
<path d="M12 2C6.48 2 2 6.48 2 12C2 17.52 6.48 22 12 22C17.52 22 22 17.52 22 12C22 6.48 17.52 2 12 2ZM12 20C7.58 20 4 16.42 4 12C4 7.58 7.58 4 12 4C16.42 4 20 7.58 20 12C20 16.42 16.42 20 12 20Z" fill="#A13434"/>
<circle cx="12" cy="12" r="9" fill="#A13434"/>
<path d="M16.59 7.58002L10 14.17L7.41 11.59L6 13L10 17L18 9.00002L16.59 7.58002Z" fill="#041955"/>
<path d="M12 4C7.59 4 4 7.59 4 12C4 16.41 7.59 20 12 20C16.41 20 20 16.41 20 12C20 7.59 16.41 4 12 4ZM10 17L6 13L7.41 11.59L10 14.17L16.59 7.58L18 9L10 17Z" fill="#A13434"/>
</svg>
