<svg width="243" height="242" viewBox="0 0 243 242" fill="none" xmlns="http://www.w3.org/2000/svg">
<path d="M125.518 238.927C121.068 238.927 116.943 238.734 113.239 238.441C125.196 238.096 137.481 237.599 149.007 237.06C140.608 238.432 132.644 238.927 125.518 238.927V238.927ZM203.358 213.932L197.544 114.331C212.744 104.567 223.044 87.9534 223.044 69.5564C223.044 62.8977 221.695 56.5805 219.252 50.7955C251.864 99.8572 244.423 172.332 212.957 205.458C209.548 209.047 206.267 211.743 203.358 213.932V213.932ZM16.679 185.438C3.8541 162.299 1.0375 134.379 5.66404 107.957C10.7156 128.166 20.628 149.506 39.5176 165.159L39.7421 185.402H17.33C17.11 185.402 16.8928 185.415 16.679 185.438V185.438ZM22.4956 62.3983C22.3888 62.3103 22.2833 62.2223 22.1764 62.1343C22.2394 62.0248 22.3041 61.9135 22.3674 61.8048C22.4091 62.0006 22.4527 62.2025 22.4956 62.3983V62.3983ZM194.573 24.5391C190.231 22.2603 185.548 20.5024 180.629 19.3475C179.875 18.1313 178.526 17.3369 177.018 17.3369C176.901 17.3369 176.782 17.3412 176.664 17.3516C174.443 17.5336 172.202 17.694 169.945 17.8355C168.921 17.7828 167.891 17.757 166.856 17.757C163.963 17.757 161.122 17.9726 158.351 18.3883C152.825 18.5755 147.25 18.6592 141.688 18.6592C114.57 18.6592 87.7319 16.6546 68.1308 14.7183C78.6434 8.68742 91.1587 3.90035 105.802 1.98553C110.875 1.3231 116.09 0.987583 121.372 0.987583C146.552 0.987583 173.351 8.59513 194.573 24.5391" fill="url(#paint0_linear)"/>
<path d="M3.15283 233.507L106.546 233.508V212.814H3.15283C5.36583 212.814 5.36583 233.507 3.15283 233.507" fill="#BDD0FB"/>
<path d="M58.0504 238.186H1.65606C0.741434 238.186 0 237.445 0 236.53C0 234.861 1.3534 233.507 3.02292 233.507H3.15282H51.7134L51.7203 234.126C51.7418 236.098 53.2392 237.741 55.2015 237.937C56.1063 238.026 57.0568 238.109 58.0504 238.186ZM40.046 212.814H3.58883C3.58874 212.814 3.58857 212.814 3.5884 212.814C1.60647 212.813 0 211.207 0 209.225C0 208.623 0.488191 208.135 1.09033 208.135H15.6733C16.1987 208.288 16.7549 208.371 17.33 208.371H39.9967L40.046 212.814" fill="url(#paint1_linear)"/>
<path d="M40.0963 217.352H6.73326C6.57145 217.352 6.44043 217.221 6.44043 217.059C6.44043 216.898 6.57145 216.767 6.73326 216.767H40.0898L40.0963 217.352Z" fill="url(#paint2_linear)"/>
<path d="M40.1303 220.424H6.73326C6.57145 220.424 6.44043 220.293 6.44043 220.131C6.44043 219.969 6.57145 219.838 6.73326 219.838H40.1238L40.1303 220.424" fill="url(#paint3_linear)"/>
<path d="M103.678 223.495H6.73326C6.57145 223.495 6.44043 223.364 6.44043 223.203C6.44043 223.041 6.57145 222.91 6.73326 222.91H103.678C103.84 222.91 103.97 223.041 103.97 223.203C103.97 223.364 103.84 223.495 103.678 223.495Z" fill="url(#paint4_linear)"/>
<path d="M103.678 226.567H6.73326C6.57145 226.567 6.44043 226.436 6.44043 226.274C6.44043 226.112 6.57145 225.981 6.73326 225.981H103.678C103.84 225.981 103.97 226.112 103.97 226.274C103.97 226.436 103.84 226.567 103.678 226.567Z" fill="url(#paint5_linear)"/>
<path d="M103.678 229.639H6.73326C6.57145 229.639 6.44043 229.507 6.44043 229.346C6.44043 229.185 6.57145 229.054 6.73326 229.054H103.678C103.84 229.054 103.97 229.185 103.97 229.346C103.97 229.507 103.84 229.639 103.678 229.639Z" fill="url(#paint6_linear)"/>
<path d="M17.3301 208.371H100.715C103.965 208.371 106.599 205.737 106.599 202.487V191.286C106.599 188.037 103.965 185.402 100.715 185.402H17.3301C14.0805 185.402 11.4463 188.037 11.4463 191.286V202.487C11.4463 205.737 14.0805 208.371 17.3301 208.371Z" fill="#7D97F4"/>
<path d="M85.2918 205.731H95.2205C95.5655 205.731 95.8449 205.451 95.8449 205.106V188.667C95.8449 188.322 95.5655 188.042 95.2205 188.042H85.2918C84.9468 188.042 84.6665 188.322 84.6665 188.667V205.106C84.6665 205.451 84.9468 205.731 85.2918 205.731Z" fill="url(#paint7_linear)"/>
<path d="M79.1456 205.731H82.7062C82.8813 205.731 83.0227 205.589 83.0227 205.414V188.358C83.0227 188.184 82.8813 188.042 82.7062 188.042H79.1456C78.9706 188.042 78.8291 188.184 78.8291 188.358V205.414C78.8291 205.589 78.9706 205.731 79.1456 205.731" fill="url(#paint8_linear)"/>
<path d="M98.2858 127.705C98.2858 127.705 74.9569 46.0619 32.3808 2.886C29.5188 -0.0164251 24.5819 1.3783 23.6863 5.35458C17.6981 31.9448 7.54649 112.234 98.2858 127.705" fill="#BDD0FB"/>
<path d="M38.2102 47.2039C36.1515 41.2343 34.2705 34.8886 32.6259 28.1471C32.597 28.0289 32.692 27.9495 32.7846 27.9495C32.8433 27.9495 32.9011 27.9814 32.9258 28.0548C33.9669 31.1374 35.7095 36.0556 38.1543 42.1675L38.2102 47.2039Z" fill="url(#paint9_linear)"/>
<path d="M116.904 188.619C116.904 188.619 71.1798 95.8689 10.767 53.4011C6.70589 50.5462 1.09399 53.2916 0.886289 58.2512C-0.501614 91.4165 4.80908 189.83 116.904 188.619Z" fill="#91B3FA"/>
<path d="M105.682 184.536C105.976 184.715 105.744 185.157 105.429 185.019C93.8345 179.924 47.2384 152.509 16.5586 83.6166C16.4601 83.3949 16.7806 83.2284 16.8978 83.4406C25.5402 99.0585 59.3349 156.207 105.682 184.536" fill="#BDD0FB"/>
<path d="M37.8694 16.4718C37.8384 13.6806 40.2819 11.5079 43.0498 11.8684C61.4075 14.2602 124.529 21.6263 176.664 17.3516C179.042 17.1566 181.115 18.9473 181.254 21.3287L192.67 216.902C192.826 219.584 190.789 221.888 188.109 222.061C166.18 223.474 75.8679 228.962 43.6286 225.754C41.6664 225.559 40.1692 223.916 40.1474 221.945L37.8694 16.4718Z" fill="#7D97F4"/>
<path d="M40.0555 21.3632C40.0257 18.6764 42.3772 16.5856 45.0409 16.9323C62.7071 19.2353 123.452 26.3228 173.624 22.2093C175.912 22.0213 177.907 23.7455 178.041 26.0372L189.026 214.246C189.177 216.827 187.217 219.045 184.637 219.211C163.535 220.57 76.6233 225.852 45.5978 222.765C43.7096 222.577 42.2687 220.996 42.2477 219.098L40.0555 21.3632" fill="#BDD0FB"/>
<path d="M90.648 50.045C90.673 54.8373 86.8088 58.742 82.0166 58.767C77.2252 58.792 73.3205 54.927 73.2955 50.1356C73.2705 45.3434 77.1347 41.4387 81.9269 41.4137C86.7183 41.3887 90.623 45.2537 90.648 50.045Z" fill="url(#paint10_linear)"/>
<path d="M68.9251 75.633L96.5675 75.4889C98.2624 75.4803 99.2681 73.6034 98.3478 72.1803C95.981 68.5188 91.0404 63.1469 82.5341 63.4342C74.3349 63.7119 69.5004 68.6128 67.0758 72.1216C66.0459 73.6112 67.1146 75.6425 68.9251 75.633" fill="url(#paint11_linear)"/>
<path d="M61.5384 134.852C61.158 134.88 60.8113 135.05 60.5879 135.319C60.4024 135.541 60.3179 135.813 60.3472 136.084L61.2313 144.116C61.3262 144.98 62.1482 145.634 63.1427 145.638L72.7228 145.68H72.7418C73.6699 145.676 74.4358 145.018 74.4522 144.205C74.5264 140.541 74.5531 137.107 74.071 135.359C73.8545 134.577 73.036 134.035 72.101 134.038C70.3535 134.068 67.2164 134.352 64.6961 134.579C63.4894 134.689 62.3509 134.792 61.5384 134.852V134.852ZM72.7461 146.416C72.7367 146.416 72.728 146.416 72.7194 146.416L63.1392 146.374C61.7713 146.368 60.6362 145.432 60.4999 144.197L59.6158 136.165C59.564 135.693 59.7081 135.225 60.022 134.848C60.3731 134.427 60.9053 134.16 61.484 134.118C62.2905 134.058 63.4265 133.956 64.6297 133.847C67.1621 133.618 70.3138 133.333 72.088 133.302C73.3749 133.289 74.4712 134.045 74.78 135.164C75.2889 137.007 75.263 140.499 75.1871 144.221C75.163 145.429 74.0701 146.409 72.7461 146.416" fill="white"/>
<path d="M61.6444 155.383C61.2649 155.41 60.9182 155.581 60.6939 155.85C60.5094 156.072 60.4248 156.344 60.4541 156.615L61.3382 164.648C61.4331 165.511 62.2551 166.165 63.2496 166.17L72.8298 166.212H72.8488C73.7768 166.207 74.5428 165.549 74.5592 164.737C74.6333 161.072 74.6601 157.638 74.1779 155.891C73.9614 155.109 73.1308 154.549 72.2079 154.569C70.4604 154.6 67.3234 154.883 64.8022 155.111C63.5964 155.22 62.4578 155.323 61.6444 155.383ZM72.8522 166.948C72.8436 166.948 72.835 166.948 72.8263 166.948L63.2462 166.905C61.8773 166.899 60.7431 165.964 60.6068 164.728L59.7227 156.696C59.671 156.224 59.815 155.757 60.129 155.38C60.4792 154.958 61.0122 154.692 61.591 154.649C62.3974 154.59 63.5334 154.487 64.7358 154.378C67.269 154.149 70.4207 153.865 72.195 153.833C72.2079 153.833 72.2208 153.833 72.2329 153.833C73.4931 153.826 74.5807 154.588 74.8869 155.695C75.3958 157.538 75.3699 161.031 75.294 164.752C75.2699 165.961 74.1771 166.941 72.8522 166.948" fill="white"/>
<path d="M61.7514 175.915C61.371 175.942 61.0251 176.113 60.8009 176.382C60.6163 176.604 60.5309 176.875 60.5611 177.146L61.4452 185.18C61.5401 186.042 62.3621 186.697 63.3566 186.701L72.9367 186.743H72.9557C73.8838 186.739 74.6488 186.08 74.6661 185.269C74.7403 181.604 74.767 178.169 74.2849 176.423C74.0684 175.639 73.2377 175.078 72.3148 175.1C70.5673 175.131 67.4303 175.414 64.9091 175.642C63.7033 175.752 62.5639 175.854 61.7514 175.915ZM72.9591 187.479C72.9505 187.479 72.9419 187.479 72.9333 187.479L63.3531 187.436C61.9843 187.431 60.85 186.495 60.7138 185.26L59.8297 177.227C59.7779 176.756 59.9219 176.288 60.2359 175.911C60.587 175.489 61.1191 175.223 61.6979 175.181C62.5044 175.121 63.6403 175.018 64.8427 174.91C67.3751 174.68 70.5277 174.396 72.3019 174.365C72.3148 174.365 72.3278 174.364 72.3398 174.364C73.6 174.358 74.6877 175.118 74.9939 176.227C75.5028 178.069 75.4769 181.562 75.401 185.283C75.3768 186.492 74.284 187.472 72.9591 187.479Z" fill="white"/>
<path d="M61.8583 196.445C61.4779 196.473 61.1321 196.644 60.9078 196.913C60.7232 197.135 60.6378 197.406 60.668 197.678L61.5521 205.712C61.647 206.574 62.4681 207.228 63.4635 207.232L73.0437 207.275H73.0626C73.9907 207.269 74.7558 206.611 74.7722 205.8C74.8472 202.135 74.874 198.701 74.3918 196.953C74.1753 196.171 73.3447 195.606 72.4209 195.631C70.6743 195.662 67.5372 195.946 65.0161 196.174C63.8102 196.282 62.6708 196.386 61.8583 196.445V196.445ZM73.0661 208.01C73.0575 208.01 73.0488 208.01 73.0402 208.01L63.46 207.968C62.0912 207.962 60.957 207.027 60.8207 205.792L59.9366 197.759C59.8848 197.287 60.0289 196.82 60.3428 196.443C60.693 196.021 61.2261 195.755 61.804 195.711C62.6113 195.653 63.7473 195.549 64.9496 195.441C67.482 195.212 70.6346 194.927 72.408 194.895C72.4209 194.895 72.4338 194.895 72.4468 194.895C73.7069 194.889 74.7946 195.65 75.1008 196.759C75.6088 198.601 75.5838 202.093 75.5079 205.814C75.4838 207.024 74.3909 208.003 73.0661 208.01" fill="white"/>
<path d="M63.3074 198.529C64.0164 198.107 64.9333 198.352 65.3387 199.069L67.2457 202.447C67.4363 202.784 67.9314 202.761 68.0884 202.406L72.7211 191.948C72.9514 191.426 73.7277 191.598 73.7225 192.168C73.6906 195.36 72.8755 201.431 67.8029 206.535C67.8029 206.535 64.9867 205.458 62.6984 200.5C62.3672 199.784 62.6294 198.93 63.3074 198.529" fill="url(#paint12_linear)"/>
<path d="M49.4422 28.6542C49.4111 25.863 51.8547 23.6895 54.6226 24.05C72.9799 26.4427 136.102 33.8078 188.237 29.5331C190.615 29.3382 192.688 31.1297 192.827 33.5111L204.242 229.085C204.399 231.766 202.363 234.071 199.682 234.243C177.753 235.655 87.4411 241.144 55.2013 237.937C53.2391 237.741 51.7417 236.098 51.7201 234.126L49.4422 28.6542" fill="#7D97F4"/>
<path d="M51.6287 33.5447C51.5985 30.8588 53.9498 28.7672 56.6142 29.1148C74.2797 31.4169 135.025 38.5052 185.197 34.3909C187.485 34.2037 189.481 35.9271 189.614 38.2188L200.599 226.428C200.75 229.009 198.79 231.226 196.211 231.393C175.107 232.752 88.1967 238.033 57.1705 234.947C55.2824 234.759 53.842 233.177 53.8204 231.28L51.6287 33.5447Z" fill="#BDD0FB"/>
<path d="M72.4433 139.027C72.0638 139.056 71.717 139.226 71.4928 139.495C71.3082 139.717 71.2237 139.988 71.253 140.26L72.1371 148.293C72.232 149.156 73.054 149.81 74.0485 149.814L83.6286 149.857H83.6476C84.5757 149.851 85.3416 149.193 85.358 148.382C85.4322 144.717 85.4589 141.283 84.9768 139.536C84.7603 138.753 83.9417 138.212 83.0067 138.213C81.2592 138.244 78.1222 138.528 75.6019 138.756C74.3952 138.865 73.2566 138.968 72.4433 139.027ZM83.651 150.592C83.6424 150.592 83.6338 150.592 83.6252 150.592L74.045 150.55C72.6762 150.544 71.5419 149.608 71.4056 148.374L70.5215 140.34C70.4698 139.868 70.6138 139.402 70.9278 139.025C71.278 138.603 71.811 138.337 72.3898 138.293C73.1963 138.235 74.3322 138.132 75.5355 138.023C78.0679 137.794 81.2196 137.509 82.9938 137.477C84.2807 137.465 85.377 138.221 85.6858 139.341C86.1947 141.183 86.1688 144.675 86.0929 148.396C86.0687 149.606 84.9759 150.585 83.651 150.592" fill="white"/>
<path d="M82.4455 149.092C82.4429 149.092 82.4404 149.092 82.4369 149.092L74.7819 149.059C73.84 149.055 73.0551 148.417 72.9628 147.581L72.2564 141.162C72.184 140.498 72.7334 139.906 73.4786 139.852C75.4909 139.704 79.8622 139.237 81.9366 139.2C81.9487 139.2 81.9616 139.2 81.9746 139.2C82.838 139.2 83.5918 139.723 83.7988 140.473C84.2068 141.951 84.1697 144.902 84.1145 147.626C84.0981 148.439 83.3564 149.092 82.4455 149.092" fill="#E5ECFD"/>
<path d="M94.3347 146.971C93.2609 146.971 92.3181 146.251 92.0378 145.211C91.6307 143.701 92.7684 142.215 94.333 142.215L182.971 142.158C182.972 142.158 182.972 142.158 182.973 142.158C183.947 142.158 184.745 142.933 184.771 143.907C184.798 144.909 184 145.741 182.997 145.754L94.3675 146.971C94.3563 146.971 94.3451 146.971 94.3347 146.971" fill="#E5ECFD"/>
<path d="M72.5507 162.895C72.1703 162.922 71.8244 163.093 71.6002 163.362C71.4156 163.584 71.3302 163.855 71.3604 164.127L72.2445 172.16C72.3394 173.023 73.1614 173.677 74.1559 173.681L83.736 173.724H83.755C84.6831 173.719 85.4482 173.06 85.4654 172.249C85.5396 168.584 85.5663 165.15 85.0842 163.403C84.8677 162.62 84.0371 162.061 83.1141 162.08C81.3667 162.111 78.2296 162.395 75.7084 162.623C74.5026 162.732 73.3641 162.835 72.5507 162.895ZM83.7585 174.459C83.7498 174.459 83.7412 174.459 83.7326 174.459L74.1524 174.417C72.7836 174.411 71.6493 173.475 71.5131 172.241L70.629 164.207C70.5772 163.736 70.7213 163.269 71.0352 162.892C71.3854 162.47 71.9185 162.204 72.4972 162.161C73.3037 162.102 74.4396 161.998 75.642 161.891C78.1753 161.661 81.327 161.377 83.1012 161.345C83.1141 161.345 83.1271 161.345 83.1392 161.345C84.3993 161.338 85.487 162.099 85.7932 163.208C86.3021 165.05 86.2762 168.542 86.2003 172.263C86.1761 173.473 85.0833 174.453 83.7585 174.459" fill="white"/>
<path d="M82.5525 172.96C82.5499 172.96 82.5464 172.96 82.5438 172.96L74.888 172.926C73.947 172.922 73.1621 172.284 73.0698 171.448L72.3634 165.029C72.2909 164.365 72.8403 163.774 73.5856 163.719C75.597 163.571 79.9692 163.104 82.0436 163.067C82.0556 163.067 82.0686 163.067 82.0807 163.067C82.9441 163.067 83.6988 163.59 83.9058 164.34C84.3138 165.819 84.2767 168.769 84.2215 171.493C84.2042 172.307 83.4633 172.96 82.5525 172.96" fill="#E5ECFD"/>
<path d="M94.4417 170.839C93.3678 170.839 92.4251 170.118 92.1448 169.078C91.7376 167.568 92.8753 166.083 94.44 166.082L183.078 166.025C183.079 166.025 183.079 166.025 183.08 166.025C184.054 166.025 184.852 166.8 184.877 167.774C184.905 168.776 184.107 169.608 183.104 169.622L94.4745 170.839C94.4632 170.839 94.452 170.839 94.4417 170.839" fill="#E5ECFD"/>
<path d="M72.6576 187.762C72.2773 187.791 71.9314 187.961 71.7071 188.23C71.5225 188.452 71.4372 188.724 71.4673 188.995L72.3514 197.029C72.4463 197.891 73.2683 198.546 74.2628 198.549L83.843 198.591H83.8619C84.79 198.586 85.5551 197.929 85.5724 197.117C85.6465 193.452 85.6733 190.018 85.1911 188.27C84.9746 187.488 84.144 186.926 83.2211 186.948C81.4736 186.979 78.3366 187.263 75.8154 187.491C74.6095 187.6 73.4701 187.703 72.6576 187.762ZM83.8654 199.327C83.8568 199.327 83.8481 199.327 83.8395 199.327L74.2594 199.285C72.8905 199.28 71.7563 198.344 71.62 197.109L70.7359 189.076C70.6842 188.604 70.8282 188.137 71.1422 187.76C71.4924 187.338 72.0254 187.071 72.6033 187.029C73.4106 186.97 74.5466 186.867 75.749 186.758C78.2814 186.529 81.4339 186.244 83.2073 186.213C83.2211 186.213 83.2332 186.212 83.2461 186.212C84.5063 186.205 85.5939 186.967 85.9001 188.075C86.409 189.918 86.3831 193.41 86.3072 197.132C86.2831 198.34 85.1902 199.32 83.8654 199.327" fill="white"/>
<path d="M82.6595 197.828C82.657 197.828 82.6535 197.828 82.6509 197.827L74.9951 197.794C74.054 197.79 73.2691 197.152 73.1768 196.316L72.4704 189.897C72.3971 189.233 72.9466 188.641 73.6926 188.587C75.7041 188.439 80.0763 187.972 82.1506 187.936C82.1627 187.935 82.1757 187.935 82.1877 187.935C83.0511 187.935 83.8058 188.458 84.0129 189.208C84.4208 190.686 84.3837 193.637 84.3277 196.361C84.3113 197.174 83.5704 197.828 82.6595 197.828" fill="#E5ECFD"/>
<path d="M94.5478 195.706C93.4739 195.706 92.5311 194.986 92.2517 193.947C91.8446 192.436 92.9823 190.95 94.5469 190.949L183.185 190.892C184.16 190.892 184.958 191.668 184.984 192.643C185.011 193.645 184.214 194.475 183.211 194.489L94.5814 195.706C94.5702 195.706 94.559 195.706 94.5478 195.706" fill="#E5ECFD"/>
<path d="M73.4319 212.631C73.0516 212.658 72.7048 212.829 72.4814 213.098C72.296 213.32 72.2114 213.592 72.2408 213.863L73.1249 221.896C73.2197 222.759 74.0417 223.413 75.0362 223.418L84.6164 223.459H84.6354C85.5635 223.455 86.3294 222.797 86.3458 221.984C86.42 218.32 86.4467 214.886 85.9645 213.139C85.7481 212.356 84.9183 211.792 83.9945 211.817C82.247 211.847 79.11 212.131 76.5897 212.358C75.383 212.468 74.2444 212.571 73.4319 212.631ZM84.6397 224.195C84.6302 224.195 84.6216 224.195 84.613 224.195L75.0328 224.153C73.6648 224.147 72.5297 223.212 72.3934 221.976L71.5093 213.944C71.4576 213.472 71.6016 213.004 71.9156 212.627C72.2667 212.206 72.7988 211.939 73.3776 211.897C74.1841 211.837 75.32 211.735 76.5232 211.626C79.0556 211.397 82.2073 211.112 83.9816 211.081C83.9945 211.081 84.0075 211.08 84.0204 211.08C85.2797 211.073 86.3674 211.835 86.6736 212.943C87.1824 214.786 87.1566 218.279 87.0807 222C87.0565 223.208 85.9637 224.188 84.6397 224.195" fill="white"/>
<path d="M83.4328 222.696C83.4302 222.696 83.4277 222.696 83.4242 222.696L75.7692 222.662C74.8273 222.658 74.0424 222.02 73.9501 221.185L73.2437 214.765C73.1713 214.101 73.7207 213.51 74.4659 213.455C76.4782 213.307 80.8495 212.84 82.9239 212.803C82.936 212.803 82.9489 212.803 82.9619 212.803C83.8253 212.803 84.5791 213.325 84.787 214.076C85.195 215.554 85.157 218.505 85.1018 221.229C85.0854 222.042 84.3437 222.696 83.4328 222.696" fill="#E5ECFD"/>
<path d="M95.3214 220.574C94.2484 220.574 93.3057 219.854 93.0253 218.814C92.6191 217.303 93.7559 215.818 95.3206 215.817L183.959 215.76C183.96 215.76 183.96 215.76 183.961 215.76C184.934 215.76 185.732 216.536 185.758 217.51C185.786 218.513 184.988 219.343 183.985 219.357L95.3551 220.574C95.3438 220.574 95.3326 220.574 95.3214 220.574Z" fill="#E5ECFD"/>
<path d="M74.8811 214.713C75.5901 214.292 76.5061 214.536 76.9115 215.254L78.8186 218.632C79.01 218.97 79.5043 218.946 79.6621 218.591L84.2939 208.133C84.5251 207.611 85.3014 207.783 85.2953 208.354C85.2643 211.545 84.4492 217.615 79.3758 222.72C79.3758 222.72 76.5604 221.643 74.2713 216.685C73.9409 215.969 74.2023 215.116 74.8811 214.713" fill="url(#paint13_linear)"/>
<path d="M73.7053 189.028C74.4143 188.607 75.3312 188.851 75.7366 189.569L77.6437 192.946C77.8343 193.284 78.3294 193.26 78.4864 192.906L83.119 182.447C83.3502 181.926 84.1256 182.097 84.1204 182.668C84.0894 185.86 83.2734 191.93 78.2009 197.035C78.2009 197.035 75.3847 195.957 73.0964 190.999C72.7652 190.284 73.0274 189.43 73.7053 189.028" fill="url(#paint14_linear)"/>
<path d="M73.7053 164.203C74.4143 163.782 75.3312 164.026 75.7366 164.745L77.6437 168.122C77.8343 168.46 78.3294 168.436 78.4864 168.081L83.119 157.623C83.3502 157.101 84.1256 157.273 84.1204 157.844C84.0894 161.035 83.2734 167.106 78.2009 172.21C78.2009 172.21 75.3847 171.133 73.0964 166.175C72.7652 165.459 73.0274 164.606 73.7053 164.203" fill="url(#paint15_linear)"/>
<path d="M83.6273 133.971C83.8576 133.449 84.6339 133.621 84.6287 134.192C84.5968 137.383 83.7817 143.454 78.7092 148.558C78.7092 148.558 75.893 147.481 73.6047 142.523C73.2735 141.807 73.5357 140.954 74.2136 140.552C74.9226 140.131 75.8395 140.375 76.2449 141.092L78.152 144.47C78.3426 144.808 78.8377 144.784 78.9947 144.43L83.6273 133.971" fill="url(#paint16_linear)"/>
<path d="M70.5331 65.2713C70.1527 65.2989 69.8069 65.4697 69.5826 65.7388C69.398 65.9605 69.3126 66.2322 69.3428 66.503L70.2269 74.5367C70.3218 75.3992 71.1438 76.0539 72.1383 76.0582L81.7185 76.1005H81.7374C82.6655 76.0953 83.4306 75.4372 83.4478 74.6255C83.522 70.9606 83.5488 67.5269 83.0666 65.7794C82.8501 64.9971 82.0195 64.4373 81.0966 64.4571C79.3491 64.4882 76.212 64.7719 73.6909 64.9996C72.485 65.1083 71.3465 65.211 70.5331 65.2713V65.2713ZM81.7409 76.8353C81.7323 76.8353 81.7236 76.8362 81.715 76.8362L72.1348 76.7939C70.766 76.7879 69.6318 75.852 69.4955 74.6169L68.6114 66.5841C68.5596 66.1123 68.7037 65.6457 69.0177 65.2687C69.3678 64.847 69.9009 64.5805 70.4796 64.5373C71.2861 64.4778 72.4221 64.3752 73.6253 64.2665C76.1577 64.0379 79.3094 63.7533 81.0836 63.7214C81.0966 63.7214 81.1095 63.7214 81.1216 63.7205C82.3817 63.7145 83.4694 64.4761 83.7756 65.5836C84.2845 67.4259 84.2586 70.9192 84.1827 74.6402C84.1586 75.8494 83.0657 76.8284 81.7409 76.8353" fill="white"/>
<path d="M80.5349 75.3363C80.5323 75.3363 80.5297 75.3363 80.5263 75.3363L72.8704 75.3026C71.9294 75.2983 71.1445 74.6609 71.0522 73.8251L70.3458 67.4053C70.2733 66.742 70.8227 66.1503 71.568 66.0951C73.5794 65.9476 77.9516 65.481 80.026 65.4439C80.0381 65.4439 80.051 65.4439 80.0631 65.4439C80.9265 65.4439 81.6812 65.9666 81.8882 66.717C82.2962 68.1945 82.2591 71.1461 82.2039 73.87C82.1866 74.6833 81.4457 75.3363 80.5349 75.3363" fill="#E5ECFD"/>
<path d="M92.4241 73.2153C91.3502 73.2153 90.4075 72.4942 90.1272 71.4549C89.7201 69.9446 90.8577 68.4584 92.4224 68.4576L112.069 68.4455C112.04 69.1562 112.025 69.8721 112.025 70.5906C112.025 71.379 112.043 72.1647 112.079 72.9453L92.4569 73.2144C92.4457 73.2153 92.4344 73.2153 92.4241 73.2153" fill="#E5ECFD"/>
<path d="M79.4645 52.7845C78.3769 52.7845 77.4359 51.6623 77.1788 50.0588C76.8105 47.7662 77.9646 45.5426 79.5137 45.5426C79.5241 45.5426 79.5344 45.5426 79.5448 45.5435L118.159 46.2853C117.038 48.3648 116.057 50.5281 115.227 52.7586L79.4654 52.7845H79.4645" fill="#E5ECFD"/>
<path d="M70.6401 90.1391C70.2597 90.1667 69.9138 90.3374 69.6895 90.6065C69.505 90.8282 69.4196 91.0999 69.4498 91.3716L70.3339 99.4044C70.4287 100.268 71.2507 100.922 72.2452 100.926L81.8254 100.968H81.8444C82.7725 100.963 83.5375 100.305 83.5548 99.4932C83.6289 95.8283 83.6557 92.3946 83.1735 90.6471C82.957 89.8648 82.1264 89.3024 81.2035 89.3248C79.456 89.3559 76.319 89.6397 73.7978 89.8674C72.592 89.976 71.4526 90.0795 70.6401 90.1391V90.1391ZM81.8478 101.704C81.8392 101.704 81.8306 101.704 81.8219 101.704L72.2418 101.662C70.8729 101.656 69.7387 100.721 69.6024 99.4855L68.7183 91.4518C68.6666 90.9809 68.8106 90.5134 69.1246 90.1365C69.4748 89.7147 70.0078 89.4482 70.5857 89.405C71.393 89.3464 72.529 89.2429 73.7314 89.1342C76.2638 88.9056 79.4163 88.621 81.1897 88.5891C81.2035 88.5891 81.2156 88.5891 81.2285 88.5891C82.4887 88.5822 83.5763 89.3438 83.8825 90.4513C84.3914 92.2945 84.3656 95.7869 84.2896 99.5079C84.2655 100.717 83.1727 101.697 81.8478 101.704" fill="white"/>
<path d="M80.642 100.204C80.6394 100.204 80.6359 100.204 80.6333 100.204L72.9775 100.17C72.0365 100.166 71.2516 99.5286 71.1593 98.6928L70.4529 92.273C70.3795 91.6097 70.929 91.018 71.6751 90.9636C73.6865 90.8153 78.0587 90.3486 80.1331 90.3115C80.1451 90.3115 80.1581 90.3115 80.1702 90.3115C81.0336 90.3115 81.7883 90.8342 81.9953 91.5846C82.4033 93.063 82.3662 96.0138 82.3101 98.7376C82.2937 99.551 81.5528 100.204 80.642 100.204" fill="#E5ECFD"/>
<path d="M92.5302 98.083C91.4572 98.083 90.5144 97.3619 90.2341 96.3225C89.827 94.8123 90.9647 93.327 92.5293 93.3252L117.339 93.3097C118.085 94.8166 118.904 96.2846 119.79 97.7086L92.5638 98.083C92.5526 98.083 92.5414 98.083 92.5302 98.083" fill="#E5ECFD"/>
<path d="M71.4148 115.007C71.0344 115.034 70.6877 115.205 70.4643 115.474C70.2788 115.696 70.1943 115.968 70.2236 116.239L71.1077 124.273C71.2026 125.136 72.0246 125.789 73.0191 125.794L82.5992 125.836H82.6182C83.5472 125.831 84.3122 125.173 84.3286 124.361C84.4028 120.696 84.4295 117.262 83.9474 115.515C83.7309 114.732 82.9011 114.168 81.9774 114.193C80.2299 114.224 77.0928 114.507 74.5725 114.735C73.3658 114.844 72.2273 114.947 71.4148 115.007V115.007ZM82.6225 126.572C82.6139 126.572 82.6044 126.572 82.5958 126.572L73.0156 126.529C71.6477 126.523 70.5126 125.588 70.3763 124.353L69.493 116.32C69.4404 115.849 69.5845 115.381 69.8984 115.004C70.2495 114.582 70.7817 114.316 71.3604 114.273C72.1669 114.214 73.3029 114.111 74.5061 114.003C77.0385 113.773 80.1902 113.489 81.9644 113.457C81.9774 113.457 81.9903 113.457 82.0032 113.457C83.2625 113.45 84.3502 114.212 84.6564 115.32C85.1653 117.162 85.1394 120.655 85.0635 124.376C85.0394 125.585 83.9465 126.565 82.6225 126.572" fill="white"/>
<path d="M81.4166 125.072C81.4132 125.072 81.4106 125.072 81.4071 125.072L73.7521 125.038C72.8102 125.034 72.0253 124.396 71.9339 123.561L71.2266 117.142C71.1542 116.477 71.7036 115.886 72.4488 115.831C74.4611 115.683 78.8325 115.216 80.9068 115.179C80.9189 115.179 80.9319 115.179 80.9448 115.179C81.8082 115.179 82.5621 115.702 82.7691 116.452C83.1779 117.931 83.1399 120.881 83.0847 123.605C83.0684 124.419 82.3266 125.072 81.4166 125.072" fill="#E5ECFD"/>
<path d="M93.305 122.951C92.2311 122.951 91.2884 122.23 91.008 121.191V121.19C90.6009 119.68 91.7386 118.195 93.3032 118.194L142.973 118.162C146.653 119.88 150.563 121.214 154.647 122.109L93.3377 122.951C93.3265 122.951 93.3153 122.951 93.305 122.951V122.951ZM180.399 121.755C181.43 121.498 182.452 121.212 183.462 120.899C183.147 121.393 182.598 121.725 181.968 121.734L180.399 121.755" fill="#E5ECFD"/>
<path d="M218.492 156.466C218.63 156.844 224.142 145.936 224.142 145.936L211.8 138.077L217.725 123.655L203.144 115.266L221.61 123.404L216.194 136.254C216.194 136.254 232.003 145.791 231.792 145.933C231.583 146.075 218.492 156.466 218.492 156.466" fill="url(#paint17_linear)"/>
<path d="M238.714 -2.14056e-05C238.208 0.341542 228.008 18.2417 228.008 18.2417L217.592 8.74607C217.592 8.74607 200.54 28.1531 200.793 27.1422C201.046 26.1322 215.753 2.18219 215.753 2.18219L227.859 15.1564L238.714 -2.14056e-05" fill="url(#paint18_linear)"/>
<path d="M97.4483 0.170751C97.7226 0.72881 114.344 13.4883 114.344 13.4883L103.332 22.6665C103.332 22.6665 120.519 42.5401 119.537 42.1442C118.554 41.7492 96.4624 23.6084 96.4624 23.6084L111.214 13.2105L97.4483 0.170751" fill="url(#paint19_linear)"/>
<path d="M65.7358 99.1232C66.8537 99.7546 86.1218 97.9398 86.1218 97.9398L83.8534 84.4886C83.8534 84.4886 106.91 81.4801 106.748 81.8027C106.585 82.1244 78.6324 80.2018 78.6324 80.2018L82.2697 94.6354L65.7358 99.1232" fill="url(#paint20_linear)"/>
<path d="M188.05 240.363C190.08 240.538 193.604 240.824 196.382 240.945C198.052 241.019 199.014 240.856 199.567 240.634C199.567 240.697 199.565 240.756 199.562 240.81C199.548 241.102 199.311 241.336 199.016 241.353C193.767 241.646 189.592 241.454 188.106 241.364C187.798 241.346 187.615 241.011 187.772 240.75C187.851 240.618 187.946 240.49 188.05 240.363" fill="url(#paint21_linear)"/>
<path d="M196.382 240.945C193.604 240.824 190.08 240.538 188.05 240.363C190.046 237.914 196.382 236.263 196.382 236.263H198.172C199.402 238.037 199.58 239.727 199.567 240.634C199.013 240.856 198.052 241.019 196.382 240.945" fill="url(#paint22_linear)"/>
<path d="M198.473 233.341L198.305 236.655C198.287 237.014 198.018 237.316 197.659 237.368C197.301 237.418 196.823 237.424 196.315 237.256C196.002 237.152 195.77 236.889 195.713 236.568L195.134 233.341H198.473Z" fill="url(#paint23_linear)"/>
<path d="M221.716 240.921C222.596 240.798 222.994 240.341 223.162 239.852L223.165 239.865C223.295 240.38 222.994 240.915 222.394 241.17C221.668 241.477 220.875 241.529 220.258 241.503C219.598 241.477 218.991 241.203 218.658 240.765L218.653 240.759C219.317 241.087 220.247 241.126 221.716 240.921Z" fill="url(#paint24_linear)"/>
<path d="M217.565 233.321H219.04C221.288 233.275 222.699 238.015 223.162 239.852C222.994 240.341 222.596 240.798 221.716 240.921C220.247 241.126 219.317 241.087 218.653 240.759C217.439 239.161 216.837 236.82 216.547 235.454C216.218 233.901 217.565 233.321 217.565 233.321" fill="url(#paint25_linear)"/>
<path d="M218.851 230.245L219.67 233.504C219.77 233.904 219.579 234.317 219.21 234.506C218.752 234.742 218.106 234.989 217.513 234.917C217.234 234.883 217.002 234.688 216.91 234.425L215.707 230.995L218.851 230.245" fill="url(#paint26_linear)"/>
<path d="M219.828 231.187C218.808 232.091 215.492 232.21 215.492 232.21C203.547 203.54 198.66 199.467 198.66 199.467C200.385 210.288 198.938 234.246 198.938 234.246C196.967 235.116 194.426 234.246 194.426 234.246C194.265 216.53 191.542 201.079 188.326 188.898C196.399 188.717 200.693 185.954 202.094 184.845C208.825 195.695 219.828 231.187 219.828 231.187" fill="url(#paint27_linear)"/>
<path d="M200.044 151.874C201.572 159.497 201.025 173.14 200.665 179.363C200.564 181.112 201.785 183.537 202.771 185.191C202.927 185.451 202.831 185.783 202.562 185.921C200.91 186.77 195.312 189.402 188.825 189.729C188.392 189.751 188.006 189.456 187.893 189.038C183.081 171.07 177.492 159.588 177.492 159.588C183.663 149.732 200.044 151.874 200.044 151.874" fill="url(#paint28_linear)"/>
<path d="M197.845 198.788C197.913 198.788 197.982 198.77 198.044 198.732C198.224 198.622 198.281 198.387 198.172 198.207C198.107 198.101 196.562 195.604 193.436 194.095C193.245 194.004 193.016 194.082 192.924 194.273C192.833 194.463 192.912 194.692 193.103 194.783C196.018 196.19 197.503 198.58 197.518 198.604C197.59 198.723 197.716 198.788 197.845 198.788" fill="url(#paint29_linear)"/>
<path d="M209.63 173.75C209.139 177.302 207.689 181.175 204.787 185.289L203.685 184.391C203.685 184.391 204.958 179.225 204.234 173.362C206.023 173.014 208.137 173.374 209.63 173.75" fill="url(#paint30_linear)"/>
<path d="M198.337 161.279L200.044 151.874C200.044 151.874 211.449 160.592 209.63 173.75C208.138 173.374 206.023 173.014 204.234 173.362C203.713 169.139 202.155 164.555 198.337 161.279" fill="url(#paint31_linear)"/>
<path d="M177.493 159.588L181.894 169.068C181.182 174.792 178.108 177.266 174.793 178.216C174.586 175.608 173.926 173.499 173.314 172.042C177.55 167.668 177.493 159.588 177.493 159.588" fill="url(#paint32_linear)"/>
<path d="M173.314 172.042C173.926 173.499 174.586 175.608 174.793 178.216C165.947 181.648 163.607 174.992 163.607 174.992L165.242 174.704C168.934 175.093 171.512 173.902 173.314 172.042" fill="url(#paint33_linear)"/>
<path d="M181.548 147.883L183.673 155.695C183.912 156.573 184.861 157.044 185.705 156.707C186.617 156.342 187.774 155.845 188.769 155.308C189.832 154.734 190.164 153.367 189.491 152.364L185.073 145.776L181.548 147.883Z" fill="url(#paint34_linear)"/>
<path d="M176.898 141.947C176.879 142.082 178.671 150.862 178.671 150.862L183.663 149.732L183.201 141.158C183.201 141.158 177.222 139.701 176.898 141.947Z" fill="url(#paint35_linear)"/>
<path d="M182.079 143.068L182.676 147.564C182.683 147.621 182.683 147.678 182.675 147.736C182.625 148.088 182.362 149.287 181.151 148.945C180.053 148.634 179.045 148.365 178.349 148.578C178.037 148.674 177.848 148.991 177.914 149.311C178.077 150.108 178.478 151.899 179.062 153.402C179.181 153.707 179.515 153.867 179.83 153.776C180.776 153.5 182.757 152.862 184.231 151.975C184.43 151.855 184.549 151.638 184.539 151.405C184.491 150.271 184.358 146.821 184.47 145.854C184.575 144.946 185.688 144.403 186.173 144.208C186.332 144.144 186.456 144.019 186.519 143.86C186.743 143.299 187.052 141.999 185.415 141.467C185.072 141.355 184.891 140.985 185.013 140.646C185.255 139.971 185.358 138.94 184.091 138.373C182.803 137.796 181.841 138.482 181.322 139.04C181.113 139.266 180.775 139.3 180.515 139.135C180.367 139.041 180.175 139.011 179.945 139.154C179.633 139.348 179.222 139.216 179.061 138.887C178.753 138.254 178.124 137.576 176.864 137.791C174.626 138.174 174.373 140.653 174.964 142.107C175.554 143.559 177.955 143.005 179.16 142.273C180.076 141.717 181.264 142.3 181.781 142.612C181.945 142.71 182.054 142.879 182.079 143.068" fill="url(#paint36_linear)"/>
<path d="M184.671 147.493C184.671 147.493 183.751 144.918 184.696 144.287C185.641 143.656 187.041 143.984 186.732 145.849C186.349 148.169 184.671 147.493 184.671 147.493Z" fill="url(#paint37_linear)"/>
<path d="M164.263 176.21C163.817 176.558 162.292 175.832 161.359 175.33C160.904 175.085 160.683 174.553 160.839 174.06C161.064 173.352 161.438 172.438 161.899 172.322C162.665 172.132 166.097 174.777 164.263 176.21Z" fill="url(#paint38_linear)"/>
<path d="M239.367 197.722L122.889 156.296L116.727 173.414L233.165 215.997C235.638 216.902 238.398 215.899 239.723 213.624C241.085 211.286 242.385 207.634 242.464 202.164C242.492 200.175 241.242 198.389 239.367 197.722Z" fill="url(#paint39_linear)"/>
<path d="M86.8541 151.872L102.944 153.848C102.927 156.062 102.202 158.927 99.7473 162.214L86.3107 153.35C85.5965 152.879 86.0062 151.768 86.8541 151.872Z" fill="url(#paint40_linear)"/>
<path d="M122.889 156.296C123.626 167.024 116.727 173.414 116.727 173.414L99.7471 162.214C102.202 158.927 102.926 156.062 102.944 153.848L122.889 156.296Z" fill="url(#paint41_linear)"/>
<path d="M237.922 202.971C238.064 202.971 238.196 202.884 238.245 202.744C238.309 202.565 238.215 202.369 238.037 202.306L126.598 162.923C126.419 162.86 126.223 162.954 126.161 163.132C126.098 163.31 126.191 163.505 126.37 163.568L237.808 202.952C237.846 202.965 237.885 202.971 237.922 202.971" fill="url(#paint42_linear)"/>
<path d="M236 209.687C236.141 209.687 236.273 209.6 236.322 209.459C236.386 209.281 236.292 209.085 236.114 209.022L124.675 169.639C124.496 169.576 124.301 169.669 124.238 169.848C124.175 170.026 124.269 170.221 124.447 170.284L235.886 209.668C235.924 209.681 235.962 209.687 236 209.687Z" fill="url(#paint43_linear)"/>
<path d="M204.139 184.234L198.991 183.815L196.761 185.869C196.761 185.869 197.289 186.599 198.938 186.18C200.587 185.76 202.846 185.658 202.846 185.658C202.846 185.658 205.123 186.684 205.15 184.763L204.139 184.234Z" fill="url(#paint44_linear)"/>
<path d="M166.857 123.423C162.659 123.423 158.574 122.97 154.647 122.109C150.563 121.214 146.653 119.88 142.973 118.162C133.333 113.659 125.267 106.517 119.79 97.7086C118.904 96.2846 118.086 94.8166 117.339 93.3097C114.263 87.0952 112.409 80.2113 112.079 72.9453C112.044 72.1647 112.025 71.3789 112.025 70.5906C112.025 69.8721 112.04 69.1562 112.069 68.4455C112.297 62.958 113.392 57.6905 115.227 52.7586C116.057 50.5281 117.038 48.3648 118.159 46.2852C120.35 42.2184 123.071 38.4621 126.237 35.0999C127.795 33.4464 129.461 31.887 131.222 30.4345C134.514 27.7201 138.144 25.374 142.042 23.4643C147.08 20.9966 152.565 19.2569 158.351 18.3883C161.123 17.9726 163.964 17.7569 166.857 17.7569C167.892 17.7569 168.922 17.7828 169.945 17.8354C173.595 18.0218 177.171 18.5358 180.63 19.3475C185.548 20.5024 190.231 22.2602 194.573 24.5391C205.667 30.3603 214.516 39.5765 219.252 50.7954C221.695 56.5805 223.044 62.8976 223.044 69.5564C223.044 87.9534 212.744 104.567 197.545 114.331C196.445 115.037 195.323 115.706 194.174 116.339C190.79 118.203 187.203 119.739 183.462 120.899C182.452 121.212 181.43 121.498 180.399 121.755C176.04 122.843 171.5 123.423 166.857 123.423V123.423ZM166.948 24.8573C140.735 24.8573 119.485 45.3322 119.485 70.5906C119.485 95.8482 140.735 116.323 166.948 116.323C193.16 116.323 215.584 94.9529 215.584 69.6953C215.584 44.4377 193.16 24.8573 166.948 24.8573Z" fill="url(#paint45_linear)"/>
<path d="M218.739 57.744C218.772 57.744 218.804 57.7406 218.836 57.732C219.039 57.6793 219.159 57.4801 219.105 57.2852C218.515 55.1504 217.762 53.032 216.865 50.9913C216.783 50.8058 216.56 50.7213 216.369 50.7972C216.176 50.8765 216.086 51.0896 216.168 51.2759C217.051 53.2856 217.793 55.3703 218.373 57.4732C218.418 57.6362 218.571 57.744 218.739 57.744" fill="#BDD0FB"/>
<path d="M210.36 41.2334C210.44 41.2334 210.519 41.2092 210.588 41.1601C210.754 41.0385 210.788 40.809 210.662 40.6486C200.503 27.6683 184.139 19.9193 166.889 19.9193C159.522 19.9193 152.396 21.358 145.71 24.1958C145.519 24.2768 145.432 24.4933 145.517 24.6771C145.6 24.8616 145.824 24.9444 146.015 24.8642C152.604 22.067 159.628 20.649 166.889 20.649C183.903 20.649 200.041 28.2894 210.057 41.0876C210.132 41.1834 210.245 41.2334 210.36 41.2334" fill="#BDD0FB"/>
<path d="M119.485 70.5906C119.485 95.8482 140.735 116.323 166.948 116.323C193.16 116.323 215.584 94.9529 215.584 69.6953C215.584 44.4377 193.16 24.8573 166.948 24.8573C140.735 24.8573 119.485 45.3322 119.485 70.5906" fill="#91B3FA"/>
<path d="M207.099 71.5351C205.178 71.5342 203.568 70.0895 203.455 68.2186C203.337 66.2771 204.875 64.6115 206.89 64.4985C206.962 64.4942 207.034 64.4925 207.106 64.4925C209.027 64.4925 210.638 65.9372 210.751 67.8089C210.868 69.7505 209.329 71.4152 207.315 71.529C207.243 71.5325 207.171 71.5351 207.099 71.5351Z" fill="#E7EEFE"/>
<path d="M128.154 75.9624C126.234 75.9624 124.623 74.5177 124.51 72.646C124.393 70.7044 125.931 69.0389 127.946 68.9259C128.018 68.9224 128.09 68.9198 128.161 68.9198C130.082 68.9198 131.693 70.3646 131.806 72.2363C131.923 74.1779 130.385 75.8434 128.37 75.9564C128.298 75.9598 128.226 75.9624 128.154 75.9624Z" fill="#E7EEFE"/>
<path d="M174.73 111.227C172.999 111.227 171.462 110.038 171.14 108.339C170.777 106.425 172.093 104.592 174.077 104.242C174.3 104.203 174.521 104.185 174.738 104.185C176.469 104.185 178.007 105.374 178.329 107.073C178.692 108.986 177.377 110.82 175.391 111.169C175.169 111.208 174.948 111.227 174.73 111.227Z" fill="#E7EEFE"/>
<path d="M160.522 36.2704C158.791 36.2704 157.253 35.0809 156.931 33.3818C156.569 31.4687 157.884 29.6349 159.869 29.2856C160.091 29.2459 160.312 29.2278 160.53 29.2278C162.261 29.2278 163.799 30.4172 164.12 32.1164C164.483 34.0295 163.167 35.8633 161.183 36.2126C160.96 36.2514 160.739 36.2704 160.522 36.2704Z" fill="#E7EEFE"/>
<path d="M148.451 108.163C148.401 108.163 148.353 108.156 148.307 108.143C147.821 108.003 147.728 107.158 148.1 106.255C148.435 105.438 149.037 104.854 149.508 104.854C149.558 104.854 149.605 104.86 149.652 104.874C150.137 105.013 150.23 105.859 149.859 106.762C149.523 107.579 148.922 108.163 148.451 108.163Z" fill="#E7EEFE"/>
<path d="M180.21 37.0656C180.161 37.0656 180.113 37.0596 180.066 37.0458C179.581 36.9061 179.487 36.0608 179.859 35.1577C180.195 34.3409 180.796 33.757 181.268 33.757C181.317 33.757 181.365 33.7639 181.411 33.7768C181.896 33.9165 181.99 34.7627 181.619 35.6649C181.282 36.4817 180.681 37.0656 180.21 37.0656" fill="#E7EEFE"/>
<path d="M131.217 94.6432C130.985 94.6432 130.795 94.5828 130.676 94.4569C130.337 94.0938 130.713 93.3252 131.517 92.7396C132.04 92.3583 132.615 92.1487 133.047 92.1487C133.278 92.1487 133.468 92.2091 133.587 92.335C133.927 92.6982 133.551 93.4667 132.747 94.0524C132.224 94.4336 131.648 94.644 131.217 94.6432Z" fill="#E7EEFE"/>
<path d="M196.671 49.7708C196.44 49.7708 196.249 49.7104 196.13 49.5844C195.791 49.2213 196.167 48.4528 196.97 47.8671C197.494 47.4859 198.069 47.2763 198.501 47.2763C198.732 47.2763 198.923 47.3367 199.041 47.4626C199.381 47.8257 199.005 48.5943 198.201 49.1799C197.678 49.5612 197.103 49.7708 196.671 49.7708" fill="#E7EEFE"/>
<path d="M129.985 54.4336C129.64 54.4336 129.219 54.337 128.791 54.1412C127.881 53.7238 127.288 53.0139 127.466 52.5568C127.56 52.3135 127.851 52.1902 128.24 52.1902C128.585 52.1902 129.007 52.2876 129.434 52.4834C130.344 52.9009 130.938 53.6108 130.76 54.0679C130.666 54.3111 130.374 54.4336 129.985 54.4336" fill="#E7EEFE"/>
<path d="M201.478 89.7293C201.132 89.7293 200.711 89.6319 200.284 89.4361C199.374 89.0186 198.78 88.3088 198.957 87.8516C199.051 87.6084 199.344 87.4859 199.733 87.4859C200.078 87.4859 200.499 87.5825 200.926 87.7783C201.836 88.1958 202.43 88.9056 202.252 89.3628C202.158 89.606 201.867 89.7293 201.478 89.7293" fill="#E7EEFE"/>
<path d="M144.505 39.5627C144.089 39.5627 143.527 39.1728 143.097 38.5414C142.544 37.7289 142.419 36.8259 142.818 36.5231C142.906 36.4558 143.012 36.4239 143.131 36.4239C143.548 36.4239 144.11 36.8146 144.539 37.446C145.092 38.2585 145.217 39.1616 144.819 39.4635C144.731 39.5308 144.624 39.5627 144.505 39.5627Z" fill="#E7EEFE"/>
<path d="M186.586 105.496C186.17 105.496 185.608 105.105 185.179 104.474C184.626 103.661 184.501 102.758 184.899 102.456C184.987 102.389 185.094 102.357 185.213 102.357C185.629 102.357 186.191 102.747 186.621 103.378C187.174 104.191 187.299 105.094 186.9 105.396C186.812 105.464 186.705 105.496 186.586 105.496Z" fill="#E7EEFE"/>
<path d="M167.091 69.735L199.141 75.5191C199.762 75.6312 200.294 75.0585 200.113 74.4737L199.033 70.9943C198.823 70.318 199.553 69.7091 200.21 70.0135L225.461 81.7207C226.233 82.0787 225.991 83.2069 225.129 83.2638L197.283 85.1191C196.616 85.164 196.18 84.4731 196.518 83.9107L198.795 80.1276C199.076 79.6601 198.824 79.0702 198.289 78.9408L166.706 71.3212C166.266 71.2151 166 70.7864 166.108 70.356C166.215 69.9299 166.65 69.6547 167.091 69.735" fill="url(#paint46_linear)"/>
<path d="M222.257 82.5177C222.52 82.4453 222.719 82.2383 222.773 81.9666C222.838 81.6422 222.674 81.336 222.365 81.2041L216.903 78.8744C216.714 78.7933 216.489 78.8787 216.403 79.0633C216.316 79.2487 216.398 79.4635 216.588 79.5454L222.05 81.8751C215.722 82.2098 200.941 83.1344 200.643 83.1862C200.442 83.2181 200.298 83.4113 200.33 83.6105C200.363 83.8072 200.552 83.9383 200.755 83.9073C201.191 83.8564 212.517 83.1413 222.097 82.5445C222.152 82.541 222.206 82.5324 222.257 82.5177" fill="white"/>
<path d="M165.364 67.7839L165.422 40.1285C165.412 39.5161 164.728 39.1357 164.173 39.4333L160.871 41.2066C160.228 41.5517 159.468 40.9919 159.646 40.3036L166.475 13.8626C166.684 13.0535 167.873 13.0397 168.101 13.8436L175.493 39.8188C175.67 40.4398 175.059 41.0022 174.423 40.8021L170.149 39.4635C169.62 39.2979 169.074 39.6627 169.049 40.1975L167.044 67.8072C167.023 68.2462 166.643 68.5904 166.186 68.5809C165.734 68.5714 165.371 68.2195 165.364 67.7839" fill="url(#paint47_linear)"/>
<path d="M173.225 37.283C173.271 37.283 173.318 37.2752 173.364 37.258C173.556 37.1847 173.652 36.9777 173.581 36.7913C173.443 36.3911 170.477 25.8173 167.974 16.8711C167.886 16.5546 167.606 16.3467 167.257 16.3545C166.916 16.3631 166.638 16.5839 166.567 16.9056L165.294 22.5811C165.25 22.7778 165.38 22.9727 165.584 23.0141C165.786 23.0581 165.99 22.9322 166.034 22.7355L167.307 17.0592C168.899 22.9813 172.762 36.7793 172.873 37.051C172.931 37.195 173.074 37.283 173.225 37.283" fill="white"/>
<path d="M163.29 69.2666C163.29 71.3436 165.038 73.0273 167.193 73.0273C169.348 73.0273 171.095 71.3436 171.095 69.2666C171.095 67.1896 169.348 65.506 167.193 65.506C165.038 65.506 163.29 67.1896 163.29 69.2666Z" fill="url(#paint48_linear)"/>
<defs>
<linearGradient id="paint0_linear" x1="271.203" y1="309.154" x2="59.4822" y2="46.2093" gradientUnits="userSpaceOnUse">
<stop stop-color="#DAE3FE"/>
<stop offset="1" stop-color="#E9EFFD"/>
</linearGradient>
<linearGradient id="paint1_linear" x1="101.478" y1="173.349" x2="17.7189" y2="264.329" gradientUnits="userSpaceOnUse">
<stop stop-color="#4F52FF"/>
<stop offset="1" stop-color="#4042E2"/>
</linearGradient>
<linearGradient id="paint2_linear" x1="6.44043" y1="217.059" x2="103.971" y2="217.059" gradientUnits="userSpaceOnUse">
<stop stop-color="#DAE3FE"/>
<stop offset="1" stop-color="#E9EFFD"/>
</linearGradient>
<linearGradient id="paint3_linear" x1="6.44043" y1="220.131" x2="103.971" y2="220.131" gradientUnits="userSpaceOnUse">
<stop stop-color="#DAE3FE"/>
<stop offset="1" stop-color="#E9EFFD"/>
</linearGradient>
<linearGradient id="paint4_linear" x1="6.44043" y1="223.203" x2="103.971" y2="223.203" gradientUnits="userSpaceOnUse">
<stop stop-color="#DAE3FE"/>
<stop offset="1" stop-color="#E9EFFD"/>
</linearGradient>
<linearGradient id="paint5_linear" x1="6.44043" y1="226.274" x2="103.971" y2="226.274" gradientUnits="userSpaceOnUse">
<stop stop-color="#DAE3FE"/>
<stop offset="1" stop-color="#E9EFFD"/>
</linearGradient>
<linearGradient id="paint6_linear" x1="6.44043" y1="229.346" x2="103.971" y2="229.346" gradientUnits="userSpaceOnUse">
<stop stop-color="#DAE3FE"/>
<stop offset="1" stop-color="#E9EFFD"/>
</linearGradient>
<linearGradient id="paint7_linear" x1="135.657" y1="135.878" x2="50.4003" y2="250.442" gradientUnits="userSpaceOnUse">
<stop stop-color="#53D8FF"/>
<stop offset="1" stop-color="#3840F7"/>
</linearGradient>
<linearGradient id="paint8_linear" x1="129.281" y1="131.909" x2="44.8207" y2="245.403" gradientUnits="userSpaceOnUse">
<stop stop-color="#53D8FF"/>
<stop offset="1" stop-color="#3840F7"/>
</linearGradient>
<linearGradient id="paint9_linear" x1="32.6206" y1="75.5527" x2="89.899" y2="75.5527" gradientUnits="userSpaceOnUse">
<stop stop-color="#DAE3FE"/>
<stop offset="1" stop-color="#E9EFFD"/>
</linearGradient>
<linearGradient id="paint10_linear" x1="70.2215" y1="29.8695" x2="142.116" y2="153.591" gradientUnits="userSpaceOnUse">
<stop stop-color="#CE1567"/>
<stop offset="1" stop-color="#7A1DBC"/>
</linearGradient>
<linearGradient id="paint11_linear" x1="60.6344" y1="35.4381" x2="132.531" y2="159.164" gradientUnits="userSpaceOnUse">
<stop stop-color="#CE1567"/>
<stop offset="1" stop-color="#7A1DBC"/>
</linearGradient>
<linearGradient id="paint12_linear" x1="117.857" y1="112.667" x2="69.3744" y2="196.41" gradientUnits="userSpaceOnUse">
<stop stop-color="#A737D5"/>
<stop offset="1" stop-color="#EF497A"/>
</linearGradient>
<linearGradient id="paint13_linear" x1="155.179" y1="-54.7856" x2="140.949" y2="-4.20547" gradientUnits="userSpaceOnUse">
<stop stop-color="#FF928E"/>
<stop offset="1" stop-color="#FE7062"/>
</linearGradient>
<linearGradient id="paint14_linear" x1="147.394" y1="-56.9748" x2="133.164" y2="-6.39465" gradientUnits="userSpaceOnUse">
<stop stop-color="#FF928E"/>
<stop offset="1" stop-color="#FE7062"/>
</linearGradient>
<linearGradient id="paint15_linear" x1="140.923" y1="-58.7963" x2="126.693" y2="-8.2162" gradientUnits="userSpaceOnUse">
<stop stop-color="#FF928E"/>
<stop offset="1" stop-color="#FE7062"/>
</linearGradient>
<linearGradient id="paint16_linear" x1="135.227" y1="-60.3971" x2="120.997" y2="-9.81706" gradientUnits="userSpaceOnUse">
<stop stop-color="#FF928E"/>
<stop offset="1" stop-color="#FE7062"/>
</linearGradient>
<linearGradient id="paint17_linear" x1="332.915" y1="-208.948" x2="303.046" y2="-121.099" gradientUnits="userSpaceOnUse">
<stop stop-color="#4F52FF"/>
<stop offset="1" stop-color="#4042E2"/>
</linearGradient>
<linearGradient id="paint18_linear" x1="216.189" y1="10.7195" x2="143.89" y2="-47.4376" gradientUnits="userSpaceOnUse">
<stop stop-color="#4F52FF"/>
<stop offset="1" stop-color="#4042E2"/>
</linearGradient>
<linearGradient id="paint19_linear" x1="210.87" y1="-75.4683" x2="143.398" y2="-11.7744" gradientUnits="userSpaceOnUse">
<stop stop-color="#4F52FF"/>
<stop offset="1" stop-color="#4042E2"/>
</linearGradient>
<linearGradient id="paint20_linear" x1="-2610.58" y1="2736.6" x2="-2544.38" y2="2671.58" gradientUnits="userSpaceOnUse">
<stop stop-color="#4F52FF"/>
<stop offset="1" stop-color="#4042E2"/>
</linearGradient>
<linearGradient id="paint21_linear" x1="199.567" y1="240.936" x2="187.715" y2="240.936" gradientUnits="userSpaceOnUse">
<stop stop-color="#4F52FF"/>
<stop offset="1" stop-color="#4042E2"/>
</linearGradient>
<linearGradient id="paint22_linear" x1="199.567" y1="238.613" x2="188.049" y2="238.613" gradientUnits="userSpaceOnUse">
<stop stop-color="#09005D"/>
<stop offset="1" stop-color="#1A0F91"/>
</linearGradient>
<linearGradient id="paint23_linear" x1="198.473" y1="235.37" x2="195.134" y2="235.37" gradientUnits="userSpaceOnUse">
<stop stop-color="#FEBBBA"/>
<stop offset="1" stop-color="#FF928E"/>
</linearGradient>
<linearGradient id="paint24_linear" x1="223.195" y1="240.681" x2="218.653" y2="240.681" gradientUnits="userSpaceOnUse">
<stop stop-color="#4F52FF"/>
<stop offset="1" stop-color="#4042E2"/>
</linearGradient>
<linearGradient id="paint25_linear" x1="223.162" y1="237.184" x2="216.495" y2="237.184" gradientUnits="userSpaceOnUse">
<stop stop-color="#09005D"/>
<stop offset="1" stop-color="#1A0F91"/>
</linearGradient>
<linearGradient id="paint26_linear" x1="219.696" y1="232.587" x2="215.706" y2="232.587" gradientUnits="userSpaceOnUse">
<stop stop-color="#FEBBBA"/>
<stop offset="1" stop-color="#FF928E"/>
</linearGradient>
<linearGradient id="paint27_linear" x1="188.847" y1="195.826" x2="233.011" y2="260.19" gradientUnits="userSpaceOnUse">
<stop stop-color="#4F52FF"/>
<stop offset="1" stop-color="#4042E2"/>
</linearGradient>
<linearGradient id="paint28_linear" x1="228.102" y1="73.2222" x2="215.805" y2="105.43" gradientUnits="userSpaceOnUse">
<stop stop-color="#FF928E"/>
<stop offset="1" stop-color="#FE7062"/>
</linearGradient>
<linearGradient id="paint29_linear" x1="206.252" y1="217.811" x2="204.34" y2="213.988" gradientUnits="userSpaceOnUse">
<stop stop-color="#53D8FF"/>
<stop offset="1" stop-color="#3840F7"/>
</linearGradient>
<linearGradient id="paint30_linear" x1="201.417" y1="174.431" x2="215.62" y2="187.008" gradientUnits="userSpaceOnUse">
<stop stop-color="#FEBBBA"/>
<stop offset="1" stop-color="#FF928E"/>
</linearGradient>
<linearGradient id="paint31_linear" x1="237.653" y1="76.869" x2="225.355" y2="109.077" gradientUnits="userSpaceOnUse">
<stop stop-color="#FF928E"/>
<stop offset="1" stop-color="#FE7062"/>
</linearGradient>
<linearGradient id="paint32_linear" x1="216.421" y1="68.762" x2="204.124" y2="100.97" gradientUnits="userSpaceOnUse">
<stop stop-color="#FF928E"/>
<stop offset="1" stop-color="#FE7062"/>
</linearGradient>
<linearGradient id="paint33_linear" x1="174.793" y1="175.62" x2="163.607" y2="175.62" gradientUnits="userSpaceOnUse">
<stop stop-color="#FEBBBA"/>
<stop offset="1" stop-color="#FF928E"/>
</linearGradient>
<linearGradient id="paint34_linear" x1="185.665" y1="145.729" x2="185.787" y2="166.616" gradientUnits="userSpaceOnUse">
<stop stop-color="#FEBBBA"/>
<stop offset="1" stop-color="#FF928E"/>
</linearGradient>
<linearGradient id="paint35_linear" x1="178.887" y1="142.294" x2="187.121" y2="157.224" gradientUnits="userSpaceOnUse">
<stop stop-color="#FEBBBA"/>
<stop offset="1" stop-color="#FF928E"/>
</linearGradient>
<linearGradient id="paint36_linear" x1="186.19" y1="146.663" x2="174.035" y2="144.909" gradientUnits="userSpaceOnUse">
<stop stop-color="#09005D"/>
<stop offset="1" stop-color="#1A0F91"/>
</linearGradient>
<linearGradient id="paint37_linear" x1="192.253" y1="155.106" x2="185.299" y2="145.554" gradientUnits="userSpaceOnUse">
<stop stop-color="#FEBBBA"/>
<stop offset="1" stop-color="#FF928E"/>
</linearGradient>
<linearGradient id="paint38_linear" x1="164.795" y1="174.307" x2="160.789" y2="174.307" gradientUnits="userSpaceOnUse">
<stop stop-color="#FEBBBA"/>
<stop offset="1" stop-color="#FF928E"/>
</linearGradient>
<linearGradient id="paint39_linear" x1="120.157" y1="143.219" x2="289.105" y2="266.463" gradientUnits="userSpaceOnUse">
<stop stop-color="#09005D"/>
<stop offset="1" stop-color="#1A0F91"/>
</linearGradient>
<linearGradient id="paint40_linear" x1="114.234" y1="170.647" x2="91.9807" y2="151.304" gradientUnits="userSpaceOnUse">
<stop stop-color="#09005D"/>
<stop offset="1" stop-color="#1A0F91"/>
</linearGradient>
<linearGradient id="paint41_linear" x1="94.7772" y1="142.256" x2="177.172" y2="226.934" gradientUnits="userSpaceOnUse">
<stop stop-color="#FEBBBA"/>
<stop offset="1" stop-color="#FF928E"/>
</linearGradient>
<linearGradient id="paint42_linear" x1="145.023" y1="144.728" x2="219.382" y2="221.147" gradientUnits="userSpaceOnUse">
<stop stop-color="#4F52FF"/>
<stop offset="1" stop-color="#4042E2"/>
</linearGradient>
<linearGradient id="paint43_linear" x1="143.101" y1="151.444" x2="217.461" y2="227.863" gradientUnits="userSpaceOnUse">
<stop stop-color="#4F52FF"/>
<stop offset="1" stop-color="#4042E2"/>
</linearGradient>
<linearGradient id="paint44_linear" x1="195.808" y1="180.765" x2="210.011" y2="193.342" gradientUnits="userSpaceOnUse">
<stop stop-color="#FEBBBA"/>
<stop offset="1" stop-color="#FF928E"/>
</linearGradient>
<linearGradient id="paint45_linear" x1="425.154" y1="-158.675" x2="310.376" y2="-56.7806" gradientUnits="userSpaceOnUse">
<stop stop-color="#09005D"/>
<stop offset="1" stop-color="#1A0F91"/>
</linearGradient>
<linearGradient id="paint46_linear" x1="254.594" y1="6.24646" x2="229.105" y2="36.8086" gradientUnits="userSpaceOnUse">
<stop stop-color="#FF928E"/>
<stop offset="1" stop-color="#FE7062"/>
</linearGradient>
<linearGradient id="paint47_linear" x1="331.473" y1="-73.3042" x2="298.771" y2="-50.6298" gradientUnits="userSpaceOnUse">
<stop stop-color="#FF928E"/>
<stop offset="1" stop-color="#FE7062"/>
</linearGradient>
<linearGradient id="paint48_linear" x1="249.091" y1="282.484" x2="213.861" y2="190.762" gradientUnits="userSpaceOnUse">
<stop stop-color="#09005D"/>
<stop offset="1" stop-color="#1A0F91"/>
</linearGradient>
</defs>
</svg>
