<svg width="120" height="120" viewBox="0 0 120 120" fill="none" xmlns="http://www.w3.org/2000/svg">
<rect width="120" height="120" fill="#3450A1"/>
<g filter="url(#filter0_d)">
<path d="M18.7891 55V29.4062H26.0137C28.2402 29.4062 30.209 29.8984 31.9199 30.8828C33.6309 31.8672 34.9492 33.2676 35.875 35.084C36.8125 36.9004 37.2871 38.9863 37.2988 41.3418V42.9766C37.2988 45.3906 36.8301 47.5059 35.8926 49.3223C34.9668 51.1387 33.6367 52.5332 31.9023 53.5059C30.1797 54.4785 28.1699 54.9766 25.873 55H18.7891ZM22.1641 32.1836V52.2402H25.7148C28.3164 52.2402 30.3379 51.4316 31.7793 49.8145C33.2324 48.1973 33.959 45.8945 33.959 42.9062V41.4121C33.959 38.5059 33.2734 36.25 31.9023 34.6445C30.543 33.0273 28.6094 32.207 26.1016 32.1836H22.1641ZM62.1016 43.0293C62.1016 45.5371 61.6797 47.7285 60.8359 49.6035C59.9922 51.4668 58.7969 52.8906 57.25 53.875C55.7031 54.8594 53.8984 55.3516 51.8359 55.3516C49.8203 55.3516 48.0332 54.8594 46.4746 53.875C44.916 52.8789 43.7031 51.4668 42.8359 49.6387C41.9805 47.7988 41.541 45.6719 41.5176 43.2578V41.4121C41.5176 38.9512 41.9453 36.7773 42.8008 34.8906C43.6562 33.0039 44.8633 31.5625 46.4219 30.5664C47.9922 29.5586 49.7852 29.0547 51.8008 29.0547C53.8516 29.0547 55.6562 29.5527 57.2148 30.5488C58.7852 31.5332 59.9922 32.9688 60.8359 34.8555C61.6797 36.7305 62.1016 38.916 62.1016 41.4121V43.0293ZM58.7441 41.377C58.7441 38.3418 58.1348 36.0156 56.916 34.3984C55.6973 32.7695 53.9922 31.9551 51.8008 31.9551C49.668 31.9551 47.9863 32.7695 46.7559 34.3984C45.5371 36.0156 44.9102 38.2656 44.875 41.1484V43.0293C44.875 45.9707 45.4902 48.2852 46.7207 49.9727C47.9629 51.6484 49.668 52.4863 51.8359 52.4863C54.0156 52.4863 55.7031 51.6953 56.8984 50.1133C58.0938 48.5195 58.709 46.2402 58.7441 43.2754V41.377ZM79.7148 55H76.3398V29.4062H79.7148V55ZM103.059 32.1836H94.832V55H91.4746V32.1836H83.2656V29.4062H103.059V32.1836ZM40.9551 97H37.5625L24.6777 77.2773V97H21.2852V71.4062H24.6777L37.5977 91.2168V71.4062H40.9551V97ZM66.6367 85.0293C66.6367 87.5371 66.2148 89.7285 65.3711 91.6035C64.5273 93.4668 63.332 94.8906 61.7852 95.875C60.2383 96.8594 58.4336 97.3516 56.3711 97.3516C54.3555 97.3516 52.5684 96.8594 51.0098 95.875C49.4512 94.8789 48.2383 93.4668 47.3711 91.6387C46.5156 89.7988 46.0762 87.6719 46.0527 85.2578V83.4121C46.0527 80.9512 46.4805 78.7773 47.3359 76.8906C48.1914 75.0039 49.3984 73.5625 50.957 72.5664C52.5273 71.5586 54.3203 71.0547 56.3359 71.0547C58.3867 71.0547 60.1914 71.5527 61.75 72.5488C63.3203 73.5332 64.5273 74.9688 65.3711 76.8555C66.2148 78.7305 66.6367 80.916 66.6367 83.4121V85.0293ZM63.2793 83.377C63.2793 80.3418 62.6699 78.0156 61.4512 76.3984C60.2324 74.7695 58.5273 73.9551 56.3359 73.9551C54.2031 73.9551 52.5215 74.7695 51.291 76.3984C50.0723 78.0156 49.4453 80.2656 49.4102 83.1484V85.0293C49.4102 87.9707 50.0254 90.2852 51.2559 91.9727C52.498 93.6484 54.2031 94.4863 56.3711 94.4863C58.5508 94.4863 60.2383 93.6953 61.4336 92.1133C62.6289 90.5195 63.2441 88.2402 63.2793 85.2754V83.377ZM77.2188 88.9316L77.7109 92.3066L78.4316 89.2656L83.4941 71.4062H86.3418L91.2812 89.2656L91.9844 92.3594L92.5293 88.9141L96.502 71.4062H99.8945L93.6895 97H90.6133L85.3398 78.3496L84.9355 76.3984L84.5312 78.3496L79.0645 97H75.9883L69.8008 71.4062H73.1758L77.2188 88.9316Z" fill="#041955"/>
</g>
<defs>
<filter id="filter0_d" x="14.7891" y="29.0547" width="92.2695" height="76.2969" filterUnits="userSpaceOnUse" color-interpolation-filters="sRGB">
<feFlood flood-opacity="0" result="BackgroundImageFix"/>
<feColorMatrix in="SourceAlpha" type="matrix" values="0 0 0 0 0 0 0 0 0 0 0 0 0 0 0 0 0 0 127 0"/>
<feOffset dy="4"/>
<feGaussianBlur stdDeviation="2"/>
<feColorMatrix type="matrix" values="0 0 0 0 0 0 0 0 0 0 0 0 0 0 0 0 0 0 0.25 0"/>
<feBlend mode="normal" in2="BackgroundImageFix" result="effect1_dropShadow"/>
<feBlend mode="normal" in="SourceGraphic" in2="effect1_dropShadow" result="shape"/>
</filter>
</defs>
</svg>
