<svg width="130" height="132" viewBox="0 0 130 132" fill="none" xmlns="http://www.w3.org/2000/svg">
<path d="M130 65.0025C130 100.9 100.899 130.001 65.0013 130.001C29.1023 130.001 0 100.9 0 65.0025C0 29.1021 29.1023 1.52588e-05 65.0013 1.52588e-05C100.899 1.52588e-05 130 29.1021 130 65.0025Z" fill="#F3D28B"/>
<path d="M101.003 103.001C96.9193 97.9094 64.5844 86.7293 64.5844 86.7293C64.5844 86.7293 32.9336 99.0948 28.1681 103.001C23.4034 106.91 21.6179 131.605 21.6179 131.605H106.619C106.619 131.605 105.086 108.094 101.003 103.001Z" fill="#21282C"/>
<path d="M74.6093 92.6974C74.6093 92.6974 73.37 98.6979 64.5942 98.6979C55.8188 98.6979 54.583 92.6974 54.583 92.6974C54.583 92.6974 57.0223 87.8455 54.583 82.149C52.142 76.4538 77.5945 75.3 74.6093 82.149C71.6233 88.9998 74.6093 92.6974 74.6093 92.6974Z" fill="#D89461"/>
<path d="M85.499 70.2002C86.1369 61.6542 91.5591 49.3373 91.5591 49.3373C99.2707 32.0912 91.2695 6.0888 76.3199 14.0801C57.8158 -2.82001 28.5409 20.8167 38.4437 49.1029C38.4437 49.1029 43.1405 60.5552 43.5948 69.0097C44.0503 77.4621 59.2373 94.3642 64.1182 94.6342C68.9955 94.9083 84.8634 78.7433 85.499 70.2002Z" fill="#372125"/>
<path d="M92.8922 54.2753C92.8922 58.7921 89.6852 65.0025 87.5263 65.0025C85.3685 65.0025 83.6174 61.3359 83.6174 56.8179C83.6174 52.2998 85.8272 49.9685 87.5263 48.6375C89.6189 47.0015 92.8922 48.6375 92.8922 54.2753Z" fill="#F9AA78"/>
<path d="M36.928 54.2753C36.928 58.7921 40.1329 65.0025 42.2906 65.0025C44.451 65.0025 46.2008 61.3359 46.2008 56.8179C46.2008 52.2998 43.9925 49.9685 42.2906 48.6375C40.1998 47.0015 36.928 48.6375 36.928 54.2753Z" fill="#F9AA78"/>
<path d="M65.0012 18.451C49.8207 18.451 43.1111 29.0888 43.1111 44.9531C43.1111 53.0351 43.1111 59.3518 43.1111 64.8202C43.1111 78.6371 59.0745 90.4532 64.1181 90.4532C69.1595 90.4532 86.8907 76.6365 86.8907 63.5477C86.8907 58.3732 86.8907 52.4181 86.8907 44.9531C86.8907 29.0888 80.1803 18.451 65.0012 18.451Z" fill="#F9AA78"/>
<path d="M86.8907 56.2751L88.2549 44.6988C88.2549 28.8345 80.1803 17.0151 65.0012 17.0151C49.8207 17.0151 41.5657 30.5369 41.5657 46.4023L43.1111 58.8188C43.1111 58.8188 46.7021 56.3821 46.5418 51.9107C46.1783 41.7263 51.5113 40.224 59.8151 38.6366C72.9047 36.1382 76.5833 28.2851 76.5833 28.2851C76.5833 28.2851 80.8769 29.7399 83.6175 36.1382C85.3917 40.2726 83.0725 44.774 82.9354 47.363C82.7995 49.9541 86.8907 56.2751 86.8907 56.2751Z" fill="#372125"/>
<path d="M66.421 82.1724C65.0854 82.2609 62.6326 82.4876 61.8135 82.1724C64.2692 85.9422 61.8135 91.2837 61.8135 91.2837H66.421C66.421 91.2837 64.4138 86.7258 66.421 82.1724Z" fill="#372125"/>
</svg>
