<svg width="320" height="320" viewBox="0 0 320 320" fill="none" xmlns="http://www.w3.org/2000/svg">
<path d="M269.601 202.18C245.336 258.898 181.282 283.259 131.096 279.106C117.393 277.972 89.8227 275.69 68.2952 255.332C26.9534 216.237 33.3204 134.516 72.8964 86.4034C77.993 80.207 113.271 38.695 168.244 39.2504C208.493 39.6576 236.743 62.3939 240.179 65.2256C244.518 68.8043 254.089 77.3071 262.715 90.7963C282.983 122.491 284.764 166.738 269.601 202.18" fill="url(#paint0_linear)"/>
<path d="M228.879 152.985C228.879 152.985 230.629 131.028 241.325 126.212C252.02 121.396 271.581 119.719 275.56 88.3441C277.889 69.9756 279.18 61.9722 279.849 58.4936C280.11 57.1368 279.008 55.906 277.631 56.0198C267.89 56.8297 236.084 61.0208 227.381 81.5301C217.064 105.845 228.879 152.985 228.879 152.985Z" fill="#91B3FA"/>
<path d="M269.335 64.0043C257.878 72.2709 244.034 87.5679 235.855 103.451C234.742 106.093 231.714 111.644 229.591 121.842C227.759 130.343 227.285 139.475 227.803 145.608C227.836 145.995 228.176 146.283 228.565 146.25C229.23 146.193 229.217 145.482 229.209 145.503C228.97 135.094 230.836 122.362 235.02 111.132C240.304 97.3603 250.24 84.5059 260.251 73.7682L261.276 72.7142C269.005 64.6625 270.447 64.747 269.873 64.0699C269.737 63.9103 269.502 63.8845 269.335 64.0043Z" fill="#BDD0FB"/>
<path d="M208.302 193.415C206.868 193.942 223.017 177.458 230.417 149.707C233.904 136.63 235.658 119.975 243.897 114.34C250.754 109.651 271.855 115.247 278.74 117.257C279.601 117.508 279.781 118.647 279.039 119.149C275.381 121.627 267.489 127.547 264.917 134.072C261.526 142.673 252.522 147.434 244.825 148.176C237.129 148.92 232.782 149.964 227.86 161.639C222.938 173.314 212.377 191.915 208.302 193.415" fill="#BDD0FB"/>
<path d="M268.481 119.976C259.488 119.422 249.452 122.511 243.78 129.667L243.245 130.35C242.004 131.955 234.714 143.517 230.32 153.273C230.265 153.395 230.319 153.537 230.44 153.592C230.647 153.685 230.778 153.461 230.756 153.479C233.68 148.014 237.779 141.125 241.007 135.991C244.48 130.383 246.897 126.592 253.819 123.438C261.508 120.066 268.49 120.36 268.469 120.363C268.576 120.363 268.663 120.276 268.663 120.169C268.663 120.066 268.583 119.982 268.481 119.976" fill="url(#paint1_linear)"/>
<path d="M99.9564 55.6791C94.0635 56.1914 89.5456 61.1268 89.5283 67.0412C89.4257 103.214 89.2566 227.983 91.6148 272.144C91.8641 276.823 95.6998 280.498 100.385 280.549C123.556 280.798 190.208 281.256 228.047 278.836C235.928 278.332 242.061 271.804 242.052 263.907C242.005 225.943 241.399 119.174 236.199 70.3706C235.575 64.5235 230.875 59.959 225.012 59.5027C199.74 57.5335 132.63 52.837 99.9564 55.6791" fill="url(#paint2_linear)"/>
<path d="M98.8301 76.5215C98.3747 107.464 97.0792 210.396 99.3416 248.387C99.672 253.94 103.985 258.324 109.311 258.509C131.24 259.273 187.472 260.752 219.514 257.227C225.284 256.592 229.693 251.591 229.847 245.535C230.649 213.959 232.814 118.089 230.615 80.5228C230.265 74.5299 225.686 69.748 219.947 69.3616C196.203 67.7616 135.233 64.0717 107.986 66.341C102.871 66.7671 98.9086 71.1643 98.8301 76.5215" fill="url(#paint3_linear)"/>
<path d="M151.812 61.0587C151.831 61.9135 152.513 62.6044 153.367 62.6302C157.587 62.7579 169.473 63.1219 174.786 63.3134C175.833 63.3513 176.634 62.3931 176.412 61.3684C176.394 61.3356 176.258 60.022 174.917 59.9288C171.323 59.6796 160.481 59.0051 153.316 59.4191C151.844 59.5036 151.765 61.1769 151.812 61.0587" fill="#1F5AA9"/>
<path d="M224.062 248.828H103.167C101.894 248.828 100.861 247.795 100.861 246.522V43.3992C100.861 42.792 101.353 42.3004 101.96 42.3004H224.64C225.594 42.3004 226.368 43.0741 226.368 44.0289V246.522C226.368 247.795 225.335 248.828 224.062 248.828Z" fill="url(#paint4_linear)"/>
<path d="M221.867 245.025H105.362C104.089 245.025 103.056 243.993 103.056 242.719V46.7562C103.056 46.1844 103.519 45.7212 104.09 45.7212H221.867C223.141 45.7212 224.172 46.7536 224.172 48.0267V242.719C224.172 243.993 223.141 245.025 221.867 245.025" fill="url(#paint5_linear)"/>
<path d="M201.121 80.0793H127.83C127.547 80.0793 127.315 79.8482 127.315 79.5653V62.0472C127.315 61.7643 127.547 61.5332 127.83 61.5332H201.121C201.404 61.5332 201.636 61.7643 201.636 62.0472V79.5653C201.636 79.8482 201.404 80.0793 201.121 80.0793Z" fill="white"/>
<path d="M211.167 170.712H140.49C140.226 170.712 140.011 170.496 140.011 170.232V160.977C140.011 160.713 140.226 160.498 140.49 160.498H211.167C211.431 160.498 211.647 160.713 211.647 160.977V170.232C211.647 170.496 211.431 170.712 211.167 170.712Z" fill="white"/>
<path d="M132.947 174.566H115.541C115.259 174.566 115.029 174.337 115.029 174.054V157.155C115.029 156.872 115.259 156.644 115.541 156.644H132.947C133.229 156.644 133.458 156.872 133.458 157.155V174.054C133.458 174.337 133.229 174.566 132.947 174.566Z" fill="url(#paint6_linear)"/>
<path d="M211.426 144.64H140.749C140.485 144.64 140.27 144.424 140.27 144.16V134.905C140.27 134.641 140.485 134.425 140.749 134.425H211.426C211.69 134.425 211.906 134.641 211.906 134.905V144.16C211.906 144.424 211.69 144.64 211.426 144.64Z" fill="white"/>
<path d="M133.205 148.493H115.8C115.517 148.493 115.288 148.264 115.288 147.981V131.083C115.288 130.801 115.517 130.571 115.8 130.571H133.205C133.488 130.571 133.716 130.801 133.716 131.083V147.981C133.716 148.264 133.488 148.493 133.205 148.493Z" fill="url(#paint7_linear)"/>
<path d="M211.167 222.857H140.49C140.226 222.857 140.011 222.642 140.011 222.378V213.122C140.011 212.858 140.226 212.642 140.49 212.642H211.167C211.431 212.642 211.647 212.858 211.647 213.122V222.378C211.647 222.642 211.431 222.857 211.167 222.857Z" fill="white"/>
<path d="M132.947 226.711H115.541C115.259 226.711 115.029 226.482 115.029 226.199V209.3C115.029 209.018 115.259 208.788 115.541 208.788H132.947C133.229 208.788 133.458 209.018 133.458 209.3V226.199C133.458 226.482 133.229 226.711 132.947 226.711Z" fill="url(#paint8_linear)"/>
<path d="M211.426 196.785H140.749C140.485 196.785 140.27 196.569 140.27 196.305V187.049C140.27 186.785 140.485 186.57 140.749 186.57H211.426C211.69 186.57 211.906 186.785 211.906 187.049V196.305C211.906 196.569 211.69 196.785 211.426 196.785Z" fill="white"/>
<path d="M133.205 200.638H115.8C115.517 200.638 115.288 200.409 115.288 200.127V183.228C115.288 182.945 115.517 182.716 115.8 182.716H133.205C133.488 182.716 133.716 182.945 133.716 183.228V200.127C133.716 200.409 133.488 200.638 133.205 200.638Z" fill="url(#paint9_linear)"/>
<path d="M211.426 118.568H140.749C140.485 118.568 140.27 118.352 140.27 118.088V108.832C140.27 108.568 140.485 108.352 140.749 108.352H211.426C211.69 108.352 211.906 108.568 211.906 108.832V118.088C211.906 118.352 211.69 118.568 211.426 118.568Z" fill="white"/>
<path d="M133.205 122.421H115.8C115.517 122.421 115.288 122.192 115.288 121.91V105.011C115.288 104.728 115.517 104.499 115.8 104.499H133.205C133.488 104.499 133.716 104.728 133.716 105.011V121.91C133.716 122.192 133.488 122.421 133.205 122.421Z" fill="url(#paint10_linear)"/>
<path d="M56.6304 247.045C56.4903 247.007 56.3776 246.892 56.3519 246.742C56.2671 246.249 56.1913 245.745 56.1266 245.245C56.1001 245.04 56.248 244.854 56.4571 244.83C56.964 244.771 56.875 245.29 57.1047 246.627C57.1399 246.831 56.9998 247.023 56.7919 247.055C56.7363 247.063 56.6816 247.06 56.6304 247.045" fill="#91B3FA"/>
<path d="M106.525 206.963C103.833 205.966 103.345 206.142 103.501 205.596C103.601 205.25 104.018 205.336 103.972 205.342C104.92 205.613 105.868 205.923 106.788 206.263C106.986 206.336 107.088 206.553 107.015 206.746C106.945 206.931 106.736 207.038 106.525 206.963ZM95.9274 204.3C95.9421 204.094 96.1249 203.94 96.3345 203.957C97.3135 204.036 98.3019 204.153 99.274 204.306C99.7734 204.384 99.6604 205.124 99.1619 205.045C98.2088 204.895 97.2402 204.78 96.281 204.704C96.0688 204.685 95.9127 204.503 95.9274 204.3ZM113.352 210.306C110.913 208.788 110.404 208.865 110.671 208.365C110.768 208.182 110.998 208.114 111.186 208.211C112.057 208.663 112.922 209.157 113.756 209.675C114.184 209.942 113.782 210.573 113.352 210.306V210.306ZM88.2621 204.534C88.2336 204.329 88.3794 204.142 88.5881 204.117C89.5602 203.998 90.5504 203.915 91.5319 203.871C92.0374 203.85 92.0779 204.597 91.5751 204.619C90.6142 204.662 89.6438 204.743 88.6916 204.86C88.4837 204.886 88.2905 204.74 88.2621 204.534ZM81.0886 206.543C80.971 206.511 80.8704 206.425 80.8265 206.304C80.756 206.109 80.8599 205.896 81.0584 205.829C81.983 205.517 82.9323 205.237 83.88 204.998C84.0833 204.945 84.2931 205.066 84.3479 205.267C84.4027 205.467 84.2822 205.67 84.0787 205.722C83.1503 205.958 82.2201 206.231 81.3142 206.537C81.2388 206.562 81.1605 206.563 81.0886 206.543ZM74.1608 209.695C74.0687 209.67 73.9859 209.611 73.9326 209.525C73.8232 209.347 73.8804 209.117 74.0607 209.012C74.9008 208.521 75.7703 208.058 76.6454 207.634C76.8337 207.542 77.063 207.619 77.1583 207.804C77.2534 207.99 77.1781 208.214 76.99 208.305C76.1324 208.721 75.2803 209.176 74.457 209.656C74.3645 209.711 74.2576 209.721 74.1608 209.695V209.695ZM67.8604 214.057C67.7167 213.903 67.7252 213.667 67.8796 213.528C68.5987 212.88 69.3528 212.252 70.1209 211.661C70.5166 211.359 70.9915 211.949 70.5962 212.252C69.8435 212.831 69.1045 213.446 68.3999 214.082C68.2459 214.221 68.0042 214.21 67.8604 214.057V214.057ZM62.866 219.714C62.6938 219.593 62.653 219.359 62.7749 219.192C63.342 218.413 63.9485 217.646 64.5774 216.912C64.9009 216.535 65.4873 217.021 65.1643 217.397C64.5481 218.116 63.9537 218.868 63.3979 219.631C63.2762 219.799 63.0376 219.836 62.866 219.714V219.714ZM58.9717 225.773C59.3624 224.895 59.7939 224.021 60.2544 223.176C60.4921 222.74 61.165 223.101 60.9287 223.534C60.4776 224.362 60.0547 225.219 59.6721 226.079C59.4707 226.532 58.7709 226.224 58.9717 225.773V225.773ZM56.6307 232.99C56.832 232.045 57.0746 231.089 57.3442 230.185C57.4884 229.698 58.2163 229.935 58.0772 230.402C57.8092 231.304 57.5751 232.226 57.3782 233.152C57.3353 233.353 57.1332 233.481 56.9268 233.436C56.7181 233.391 56.5883 233.19 56.6307 232.99ZM55.8276 240.541C55.829 239.578 55.8696 238.604 55.9481 237.645C55.965 237.438 56.149 237.287 56.3592 237.306C56.9318 237.361 56.5956 237.713 56.5911 240.55C56.5907 240.757 56.4197 240.922 56.2088 240.92C55.9951 240.917 55.8272 240.745 55.8276 240.541" fill="#91B3FA"/>
<path d="M118.348 214.022C117.387 213.175 116.817 212.911 117.144 212.521C117.278 212.364 117.519 212.341 117.682 212.475C118.711 213.312 119.218 213.636 118.887 213.997C118.788 214.106 118.505 214.161 118.348 214.022" fill="#91B3FA"/>
<path d="M131.107 240.238C130.95 240.195 130.831 240.056 130.824 239.888C130.803 239.396 130.772 238.898 130.732 238.409C130.715 238.203 130.871 238.024 131.08 238.009C131.291 237.996 131.475 238.15 131.492 238.356C131.534 238.856 131.566 239.364 131.586 239.866C131.595 240.073 131.432 240.245 131.221 240.251C131.182 240.253 131.143 240.248 131.107 240.238" fill="#91B3FA"/>
<path d="M130.533 248.309C130.343 248.258 130.22 248.071 130.255 247.878C130.441 246.877 130.585 245.858 130.683 244.853C130.704 244.648 130.89 244.499 131.101 244.521C131.311 244.544 131.464 244.728 131.444 244.933C131.343 245.959 131.196 246.998 131.007 248.021C130.97 248.223 130.771 248.356 130.563 248.316C130.553 248.315 130.543 248.313 130.533 248.309V248.309ZM128.136 256.028C127.589 255.797 128.061 255.564 129.02 252.683C129.176 252.216 129.903 252.452 129.746 252.922C129.419 253.906 129.045 254.885 128.636 255.834C128.553 256.027 128.325 256.11 128.136 256.028V256.028ZM124.031 263.012C123.548 262.669 124.065 262.541 125.649 259.948C125.906 259.525 126.563 259.914 126.304 260.338C125.764 261.223 125.179 262.095 124.564 262.932C124.441 263.098 124.203 263.136 124.031 263.012V263.012ZM118.637 269.036C118.567 269.017 118.503 268.979 118.451 268.922C118.31 268.766 118.324 268.529 118.481 268.394C119.254 267.726 120.007 267.017 120.718 266.287C120.863 266.139 121.105 266.135 121.258 266.279C121.412 266.423 121.418 266.659 121.273 266.808C120.547 267.553 119.778 268.276 118.99 268.958C118.89 269.043 118.757 269.068 118.637 269.036V269.036ZM111.914 273.661C111.817 273.635 111.731 273.572 111.678 273.479C111.576 273.298 111.642 273.07 111.826 272.972C112.73 272.487 113.623 271.958 114.482 271.399C114.657 271.286 114.895 271.333 115.013 271.507C115.13 271.679 115.084 271.911 114.909 272.025C114.033 272.594 113.12 273.134 112.198 273.629C112.108 273.678 112.006 273.686 111.914 273.661V273.661ZM104.31 276.727C104.185 276.693 104.08 276.598 104.041 276.468C103.981 276.27 104.096 276.063 104.298 276.006C105.289 275.728 106.281 275.404 107.246 275.044C107.443 274.971 107.665 275.068 107.742 275.261C107.818 275.455 107.722 275.67 107.526 275.744C106.541 276.111 105.528 276.441 104.516 276.726C104.446 276.746 104.375 276.744 104.31 276.727V276.727ZM96.187 278.073C96.0335 278.032 95.9153 277.898 95.9041 277.733C95.8895 277.527 96.049 277.35 96.2595 277.339C97.2945 277.281 98.3373 277.181 99.3586 277.038C99.5682 277.009 99.7622 277.151 99.7942 277.356C99.8261 277.561 99.6837 277.751 99.475 277.779C98.4322 277.925 97.367 278.028 96.3112 278.086C96.2681 278.089 96.2258 278.084 96.187 278.073V278.073ZM75.2391 273.215C74.3169 272.7 73.4043 272.139 72.527 271.548C72.3524 271.431 72.3063 271.198 72.4243 271.027C72.7569 270.548 72.9077 271.055 75.6114 272.566C75.7955 272.669 75.8614 272.898 75.7587 273.077C75.6557 273.257 75.4233 273.318 75.2391 273.215ZM87.6583 277.21C87.7489 276.636 88.1215 277.032 91.193 277.276C91.4043 277.292 91.5621 277.474 91.5475 277.68C91.5328 277.885 91.3508 278.039 91.1403 278.022C90.0898 277.939 89.0254 277.81 87.9774 277.64C87.7678 277.606 87.6264 277.413 87.6583 277.21V277.21ZM82.931 276.476C81.9163 276.17 80.9026 275.819 79.9181 275.43C79.7216 275.354 79.6244 275.135 79.7011 274.944C79.9172 274.404 80.1786 274.865 83.1475 275.761C83.3498 275.821 83.4652 276.031 83.4052 276.228C83.3008 276.573 82.8855 276.482 82.931 276.476Z" fill="#91B3FA"/>
<path d="M68.4309 268.366C67.4403 267.483 66.9504 267.137 67.2979 266.792C67.6594 266.432 67.9269 266.91 68.9409 267.815C69.0979 267.955 69.1106 268.192 68.9699 268.344C68.829 268.495 68.5877 268.506 68.4309 268.366" fill="#91B3FA"/>
<path d="M71.6755 258.537L77.005 257.352C78.8337 259.127 80.961 260.633 83.3328 261.781C84.0421 266.962 83.7246 267.376 84.2983 267.508L90.7133 268.982C90.9005 269.025 91.0937 268.947 91.1946 268.788L94.0625 264.248C96.6958 264.25 99.2627 263.824 101.679 263.023L105.965 266.419C106.115 266.538 106.324 266.551 106.486 266.453L112.033 263.06C112.195 262.96 112.274 262.771 112.229 262.587L110.959 257.348C112.748 255.575 114.259 253.506 115.403 251.195L120.843 250.652C121.035 250.633 121.191 250.498 121.232 250.314L122.662 244.042C122.704 243.858 122.622 243.667 122.458 243.567L117.794 240.702C117.766 238.12 117.301 235.598 116.457 233.22C119.705 229.085 120.212 229.033 119.899 228.546C116.347 223.234 116.474 222.741 115.89 222.87L110.56 224.055C108.732 222.28 106.605 220.774 104.233 219.626C103.524 214.448 103.841 214.033 103.267 213.9C96.8683 212.545 96.6794 212.132 96.3707 212.62L93.5027 217.16C90.8694 217.158 88.3025 217.584 85.8865 218.384C81.6824 215.191 81.5792 214.649 81.0791 214.956C75.6496 218.409 75.1988 218.255 75.336 218.821L76.6066 224.06C74.817 225.833 73.3061 227.901 72.1623 230.214C66.9791 230.837 66.4632 230.521 66.3328 231.093C65.0301 237.324 64.6023 237.531 65.1067 237.84L69.7708 240.705C69.7994 243.287 70.2639 245.81 71.1077 248.187C67.8713 252.309 67.3518 252.372 67.6662 252.862C71.2179 258.174 71.0919 258.668 71.6755 258.537" fill="#91B3FA"/>
<path d="M93.6356 235.545C90.7686 235.591 88.4389 237.901 88.5217 240.788C88.6027 243.634 91.029 245.911 93.9297 245.863C96.8304 245.817 99.1248 243.464 99.0437 240.619C98.9626 237.77 96.5311 235.498 93.6356 235.545ZM93.9461 246.425L93.9496 246.426L93.9461 246.425ZM87.3771 240.807C87.2779 237.343 90.0716 234.479 93.6037 234.422C97.1349 234.366 100.089 237.137 100.188 240.601C100.287 244.065 97.4937 246.929 93.9616 246.986C90.4287 247.043 87.4763 244.27 87.3771 240.807Z" fill="#BDD0FB"/>
<path d="M89.667 256.141C88.7519 255.892 87.8592 255.567 87.0053 255.172C86.7482 255.053 86.6206 254.774 86.6904 254.516C86.6991 254.485 86.7103 254.454 86.7241 254.424C86.8569 254.144 87.1976 254.025 87.484 254.158C88.4664 254.612 89.504 254.966 90.5692 255.212C98.5908 257.056 106.572 252.341 108.664 244.647C108.718 244.451 108.768 244.252 108.814 244.051C110.658 235.958 105.432 227.924 97.2185 226.033C89.0175 224.147 80.818 229.122 78.9745 237.193C77.8797 241.999 79.5268 244.994 79.3917 245.491C79.2457 246.027 78.4733 246.04 78.2947 245.512C77.3192 242.622 77.1674 239.42 78.0166 236.296C81.6816 222.82 100.112 220.252 107.761 232.14C110.115 235.799 110.885 240.12 109.93 244.308C109.881 244.526 109.828 244.741 109.77 244.954C108.707 248.862 106.219 252.17 102.707 254.318C99.0022 256.584 94.6033 257.29 90.32 256.305C90.1009 256.255 89.8835 256.199 89.667 256.141" fill="#BDD0FB"/>
<path d="M59.1002 201.697C60.2827 202.695 61.6331 203.512 63.1144 204.097L63.7281 207.351C63.796 207.712 64.0823 207.519 67.8887 208.146C68.2398 208.198 68.1508 207.893 69.6925 205.062C71.2794 204.928 72.8073 204.533 74.2268 203.917L76.9635 205.785C77.2677 205.993 77.3334 205.654 80.4683 203.406C80.5615 203.336 80.6004 203.215 80.5652 203.105L79.5617 199.947C80.5598 198.765 81.3766 197.414 81.961 195.933C85.0585 195.282 85.3816 195.449 85.4342 195.091C85.937 191.187 86.1847 191.042 85.8669 190.877L82.9262 189.354C82.7919 187.767 82.3975 186.24 81.7811 184.82L83.6494 182.083C83.8567 181.781 83.5185 181.714 81.2702 178.579C81.0596 178.295 80.9192 178.568 77.8114 179.485C76.6287 178.487 75.2785 177.671 73.7971 177.086L73.1834 173.832C73.1153 173.47 72.8291 173.663 69.0227 173.036C68.6735 172.984 68.7685 173.275 67.219 176.121C65.6321 176.255 64.1041 176.649 62.6847 177.266L59.948 175.398C59.8522 175.332 59.7251 175.335 59.632 175.404L56.4433 177.777C56.35 177.847 56.3111 177.967 56.3463 178.078L57.3497 181.235C56.3516 182.419 55.535 183.769 54.9504 185.25C51.8529 185.902 51.5295 185.734 51.4774 186.091C50.9747 189.994 50.7268 190.141 51.0446 190.306L53.9853 191.828C54.1197 193.415 54.514 194.943 55.1303 196.363C53.4005 199.013 53.052 199.124 53.2684 199.415L55.6412 202.604C55.8533 202.889 56.0081 202.609 59.1002 201.697" fill="#91B3FA"/>
<path d="M65.5595 190.887C65.7228 192.484 67.1549 193.65 68.7509 193.488C71.3154 193.227 72.3003 189.97 70.2951 188.335C68.2987 186.709 65.2965 188.306 65.5595 190.887ZM68.8137 194.103L68.8176 194.104L68.8137 194.103ZM64.3298 191.013C64.0976 188.732 65.7545 186.698 68.0354 186.466C70.3151 186.233 72.3495 187.89 72.5819 190.171C72.8137 192.446 71.1516 194.486 68.8765 194.718C66.6013 194.949 64.562 193.288 64.3298 191.013Z" fill="#BDD0FB"/>
<path d="M48.9535 200.156C48.708 199.657 48.4791 199.14 48.2729 198.621C48.1889 198.409 48.2921 198.17 48.5036 198.086C49.0358 197.874 49.0607 198.504 49.6932 199.793C49.7936 199.997 49.7091 200.244 49.5049 200.345C49.3016 200.444 49.0543 200.361 48.9535 200.156Z" fill="#91B3FA"/>
<path d="M66.9212 169.332C66.9091 169.105 67.0834 168.91 67.3106 168.898C68.4421 168.837 69.5839 168.865 70.7044 168.981C71.245 169.033 71.1638 169.856 70.6199 169.8C69.5422 169.689 68.4436 169.663 67.3549 169.721C67.122 169.733 66.9334 169.554 66.9212 169.332ZM58.8226 171.92C58.7133 171.891 58.6166 171.816 58.5621 171.707C58.4603 171.504 58.5428 171.256 58.7464 171.154C59.7566 170.649 60.8152 170.22 61.8928 169.88C62.1101 169.811 62.3413 169.932 62.4099 170.149C62.4783 170.366 62.3581 170.597 62.141 170.666C61.1045 170.993 60.0863 171.405 59.1147 171.891C59.0206 171.938 58.9168 171.946 58.8226 171.92V171.92ZM52.0092 177.31C51.9535 177.296 51.9002 177.269 51.8531 177.229C51.6785 177.083 51.6555 176.823 51.8014 176.649C52.5266 175.782 53.3253 174.966 54.1753 174.223C54.3464 174.073 54.6073 174.091 54.7566 174.262C54.9064 174.433 54.889 174.693 54.7175 174.843C53.8998 175.558 53.1314 176.343 52.4336 177.177C52.3268 177.305 52.1596 177.352 52.0092 177.31ZM47.8953 184.966C47.677 184.902 47.5522 184.673 47.6164 184.455C47.9356 183.372 48.3433 182.304 48.8287 181.283C49.063 180.791 49.8071 181.144 49.5733 181.637C49.1063 182.62 48.7139 183.646 48.4071 184.688C48.294 185.071 47.846 184.973 47.8953 184.966ZM46.9062 193.285C46.7707 192.199 46.7111 191.055 46.7471 189.894C46.7639 189.348 47.5876 189.376 47.5707 189.92C47.4778 192.927 48.0504 193.558 47.366 193.642C47.1383 193.671 46.9342 193.51 46.9062 193.285Z" fill="#91B3FA"/>
<path d="M77.2856 171.645C75.9161 171.005 75.3605 171.009 75.5561 170.489C75.6362 170.276 75.8688 170.165 76.0868 170.247C76.6065 170.443 77.1271 170.662 77.6346 170.898C77.8407 170.995 77.9297 171.24 77.8334 171.447C77.7385 171.649 77.4964 171.743 77.2856 171.645Z" fill="#91B3FA"/>
<path d="M88.46 184.529C88.0218 183.076 87.6492 182.669 88.1684 182.467C88.3806 182.385 88.6195 182.49 88.7015 182.702C88.9033 183.219 89.087 183.754 89.2492 184.29C89.3147 184.508 89.1914 184.737 88.974 184.804C88.7567 184.869 88.5264 184.747 88.46 184.529" fill="#91B3FA"/>
<path d="M89.2314 192.879C89.5574 189.897 89.039 189.269 89.7265 189.238C89.9542 189.228 90.1465 189.404 90.1569 189.632C90.2069 190.745 90.1715 191.867 90.0508 192.969C90.0258 193.195 89.8231 193.359 89.5962 193.334C89.3711 193.308 89.2072 193.106 89.2314 192.879V192.879ZM86.8146 201.417C86.2159 201.078 86.9672 200.738 88.0195 197.946C88.2119 197.437 88.983 197.726 88.7906 198.237C88.399 199.275 87.9238 200.293 87.3761 201.261C87.264 201.459 87.0121 201.528 86.8146 201.417V201.417ZM81.084 207.76C80.6665 207.216 81.488 207.196 83.5512 205.039C83.9281 204.646 84.524 205.214 84.1469 205.608C83.3779 206.412 82.5418 207.162 81.6617 207.837C81.4814 207.975 81.2225 207.941 81.084 207.76ZM73.323 211.339C73.2672 211.118 73.4005 210.894 73.6213 210.838C76.5313 210.101 76.934 209.396 77.204 210.029C77.2932 210.237 77.1959 210.48 76.9866 210.569C75.9657 211.004 74.9016 211.364 73.8236 211.637C73.6029 211.693 73.3791 211.56 73.323 211.339ZM64.7769 211.585C64.8812 210.908 65.4728 211.488 68.4496 211.485C68.9931 211.484 68.9968 212.308 68.4503 212.309C67.3371 212.31 66.217 212.225 65.1211 212.055C64.8999 212.021 64.7416 211.812 64.7769 211.585Z" fill="#91B3FA"/>
<path d="M59.8955 210.553C59.383 210.332 58.873 210.089 58.3797 209.83C58.1784 209.725 58.1007 209.476 58.2064 209.274C58.4729 208.767 58.8997 209.227 60.2211 209.796C60.4301 209.885 60.5267 210.128 60.4369 210.337C60.3457 210.549 60.1006 210.641 59.8955 210.553" fill="#91B3FA"/>
<path d="M64.9556 200.104C64.5887 199.969 64.4575 199.602 64.5704 199.3C64.6901 198.98 65.0494 198.818 65.3659 198.938C65.9594 199.16 66.5821 199.32 67.217 199.413C67.3513 199.407 70.6563 200.123 73.876 197.734C80.2593 192.984 77.7034 182.813 69.8221 181.658C65.2877 180.993 61.0352 183.859 59.8619 188.176C58.6797 192.523 61.1341 194.27 59.8976 194.784C59.5825 194.915 59.2209 194.766 59.0896 194.45C58.3819 192.751 58.15 190.885 58.4187 189.053C59.2333 183.494 64.4236 179.617 70.0016 180.435C76.0037 181.315 79.9899 187.265 78.3665 193.234C77.0576 198.05 72.296 201.408 67.0374 200.636H67.0372C66.3256 200.532 65.625 200.353 64.9556 200.104" fill="#BDD0FB"/>
<defs>
<linearGradient id="paint0_linear" x1="294.21" y1="310.803" x2="117.615" y2="120.192" gradientUnits="userSpaceOnUse">
<stop stop-color="#DAE3FE"/>
<stop offset="1" stop-color="#E9EFFD"/>
</linearGradient>
<linearGradient id="paint1_linear" x1="264.513" y1="123.843" x2="143.503" y2="199.287" gradientUnits="userSpaceOnUse">
<stop stop-color="#DAE3FE"/>
<stop offset="1" stop-color="#E9EFFD"/>
</linearGradient>
<linearGradient id="paint2_linear" x1="88.9841" y1="168.989" x2="240.936" y2="165.66" gradientUnits="userSpaceOnUse">
<stop stop-color="#09005D"/>
<stop offset="1" stop-color="#1A0F91"/>
</linearGradient>
<linearGradient id="paint3_linear" x1="241.925" y1="39.0884" x2="58.6446" y2="327.576" gradientUnits="userSpaceOnUse">
<stop stop-color="#4F52FF"/>
<stop offset="1" stop-color="#4042E2"/>
</linearGradient>
<linearGradient id="paint4_linear" x1="106.52" y1="229.558" x2="316.64" y2="-81.0981" gradientUnits="userSpaceOnUse">
<stop stop-color="#FE7062"/>
<stop offset="1" stop-color="#FF928E"/>
</linearGradient>
<linearGradient id="paint5_linear" x1="153.739" y1="265.968" x2="179.175" y2="-46.2067" gradientUnits="userSpaceOnUse">
<stop stop-color="#FEBBBA"/>
<stop offset="1" stop-color="#FF928E"/>
</linearGradient>
<linearGradient id="paint6_linear" x1="81.5298" y1="219.223" x2="187.942" y2="85.6399" gradientUnits="userSpaceOnUse">
<stop stop-color="#FE7062"/>
<stop offset="1" stop-color="#FF928E"/>
</linearGradient>
<linearGradient id="paint7_linear" x1="81.7886" y1="193.152" x2="188.202" y2="59.5689" gradientUnits="userSpaceOnUse">
<stop stop-color="#FE7062"/>
<stop offset="1" stop-color="#FF928E"/>
</linearGradient>
<linearGradient id="paint8_linear" x1="81.5298" y1="271.369" x2="187.944" y2="137.786" gradientUnits="userSpaceOnUse">
<stop stop-color="#FE7062"/>
<stop offset="1" stop-color="#FF928E"/>
</linearGradient>
<linearGradient id="paint9_linear" x1="81.7886" y1="245.296" x2="188.202" y2="111.714" gradientUnits="userSpaceOnUse">
<stop stop-color="#FE7062"/>
<stop offset="1" stop-color="#FF928E"/>
</linearGradient>
<linearGradient id="paint10_linear" x1="81.7886" y1="167.079" x2="188.201" y2="33.4963" gradientUnits="userSpaceOnUse">
<stop stop-color="#FE7062"/>
<stop offset="1" stop-color="#FF928E"/>
</linearGradient>
</defs>
</svg>
