<?xml version="1.0" encoding="UTF-8" standalone="no"?>
<svg
   xmlns:dc="http://purl.org/dc/elements/1.1/"
   xmlns:cc="http://creativecommons.org/ns#"
   xmlns:rdf="http://www.w3.org/1999/02/22-rdf-syntax-ns#"
   xmlns:svg="http://www.w3.org/2000/svg"
   xmlns="http://www.w3.org/2000/svg"
   xmlns:sodipodi="http://sodipodi.sourceforge.net/DTD/sodipodi-0.dtd"
   xmlns:inkscape="http://www.inkscape.org/namespaces/inkscape"
   version="1.1"
   id="svg2"
   xml:space="preserve"
   width="4946.6665"
   height="4946.6665"
   viewBox="0 0 4946.6665 4946.6665"
   sodipodi:docname="settings.eps"><metadata
     id="metadata8"><rdf:RDF><cc:Work
         rdf:about=""><dc:format>image/svg+xml</dc:format><dc:type
           rdf:resource="http://purl.org/dc/dcmitype/StillImage" /></cc:Work></rdf:RDF></metadata><defs
     id="defs6"><clipPath
       clipPathUnits="userSpaceOnUse"
       id="clipPath22"><path
         d="M 31256.8,13659.7 C 28443.6,7084 21017.4,4259.6 15198.9,4741.1 13610.2,4872.6 10413.8,5137.2 7917.95,7497.4 3124.88,12030 3863.06,21504.6 8451.4,27082.6 c 590.89,718.4 4680.9,5531.2 11054.4,5466.8 4666.3,-47.2 7941.6,-2683.2 8339.9,-3011.5 503.1,-414.9 1612.7,-1400.7 2612.8,-2964.6 2349.8,-3674.6 2556.3,-8804.5 798.3,-12913.6 z"
         id="path20" /></clipPath><linearGradient
       x1="0"
       y1="0"
       x2="1"
       y2="0"
       gradientUnits="userSpaceOnUse"
       gradientTransform="matrix(-20474,22098.9,22098.9,20474,34110,1066.3)"
       spreadMethod="pad"
       id="linearGradient28"><stop
         style="stop-opacity:1;stop-color:#dae3fe"
         offset="0"
         id="stop24" /><stop
         style="stop-opacity:1;stop-color:#e9effd"
         offset="1"
         id="stop26" /></linearGradient><clipPath
       clipPathUnits="userSpaceOnUse"
       id="clipPath44"><path
         d="m 31127,23190.3 c -1042.6,64.2 -2206.1,-293.9 -2863.7,-1123.6 l -62.1,-79.2 c -143.9,-186 -989,-1526.5 -1498.5,-2657.6 -6.3,-14.1 -0.1,-30.6 14,-37 24,-10.8 39.2,15.2 36.6,13.1 339,633.6 814.2,1432.3 1188.5,2027.5 402.6,650.2 682.8,1089.7 1485.3,1455.4 891.5,390.9 1701,356.8 1698.5,356.5 12.4,0 22.5,10.1 22.5,22.5 0,11.9 -9.3,21.7 -21.1,22.4 z"
         id="path42" /></clipPath><linearGradient
       x1="0"
       y1="0"
       x2="1"
       y2="0"
       gradientUnits="userSpaceOnUse"
       gradientTransform="matrix(-14029.6,-8746.69,-8746.69,14029.6,30667,22741.9)"
       spreadMethod="pad"
       id="linearGradient50"><stop
         style="stop-opacity:1;stop-color:#dae3fe"
         offset="0"
         id="stop46" /><stop
         style="stop-opacity:1;stop-color:#e9effd"
         offset="1"
         id="stop48" /></linearGradient><clipPath
       clipPathUnits="userSpaceOnUse"
       id="clipPath60"><path
         d="m 11588.7,30644.7 c -683.2,-59.4 -1207,-631.6 -1209,-1317.3 -11.9,-4193.8 -31.5,-18659.2 241.9,-23779.1 28.9,-542.4 473.6,-968.5 1016.8,-974.4 2686.4,-28.9 10413.9,-82 14800.8,198.6 913.7,58.4 1624.8,815.2 1623.7,1730.8 -5.4,4401.5 -75.7,16780 -678.6,22438.1 -72.3,677.9 -617.2,1207.1 -1296.9,1260 -2930,228.3 -10710.6,772.8 -14498.7,443.3 z"
         id="path58" /></clipPath><linearGradient
       x1="0"
       y1="0"
       x2="1"
       y2="0"
       gradientUnits="userSpaceOnUse"
       gradientTransform="matrix(17617,385.89,385.89,-17617,10316.6,17507.9)"
       spreadMethod="pad"
       id="linearGradient66"><stop
         style="stop-opacity:1;stop-color:#09005d"
         offset="0"
         id="stop62" /><stop
         style="stop-opacity:1;stop-color:#1a0f91"
         offset="1"
         id="stop64" /></linearGradient><clipPath
       clipPathUnits="userSpaceOnUse"
       id="clipPath76"><path
         d="m 11458.1,28228.3 c -52.8,-3587.4 -203,-15521.1 59.3,-19925.6 38.3,-643.8 538.4,-1152.1 1155.8,-1173.6 2542.4,-88.6 9061.8,-260 12776.7,148.7 668.9,73.6 1180.1,653.4 1198,1355.5 92.9,3660.9 343.9,14775.8 89,19131.1 -40.6,694.8 -571.4,1249.2 -1236.8,1294 -2752.8,185.5 -9821.5,613.3 -12980.5,350.2 -593,-49.4 -1052.4,-559.2 -1061.5,-1180.3 z"
         id="path74" /></clipPath><linearGradient
       x1="0"
       y1="0"
       x2="1"
       y2="0"
       gradientUnits="userSpaceOnUse"
       gradientTransform="matrix(-21249.1,-33446.5,-33446.5,21249.1,28048.2,32568.2)"
       spreadMethod="pad"
       id="linearGradient82"><stop
         style="stop-opacity:1;stop-color:#4f52ff"
         offset="0"
         id="stop78" /><stop
         style="stop-opacity:1;stop-color:#4042e2"
         offset="1"
         id="stop80" /></linearGradient><clipPath
       clipPathUnits="userSpaceOnUse"
       id="clipPath94"><path
         d="M 25977.2,8251.5 H 11960.9 c -147.6,0 -267.3,119.7 -267.3,267.3 v 23549.6 c 0,70.4 57,127.4 127.4,127.4 h 14223.2 c 110.6,0 200.3,-89.7 200.3,-200.4 V 8518.8 c 0,-147.6 -119.7,-267.3 -267.3,-267.3 z"
         id="path92" /></clipPath><linearGradient
       x1="0"
       y1="0"
       x2="1"
       y2="0"
       gradientUnits="userSpaceOnUse"
       gradientTransform="matrix(24360.8,36016.7,36016.7,-24360.8,12349.7,10485.6)"
       spreadMethod="pad"
       id="linearGradient100"><stop
         style="stop-opacity:1;stop-color:#fe7062"
         offset="0"
         id="stop96" /><stop
         style="stop-opacity:1;stop-color:#ff928e"
         offset="1"
         id="stop98" /></linearGradient><clipPath
       clipPathUnits="userSpaceOnUse"
       id="clipPath110"><path
         d="M 25722.7,8692.4 H 12215.4 c -147.6,0 -267.3,119.7 -267.3,267.3 v 22719.5 c 0,66.3 53.7,120 119.9,120 h 13654.7 c 147.7,0 267.3,-119.7 267.3,-267.3 V 8959.7 c 0,-147.6 -119.6,-267.3 -267.3,-267.3 z"
         id="path108" /></clipPath><linearGradient
       x1="0"
       y1="0"
       x2="1"
       y2="0"
       gradientUnits="userSpaceOnUse"
       gradientTransform="matrix(2949.08,36192.8,36192.8,-2949.08,17824.1,6264.3)"
       spreadMethod="pad"
       id="linearGradient116"><stop
         style="stop-opacity:1;stop-color:#febbba"
         offset="0"
         id="stop112" /><stop
         style="stop-opacity:1;stop-color:#ff928e"
         offset="1"
         id="stop114" /></linearGradient><clipPath
       clipPathUnits="userSpaceOnUse"
       id="clipPath130"><path
         d="m 15413.5,16861.3 h -2018 c -32.7,0 -59.3,26.5 -59.3,59.3 v 1959.2 c 0,32.8 26.6,59.3 59.3,59.3 h 2018 c 32.7,0 59.3,-26.5 59.3,-59.3 v -1959.2 c 0,-32.8 -26.6,-59.3 -59.3,-59.3 z"
         id="path128" /></clipPath><linearGradient
       x1="0"
       y1="0"
       x2="1"
       y2="0"
       gradientUnits="userSpaceOnUse"
       gradientTransform="matrix(12337.2,15487.2,15487.2,-12337.2,9452.39,11683.8)"
       spreadMethod="pad"
       id="linearGradient136"><stop
         style="stop-opacity:1;stop-color:#fe7062"
         offset="0"
         id="stop132" /><stop
         style="stop-opacity:1;stop-color:#ff928e"
         offset="1"
         id="stop134" /></linearGradient><clipPath
       clipPathUnits="userSpaceOnUse"
       id="clipPath148"><path
         d="m 15443.4,19884.1 h -2017.9 c -32.8,0 -59.3,26.5 -59.3,59.3 v 1959.2 c 0,32.7 26.5,59.3 59.3,59.3 h 2017.9 c 32.8,0 59.3,-26.6 59.3,-59.3 v -1959.2 c 0,-32.8 -26.5,-59.3 -59.3,-59.3 z"
         id="path146" /></clipPath><linearGradient
       x1="0"
       y1="0"
       x2="1"
       y2="0"
       gradientUnits="userSpaceOnUse"
       gradientTransform="matrix(12337.2,15487.2,15487.2,-12337.2,9482.36,14706.5)"
       spreadMethod="pad"
       id="linearGradient154"><stop
         style="stop-opacity:1;stop-color:#fe7062"
         offset="0"
         id="stop150" /><stop
         style="stop-opacity:1;stop-color:#ff928e"
         offset="1"
         id="stop152" /></linearGradient><clipPath
       clipPathUnits="userSpaceOnUse"
       id="clipPath166"><path
         d="m 15413.5,10815.7 h -2018 c -32.7,0 -59.3,26.6 -59.3,59.4 v 1959.2 c 0,32.7 26.6,59.3 59.3,59.3 h 2018 c 32.7,0 59.3,-26.6 59.3,-59.3 v -1959.2 c 0,-32.8 -26.6,-59.4 -59.3,-59.4 z"
         id="path164" /></clipPath><linearGradient
       x1="0"
       y1="0"
       x2="1"
       y2="0"
       gradientUnits="userSpaceOnUse"
       gradientTransform="matrix(12337.2,15487.2,15487.2,-12337.2,9452.39,5638.2)"
       spreadMethod="pad"
       id="linearGradient172"><stop
         style="stop-opacity:1;stop-color:#fe7062"
         offset="0"
         id="stop168" /><stop
         style="stop-opacity:1;stop-color:#ff928e"
         offset="1"
         id="stop170" /></linearGradient><clipPath
       clipPathUnits="userSpaceOnUse"
       id="clipPath184"><path
         d="m 15443.4,13838.5 h -2017.9 c -32.8,0 -59.3,26.6 -59.3,59.3 V 15857 c 0,32.8 26.5,59.4 59.3,59.4 h 2017.9 c 32.8,0 59.3,-26.6 59.3,-59.4 v -1959.2 c 0,-32.7 -26.5,-59.3 -59.3,-59.3 z"
         id="path182" /></clipPath><linearGradient
       x1="0"
       y1="0"
       x2="1"
       y2="0"
       gradientUnits="userSpaceOnUse"
       gradientTransform="matrix(12337.2,15487.2,15487.2,-12337.2,9482.36,8661)"
       spreadMethod="pad"
       id="linearGradient190"><stop
         style="stop-opacity:1;stop-color:#fe7062"
         offset="0"
         id="stop186" /><stop
         style="stop-opacity:1;stop-color:#ff928e"
         offset="1"
         id="stop188" /></linearGradient><clipPath
       clipPathUnits="userSpaceOnUse"
       id="clipPath202"><path
         d="m 15443.4,22906.8 h -2017.9 c -32.8,0 -59.3,26.6 -59.3,59.3 v 1959.2 c 0,32.8 26.5,59.4 59.3,59.4 h 2017.9 c 32.8,0 59.3,-26.6 59.3,-59.4 v -1959.2 c 0,-32.7 -26.5,-59.3 -59.3,-59.3 z"
         id="path200" /></clipPath><linearGradient
       x1="0"
       y1="0"
       x2="1"
       y2="0"
       gradientUnits="userSpaceOnUse"
       gradientTransform="matrix(12337.2,15487.2,15487.2,-12337.2,9482.36,17729.3)"
       spreadMethod="pad"
       id="linearGradient208"><stop
         style="stop-opacity:1;stop-color:#fe7062"
         offset="0"
         id="stop204" /><stop
         style="stop-opacity:1;stop-color:#ff928e"
         offset="1"
         id="stop206" /></linearGradient></defs><sodipodi:namedview
     pagecolor="#ffffff"
     bordercolor="#666666"
     borderopacity="1"
     objecttolerance="10"
     gridtolerance="10"
     guidetolerance="10"
     inkscape:pageopacity="0"
     inkscape:pageshadow="2"
     inkscape:window-width="640"
     inkscape:window-height="480"
     id="namedview4" /><g
     id="g10"
     inkscape:groupmode="layer"
     inkscape:label="ink_ext_XXXXXX"
     transform="matrix(1.3333333,0,0,-1.3333333,0,4946.6667)"><g
       id="g12"
       transform="scale(0.1)"><path
         d="M 37100,0 H 0 V 37100 H 37100 V 0"
         style="fill:#ffffff;fill-opacity:1;fill-rule:nonzero;stroke:none"
         id="path14" /><g
         id="g16"><g
           id="g18"
           clip-path="url(#clipPath22)"><path
             d="M 31256.8,13659.7 C 28443.6,7084 21017.4,4259.6 15198.9,4741.1 13610.2,4872.6 10413.8,5137.2 7917.95,7497.4 3124.88,12030 3863.06,21504.6 8451.4,27082.6 c 590.89,718.4 4680.9,5531.2 11054.4,5466.8 4666.3,-47.2 7941.6,-2683.2 8339.9,-3011.5 503.1,-414.9 1612.7,-1400.7 2612.8,-2964.6 2349.8,-3674.6 2556.3,-8804.5 798.3,-12913.6"
             style="fill:url(#linearGradient28);fill-opacity:1;fill-rule:nonzero;stroke:none"
             id="path30" /></g></g><path
         d="m 26535.7,19363.3 c 0,0 202.8,2545.6 1442.9,3104 1240,558.4 3507.8,752.8 3969.1,4390.3 270.1,2129.6 419.7,3057.5 497.3,3460.8 30.2,157.3 -97.5,300 -257.2,286.8 -1129.3,-93.9 -4816.8,-579.8 -5825.8,-2957.6 -1196.2,-2819 173.7,-8284.3 173.7,-8284.3"
         style="fill:#91b3fa;fill-opacity:1;fill-rule:nonzero;stroke:none"
         id="path32" /><path
         d="m 31226,29679.5 c -1328.3,-958.4 -2933.3,-2731.9 -3881.6,-4573.4 -129,-306.3 -480.1,-949.8 -726.2,-2132.2 -212.4,-985.5 -267.4,-2044.3 -207.3,-2755.3 3.8,-44.9 43.3,-78.3 88.3,-74.5 77.2,6.6 75.6,89.1 74.7,86.6 -27.7,1206.9 188.7,2683 673.7,3984.9 612.7,1596.7 1764.6,3087 2925.3,4331.9 l 118.8,122.2 c 896.1,933.5 1063.3,923.7 996.7,1002.2 -15.7,18.5 -43,21.5 -62.4,7.6"
         style="fill:#bdd0fb;fill-opacity:1;fill-rule:nonzero;stroke:none"
         id="path34" /><path
         d="m 24150,14675.9 c -166.2,-61.1 1706,1850 2563.9,5067.4 404.3,1516.1 607.7,3447.1 1562.9,4100.4 795,543.7 3241.3,-105.2 4039.6,-338.2 99.8,-29.1 120.7,-161.1 34.7,-219.3 -424.2,-287.3 -1339.1,-973.7 -1637.3,-1730.2 -393.2,-997.1 -1437.1,-1549.1 -2329.4,-1635.2 -892.3,-86.2 -1396.2,-207.3 -1966.9,-1560.8 -570.6,-1353.6 -1795,-3510.2 -2267.5,-3684.1"
         style="fill:#bdd0fb;fill-opacity:1;fill-rule:nonzero;stroke:none"
         id="path36" /><g
         id="g38"><g
           id="g40"
           clip-path="url(#clipPath44)"><path
             d="m 31127,23190.3 c -1042.6,64.2 -2206.1,-293.9 -2863.7,-1123.6 l -62.1,-79.2 c -143.9,-186 -989,-1526.5 -1498.5,-2657.6 -6.3,-14.1 -0.1,-30.6 14,-37 24,-10.8 39.2,15.2 36.6,13.1 339,633.6 814.2,1432.3 1188.5,2027.5 402.6,650.2 682.8,1089.7 1485.3,1455.4 891.5,390.9 1701,356.8 1698.5,356.5 12.4,0 22.5,10.1 22.5,22.5 0,11.9 -9.3,21.7 -21.1,22.4"
             style="fill:url(#linearGradient50);fill-opacity:1;fill-rule:nonzero;stroke:none"
             id="path52" /></g></g><g
         id="g54"><g
           id="g56"
           clip-path="url(#clipPath60)"><path
             d="m 11588.7,30644.7 c -683.2,-59.4 -1207,-631.6 -1209,-1317.3 -11.9,-4193.8 -31.5,-18659.2 241.9,-23779.1 28.9,-542.4 473.6,-968.5 1016.8,-974.4 2686.4,-28.9 10413.9,-82 14800.8,198.6 913.7,58.4 1624.8,815.2 1623.7,1730.8 -5.4,4401.5 -75.7,16780 -678.6,22438.1 -72.3,677.9 -617.2,1207.1 -1296.9,1260 -2930,228.3 -10710.6,772.8 -14498.7,443.3"
             style="fill:url(#linearGradient66);fill-opacity:1;fill-rule:nonzero;stroke:none"
             id="path68" /></g></g><g
         id="g70"><g
           id="g72"
           clip-path="url(#clipPath76)"><path
             d="m 11458.1,28228.3 c -52.8,-3587.4 -203,-15521.1 59.3,-19925.6 38.3,-643.8 538.4,-1152.1 1155.8,-1173.6 2542.4,-88.6 9061.8,-260 12776.7,148.7 668.9,73.6 1180.1,653.4 1198,1355.5 92.9,3660.9 343.9,14775.8 89,19131.1 -40.6,694.8 -571.4,1249.2 -1236.8,1294 -2752.8,185.5 -9821.5,613.3 -12980.5,350.2 -593,-49.4 -1052.4,-559.2 -1061.5,-1180.3"
             style="fill:url(#linearGradient82);fill-opacity:1;fill-rule:nonzero;stroke:none"
             id="path84" /></g></g><path
         d="m 17600.7,30021 c 2.2,-99.1 81.2,-179.2 180.3,-182.2 489.2,-14.8 1867.3,-57 2483.2,-79.2 121.4,-4.4 214.3,106.7 188.6,225.5 -2.1,3.8 -17.9,156.1 -173.4,166.9 -416.7,28.9 -1673.7,107.1 -2504.4,59.1 -170.6,-9.8 -179.8,-203.8 -174.3,-190.1"
         style="fill:#1f5aa9;fill-opacity:1;fill-rule:nonzero;stroke:none"
         id="path86" /><g
         id="g88"><g
           id="g90"
           clip-path="url(#clipPath94)"><path
             d="M 25977.2,8251.5 H 11960.9 c -147.6,0 -267.3,119.7 -267.3,267.3 v 23549.6 c 0,70.4 57,127.4 127.4,127.4 h 14223.2 c 110.6,0 200.3,-89.7 200.3,-200.4 V 8518.8 c 0,-147.6 -119.7,-267.3 -267.3,-267.3"
             style="fill:url(#linearGradient100);fill-opacity:1;fill-rule:nonzero;stroke:none"
             id="path102" /></g></g><g
         id="g104"><g
           id="g106"
           clip-path="url(#clipPath110)"><path
             d="M 25722.7,8692.4 H 12215.4 c -147.6,0 -267.3,119.7 -267.3,267.3 v 22719.5 c 0,66.3 53.7,120 119.9,120 h 13654.7 c 147.7,0 267.3,-119.7 267.3,-267.3 V 8959.7 c 0,-147.6 -119.6,-267.3 -267.3,-267.3"
             style="fill:url(#linearGradient116);fill-opacity:1;fill-rule:nonzero;stroke:none"
             id="path118" /></g></g><path
         d="m 23317.5,27815.8 h -8497.2 c -32.8,0 -59.7,26.8 -59.7,59.6 v 2031 c 0,32.8 26.9,59.6 59.7,59.6 h 8497.2 c 32.8,0 59.7,-26.8 59.7,-59.6 v -2031 c 0,-32.8 -26.9,-59.6 -59.7,-59.6"
         style="fill:#ffffff;fill-opacity:1;fill-rule:nonzero;stroke:none"
         id="path120" /><path
         d="m 24482.2,17308.1 h -8194.1 c -30.6,0 -55.6,25 -55.6,55.6 v 1073 c 0,30.6 25,55.6 55.6,55.6 h 8194.1 c 30.6,0 55.6,-25 55.6,-55.6 v -1073 c 0,-30.6 -25,-55.6 -55.6,-55.6"
         style="fill:#ffffff;fill-opacity:1;fill-rule:nonzero;stroke:none"
         id="path122" /><g
         id="g124"><g
           id="g126"
           clip-path="url(#clipPath130)"><path
             d="m 15413.5,16861.3 h -2018 c -32.7,0 -59.3,26.5 -59.3,59.3 v 1959.2 c 0,32.8 26.6,59.3 59.3,59.3 h 2018 c 32.7,0 59.3,-26.5 59.3,-59.3 v -1959.2 c 0,-32.8 -26.6,-59.3 -59.3,-59.3"
             style="fill:url(#linearGradient136);fill-opacity:1;fill-rule:nonzero;stroke:none"
             id="path138" /></g></g><path
         d="m 24512.2,20330.8 h -8194.1 c -30.6,0 -55.6,25.1 -55.6,55.6 v 1073.1 c 0,30.6 25,55.6 55.6,55.6 h 8194.1 c 30.6,0 55.6,-25 55.6,-55.6 v -1073.1 c 0,-30.5 -25,-55.6 -55.6,-55.6"
         style="fill:#ffffff;fill-opacity:1;fill-rule:nonzero;stroke:none"
         id="path140" /><g
         id="g142"><g
           id="g144"
           clip-path="url(#clipPath148)"><path
             d="m 15443.4,19884.1 h -2017.9 c -32.8,0 -59.3,26.5 -59.3,59.3 v 1959.2 c 0,32.7 26.5,59.3 59.3,59.3 h 2017.9 c 32.8,0 59.3,-26.6 59.3,-59.3 v -1959.2 c 0,-32.8 -26.5,-59.3 -59.3,-59.3"
             style="fill:url(#linearGradient154);fill-opacity:1;fill-rule:nonzero;stroke:none"
             id="path156" /></g></g><path
         d="m 24482.2,11262.5 h -8194.1 c -30.6,0 -55.6,25 -55.6,55.6 v 1073.1 c 0,30.6 25,55.6 55.6,55.6 h 8194.1 c 30.6,0 55.6,-25 55.6,-55.6 v -1073.1 c 0,-30.6 -25,-55.6 -55.6,-55.6"
         style="fill:#ffffff;fill-opacity:1;fill-rule:nonzero;stroke:none"
         id="path158" /><g
         id="g160"><g
           id="g162"
           clip-path="url(#clipPath166)"><path
             d="m 15413.5,10815.7 h -2018 c -32.7,0 -59.3,26.6 -59.3,59.4 v 1959.2 c 0,32.7 26.6,59.3 59.3,59.3 h 2018 c 32.7,0 59.3,-26.6 59.3,-59.3 v -1959.2 c 0,-32.8 -26.6,-59.4 -59.3,-59.4"
             style="fill:url(#linearGradient172);fill-opacity:1;fill-rule:nonzero;stroke:none"
             id="path174" /></g></g><path
         d="m 24512.2,14285.3 h -8194.1 c -30.6,0 -55.6,25 -55.6,55.6 V 15414 c 0,30.6 25,55.6 55.6,55.6 h 8194.1 c 30.6,0 55.6,-25 55.6,-55.6 v -1073.1 c 0,-30.6 -25,-55.6 -55.6,-55.6"
         style="fill:#ffffff;fill-opacity:1;fill-rule:nonzero;stroke:none"
         id="path176" /><g
         id="g178"><g
           id="g180"
           clip-path="url(#clipPath184)"><path
             d="m 15443.4,13838.5 h -2017.9 c -32.8,0 -59.3,26.6 -59.3,59.3 V 15857 c 0,32.8 26.5,59.4 59.3,59.4 h 2017.9 c 32.8,0 59.3,-26.6 59.3,-59.4 v -1959.2 c 0,-32.7 -26.5,-59.3 -59.3,-59.3"
             style="fill:url(#linearGradient190);fill-opacity:1;fill-rule:nonzero;stroke:none"
             id="path192" /></g></g><path
         d="m 24512.2,23353.6 h -8194.1 c -30.6,0 -55.6,25 -55.6,55.6 v 1073.1 c 0,30.6 25,55.6 55.6,55.6 h 8194.1 c 30.6,0 55.6,-25 55.6,-55.6 v -1073.1 c 0,-30.6 -25,-55.6 -55.6,-55.6"
         style="fill:#ffffff;fill-opacity:1;fill-rule:nonzero;stroke:none"
         id="path194" /><g
         id="g196"><g
           id="g198"
           clip-path="url(#clipPath202)"><path
             d="m 15443.4,22906.8 h -2017.9 c -32.8,0 -59.3,26.6 -59.3,59.3 v 1959.2 c 0,32.8 26.5,59.4 59.3,59.4 h 2017.9 c 32.8,0 59.3,-26.6 59.3,-59.4 v -1959.2 c 0,-32.7 -26.5,-59.3 -59.3,-59.3"
             style="fill:url(#linearGradient208);fill-opacity:1;fill-rule:nonzero;stroke:none"
             id="path210" /></g></g><path
         d="m 6565.6,8458.2 c -16.25,4.4 -29.31,17.7 -32.29,35.1 -9.83,57.2 -18.62,115.6 -26.12,173.6 -3.08,23.8 14.07,45.3 38.32,48.1 58.76,6.9 48.45,-53.3 75.08,-208.3 4.08,-23.7 -12.17,-45.9 -36.27,-49.6 -6.44,-1 -12.79,-0.6 -18.72,1.1"
         style="fill:#91b3fa;fill-opacity:1;fill-rule:nonzero;stroke:none"
         id="path212" /><path
         d="m 12350.3,13105.2 c -312.1,115.6 -368.7,95.2 -350.6,158.5 11.6,40.2 59.9,30.2 54.6,29.5 109.9,-31.4 219.8,-67.4 326.4,-106.8 23,-8.5 34.8,-33.6 26.4,-56 -8.1,-21.4 -32.4,-33.9 -56.8,-25.2 z m -1228.7,308.8 c 1.7,23.9 22.9,41.7 47.2,39.7 113.5,-9.1 228.1,-22.7 340.8,-40.4 57.9,-9.1 44.8,-94.8 -13,-85.7 -110.5,17.4 -222.8,30.7 -334,39.6 -24.6,2.1 -42.7,23.2 -41,46.8 z m 2020.2,-696.3 c -282.8,175.9 -341.8,167 -310.9,225 11.3,21.2 38,29.1 59.7,17.9 101,-52.5 201.3,-109.7 298,-169.8 49.6,-30.9 3,-104.1 -46.8,-73.1 z m -2908.9,669.1 c -3.3,23.8 13.6,45.5 37.8,48.4 112.7,13.8 227.5,23.4 341.3,28.5 58.6,2.5 63.3,-84.1 5,-86.7 -111.4,-5 -223.9,-14.4 -334.3,-27.9 -24.1,-3 -46.5,13.9 -49.8,37.7 z m -831.67,-232.9 c -13.64,3.7 -25.3,13.7 -30.39,27.7 -8.18,22.7 3.87,47.4 26.88,55.1 107.2,36.2 217.26,68.6 327.13,96.4 23.58,6.1 47.9,-7.9 54.25,-31.2 6.36,-23.2 -7.61,-46.8 -31.21,-52.8 -107.64,-27.3 -215.48,-59 -320.51,-94.5 -8.74,-2.9 -17.82,-3 -26.15,-0.7 z m -803.2,-365.4 c -10.67,2.9 -20.28,9.7 -26.45,19.7 -12.69,20.6 -6.06,47.3 14.85,59.5 97.4,56.9 198.21,110.6 299.66,159.8 21.83,10.6 48.42,1.7 59.47,-19.8 11.02,-21.5 2.29,-47.5 -19.52,-58.1 -99.42,-48.2 -198.21,-100.9 -293.67,-156.6 -10.72,-6.3 -23.11,-7.5 -34.34,-4.5 z m -730.45,-505.7 c -16.66,17.8 -15.67,45.2 2.23,61.3 83.37,75.2 170.79,148 259.85,216.5 45.87,35 100.93,-33.4 55.1,-68.6 -87.27,-67.1 -172.94,-138.4 -254.63,-212.1 -17.86,-16.1 -45.88,-14.8 -62.55,2.9 z m -579.04,-655.9 c -19.96,14 -24.69,41.2 -10.56,60.6 65.75,90.3 136.06,179.2 208.98,264.3 37.5,43.7 105.49,-12.6 68.04,-56.3 -71.44,-83.3 -140.35,-170.5 -204.79,-259 -14.11,-19.4 -41.77,-23.7 -61.67,-9.6 z m -451.49,-702.4 c 45.29,101.8 95.32,203.1 148.71,301.1 27.56,50.5 105.57,8.7 78.18,-41.5 -52.3,-96.1 -101.33,-195.4 -145.69,-295.1 -23.35,-52.5 -104.49,-16.8 -81.2,35.5 z m -271.41,-836.8 c 23.33,109.6 51.46,220.4 82.72,325.3 16.72,56.4 101.1,28.9 84.98,-25.2 -31.07,-104.6 -58.21,-211.5 -81.04,-318.8 -4.97,-23.4 -28.41,-38.2 -52.34,-33 -24.19,5.2 -39.24,28.5 -34.32,51.7 z m -93.11,-875.4 c 0.16,111.7 4.87,224.6 13.97,335.8 1.96,23.9 23.29,41.5 47.66,39.3 66.38,-6.4 27.41,-47.2 26.88,-376.2 -0.04,-24 -19.87,-43.1 -44.32,-42.8 -24.78,0.3 -44.24,20.3 -44.19,43.9"
         style="fill:#91b3fa;fill-opacity:1;fill-rule:nonzero;stroke:none"
         id="path214" /><path
         d="m 13721,12286.8 c -111.4,98.2 -177.6,128.8 -139.6,174 15.5,18.3 43.4,20.9 62.3,5.4 119.3,-97 178.1,-134.6 139.8,-176.5 -11.5,-12.6 -44.3,-19 -62.5,-2.9"
         style="fill:#91b3fa;fill-opacity:1;fill-rule:nonzero;stroke:none"
         id="path216" /><path
         d="m 15200.2,9247.4 c -18.2,5 -32,21.1 -32.8,40.6 -2.4,57.1 -6,114.8 -10.7,171.5 -2,23.9 16.1,44.6 40.4,46.3 24.4,1.6 45.8,-16.3 47.8,-40.2 4.8,-57.9 8.5,-116.8 10.9,-175.1 1,-23.9 -17.9,-43.9 -42.4,-44.6 -4.5,-0.2 -9,0.4 -13.2,1.5"
         style="fill:#91b3fa;fill-opacity:1;fill-rule:nonzero;stroke:none"
         id="path218" /><path
         d="m 15133.7,8311.6 c -22.1,6 -36.3,27.6 -32.2,50 21.5,116.1 38.2,234.2 49.6,350.7 2.4,23.8 24,41.1 48.4,38.5 24.4,-2.7 42.1,-24 39.8,-47.8 -11.7,-118.9 -28.8,-239.3 -50.7,-357.9 -4.3,-23.5 -27.3,-38.9 -51.4,-34.3 -1.2,0.2 -2.4,0.4 -3.5,0.8 z m -277.9,-894.9 c -63.4,26.8 -8.7,53.8 102.5,387.9 18,54.1 102.3,26.7 84.1,-27.8 -37.9,-114 -81.2,-227.6 -128.7,-337.6 -9.6,-22.3 -36,-32 -57.9,-22.5 z m -476,-809.7 c -55.9,39.8 4,54.6 187.6,355.3 29.8,49 106,3.9 76,-45.2 -62.6,-102.6 -130.5,-203.8 -201.8,-300.8 -14.2,-19.2 -41.8,-23.6 -61.8,-9.3 z m -625.3,-698.4 c -8.1,2.2 -15.6,6.7 -21.6,13.3 -16.3,18.1 -14.7,45.5 3.5,61.2 89.6,77.4 176.9,159.6 259.4,244.2 16.8,17.2 44.8,17.7 62.6,1 17.8,-16.7 18.5,-44.1 1.7,-61.3 -84.2,-86.4 -173.3,-170.3 -264.7,-249.3 -11.6,-9.9 -27,-12.8 -40.9,-9.1 z M 12975,5372.4 c -11.2,3 -21.2,10.3 -27.3,21.1 -11.9,21 -4.2,47.4 17.1,58.8 104.8,56.3 208.4,117.6 308,182.4 20.3,13.1 47.8,7.6 61.5,-12.5 13.6,-20 8.3,-46.9 -12,-60.1 -101.6,-66 -207.4,-128.6 -314.3,-186 -10.5,-5.6 -22.3,-6.6 -33,-3.7 z M 12093.4,5017 c -14.4,3.9 -26.6,14.9 -31.1,30 -7,23 6.3,47 29.8,53.6 114.9,32.2 229.9,69.8 341.8,111.5 22.8,8.5 48.5,-2.8 57.4,-25.2 8.9,-22.4 -2.3,-47.4 -25,-55.9 -114.2,-42.6 -231.6,-80.9 -349,-113.9 -8.1,-2.3 -16.3,-2.1 -23.9,-0.1 z m -941.7,-156.1 c -17.8,4.8 -31.5,20.3 -32.8,39.4 -1.7,23.9 16.8,44.4 41.2,45.7 120,6.7 240.9,18.4 359.3,34.9 24.3,3.4 46.8,-13.1 50.5,-36.9 3.7,-23.7 -12.8,-45.7 -37,-49 -120.9,-16.9 -244.4,-28.8 -366.8,-35.6 -5,-0.3 -9.9,0.2 -14.4,1.5 z m -2428.65,563.2 c -106.92,59.8 -212.72,124.8 -314.43,193.3 -20.25,13.6 -25.59,40.6 -11.91,60.4 38.56,55.5 56.04,-3.2 369.51,-178.4 21.34,-12 28.98,-38.5 17.07,-59.3 -11.94,-20.8 -38.88,-27.9 -60.24,-16 z M 10162.9,4961 c 10.5,66.5 53.7,20.6 409.8,-7.7 24.5,-1.8 42.8,-22.9 41.1,-46.8 -1.7,-23.8 -22.8,-41.6 -47.2,-39.7 -121.8,9.7 -245.2,24.6 -366.7,44.3 -24.3,4 -40.7,26.4 -37,49.9 z m -548.07,85.1 c -117.64,35.5 -235.17,76.2 -349.31,121.2 -22.78,8.9 -34.05,34.2 -25.15,56.4 25.05,62.6 55.35,9.1 399.56,-94.7 23.45,-7 36.83,-31.3 29.88,-54.2 -12.11,-40 -60.25,-29.4 -54.98,-28.7"
         style="fill:#91b3fa;fill-opacity:1;fill-rule:nonzero;stroke:none"
         id="path220" /><path
         d="m 7933.7,5986.3 c -114.84,102.4 -171.64,142.5 -131.35,182.5 41.91,41.8 72.92,-13.7 190.48,-118.6 18.2,-16.2 19.68,-43.7 3.36,-61.3 -16.33,-17.6 -44.31,-18.8 -62.49,-2.6"
         style="fill:#91b3fa;fill-opacity:1;fill-rule:nonzero;stroke:none"
         id="path222" /><path
         d="m 8309.91,7125.8 617.89,137.4 c 212.01,-205.8 458.64,-380.4 733.62,-513.5 82.24,-600.6 45.43,-648.6 111.94,-663.9 l 743.74,-170.9 c 21.7,-5 44.1,4 55.8,22.5 l 332.5,526.3 c 305.3,-0.2 602.9,49.2 883,142 l 496.9,-393.7 c 17.4,-13.8 41.7,-15.3 60.5,-3.9 l 643,393.4 c 18.8,11.5 28,33.5 22.8,54.8 l -147.3,607.4 c 207.5,205.5 382.6,445.4 515.3,713.4 l 630.7,62.9 c 22.2,2.2 40.3,17.9 45.1,39.2 l 165.7,727.2 c 4.9,21.3 -4.6,43.4 -23.6,55 l -540.7,332.2 c -3.3,299.3 -57.2,591.7 -155,867.4 376.5,479.5 435.3,485.5 399,541.9 -411.8,615.9 -397.1,673.1 -464.8,658.1 l -617.9,-137.4 c -212,205.8 -458.6,380.4 -733.6,513.5 -82.2,600.3 -45.4,648.5 -112,663.9 -741.8,157.1 -763.7,205 -799.5,148.4 l -332.5,-526.4 c -305.3,0.3 -602.9,-49.1 -883.01,-141.9 -487.41,370.2 -499.37,433 -557.36,397.5 -629.48,-400.4 -681.74,-382.5 -665.84,-448.1 l 147.32,-607.5 c -207.49,-205.5 -382.66,-445.3 -515.27,-713.4 -600.92,-72.3 -660.74,-35.6 -675.85,-102 -151.04,-722.4 -200.63,-746.3 -142.15,-782.2 l 540.74,-332.2 c 3.31,-299.3 57.17,-591.8 155,-867.4 -375.22,-477.9 -435.45,-485.2 -399,-542 411.77,-615.9 397.16,-673.1 464.83,-658"
         style="fill:#91b3fa;fill-opacity:1;fill-rule:nonzero;stroke:none"
         id="path224" /><path
         d="m 10855.9,9791.5 c -332.4,-5.3 -602.5,-273.1 -592.9,-607.9 9.4,-329.9 290.7,-593.9 627,-588.4 336.3,5.4 602.3,278.2 592.9,608 -9.4,330.3 -291.3,593.8 -627,588.3 z m 36,-1261.4 0.4,-0.1 z m -761.6,651.3 c -11.5,401.6 312.4,733.7 721.9,740.3 409.4,6.5 751.9,-314.8 763.4,-716.4 11.4,-401.6 -312.4,-733.6 -721.9,-740.3 v 0 c -409.6,-6.6 -751.9,314.9 -763.4,716.4"
         style="fill:#bdd0fb;fill-opacity:1;fill-rule:nonzero;stroke:none"
         id="path226" /><path
         d="m 10395.8,7403.7 v 0 c -106.1,28.8 -209.6,66.5 -308.6,112.3 -29.8,13.8 -44.6,46.2 -36.5,76.1 1,3.6 2.3,7.1 3.9,10.6 15.4,32.5 54.9,46.3 88.1,30.9 113.9,-52.7 234.2,-93.7 357.7,-122.2 v 0 c 930,-213.8 1855.3,332.8 2097.9,1224.8 6.2,22.8 12,45.8 17.3,69.1 213.8,938.3 -392.1,1869.8 -1344.3,2089 -950.8,218.6 -1901.44,-358.1 -2115.17,-1293.9 -126.92,-557.1 64.03,-904.4 48.37,-962 -16.93,-62.2 -106.48,-63.7 -127.18,-2.4 -113.1,335 -130.7,706.3 -32.25,1068.4 424.92,1562.4 2561.73,1860.1 3448.53,481.9 272.9,-424.2 362.2,-925.2 251.5,-1410.8 -5.7,-25.2 -11.9,-50.1 -18.6,-74.9 -123.2,-453 -411.7,-836.5 -818.9,-1085.6 -429.5,-262.7 -939.5,-344.5 -1436.1,-230.3 -25.4,5.8 -50.6,12.2 -75.7,19"
         style="fill:#bdd0fb;fill-opacity:1;fill-rule:nonzero;stroke:none"
         id="path228" /><path
         d="m 6851.95,13715.7 c 137.1,-115.7 293.66,-210.4 465.4,-278.2 l 71.15,-377.3 c 7.87,-41.8 41.07,-19.5 482.37,-92.2 40.71,-6 30.39,29.4 209.13,357.6 183.98,15.6 361.12,61.3 525.69,132.8 l 317.29,-216.6 c 35.27,-24.1 42.89,15.2 406.34,275.8 10.81,8.1 15.31,22.1 11.24,34.9 l -116.35,366.1 c 115.72,137.1 210.41,293.7 278.17,465.4 359.12,75.5 396.57,56.1 402.67,97.6 58.3,452.6 87.01,469.5 50.17,488.6 l -340.94,176.5 c -15.57,184 -61.29,361.1 -132.76,525.7 l 216.61,317.3 c 24.03,35.1 -15.18,42.8 -275.84,406.3 -24.42,32.9 -40.7,1.2 -401.01,-105.1 -137.11,115.7 -293.65,210.4 -465.4,278.2 l -71.15,377.2 c -7.9,42 -41.08,19.6 -482.38,92.3 -40.49,6 -29.48,-27.7 -209.12,-357.6 -183.98,-15.6 -361.14,-61.3 -525.7,-132.8 l -317.28,216.6 c -11.11,7.6 -25.84,7.3 -36.64,-0.7 L 6543.92,16489 c -10.81,-8.1 -15.33,-22.1 -11.25,-34.9 l 116.34,-366.1 c -115.72,-137.2 -210.4,-293.7 -278.17,-465.4 -359.12,-75.6 -396.61,-56.2 -402.65,-97.6 -58.29,-452.5 -87.03,-469.5 -50.18,-488.6 l 340.94,-176.5 c 15.58,-184 61.29,-361.1 132.75,-525.7 -200.55,-307.3 -240.96,-320.2 -215.87,-353.9 l 275.1,-369.7 c 24.59,-33.1 42.54,-0.6 401.02,105.1"
         style="fill:#91b3fa;fill-opacity:1;fill-rule:nonzero;stroke:none"
         id="path230" /><path
         d="m 7600.82,14969.1 c 18.93,-185.2 184.96,-320.4 370,-301.6 v 0 c 297.32,30.3 411.51,407.9 179.03,597.4 -231.46,188.6 -579.53,3.4 -549.03,-295.8 z m 377.28,-372.9 0.45,-0.1 z m -519.85,358.3 c -26.92,264.4 165.17,500.2 429.62,527.1 264.3,27 500.16,-165.1 527.1,-429.5 26.88,-263.8 -165.82,-500.3 -429.59,-527.2 v 0 c -263.78,-26.8 -500.21,165.8 -527.13,429.6"
         style="fill:#bdd0fb;fill-opacity:1;fill-rule:nonzero;stroke:none"
         id="path232" /><path
         d="m 5675.55,13894.4 c -28.46,57.9 -55,117.8 -78.91,178 -9.74,24.5 2.23,52.3 26.75,62 61.7,24.6 64.59,-48.5 137.91,-197.9 11.64,-23.7 1.85,-52.3 -21.83,-64 -23.57,-11.5 -52.24,-1.9 -63.92,21.9"
         style="fill:#91b3fa;fill-opacity:1;fill-rule:nonzero;stroke:none"
         id="path234" /><path
         d="m 7758.7,17468.1 c -1.4,26.3 18.8,48.9 45.14,50.3 131.19,7 263.56,3.8 393.47,-9.6 62.68,-6.1 53.26,-101.5 -9.79,-95 -124.95,12.9 -252.32,15.9 -378.54,9.1 -27,-1.3 -48.87,19.4 -50.28,45.2 z M 6819.77,17168 c -12.67,3.4 -23.88,12.1 -30.2,24.7 -11.81,23.6 -2.24,52.3 21.36,64.1 117.12,58.6 239.85,108.3 364.79,147.7 25.19,8 52,-6 59.95,-31.2 7.93,-25.1 -6.01,-51.9 -31.18,-59.9 -120.16,-37.9 -238.21,-85.7 -350.85,-142 -10.91,-5.5 -22.95,-6.4 -33.87,-3.4 z m -789.93,-624.9 c -6.46,1.7 -12.64,4.8 -18.1,9.4 -20.24,16.9 -22.91,47.1 -5.99,67.3 84.08,100.5 176.68,195.1 275.22,281.2 19.84,17.4 50.09,15.3 67.4,-4.5 17.37,-19.8 15.35,-50 -4.53,-67.4 -94.81,-82.9 -183.89,-173.9 -264.79,-270.6 -12.38,-14.8 -31.77,-20.2 -49.21,-15.4 z m -476.95,-887.6 c -25.31,7.4 -39.78,34 -32.34,59.3 37.01,125.5 84.28,249.3 140.56,367.7 27.16,57 113.43,16.1 86.32,-41 -54.14,-114 -99.64,-232.9 -135.21,-353.7 -13.11,-44.4 -65.05,-33.1 -59.33,-32.3 z m -114.67,-964.4 c -15.71,125.8 -22.62,258.5 -18.45,393.1 1.95,63.3 97.44,60 95.49,-3 -10.78,-348.7 55.61,-421.8 -23.74,-431.6 -26.4,-3.3 -50.06,15.4 -53.3,41.5"
         style="fill:#91b3fa;fill-opacity:1;fill-rule:nonzero;stroke:none"
         id="path236" /><path
         d="m 8960.3,17199.9 c -158.78,74.2 -223.19,73.8 -200.51,134.1 9.28,24.7 36.25,37.5 61.52,28 60.26,-22.7 120.62,-48.1 179.45,-75.5 23.9,-11.2 34.22,-39.6 23.05,-63.6 -11,-23.5 -39.07,-34.3 -63.51,-23"
         style="fill:#91b3fa;fill-opacity:1;fill-rule:nonzero;stroke:none"
         id="path238" /><path
         d="m 10255.8,15706.2 c -50.8,168.4 -94,215.6 -33.8,239 24.6,9.6 52.3,-2.6 61.8,-27.2 23.4,-60 44.7,-122 63.5,-184.1 7.6,-25.3 -6.7,-51.9 -31.9,-59.6 -25.2,-7.6 -51.9,6.6 -59.6,31.9"
         style="fill:#91b3fa;fill-opacity:1;fill-rule:nonzero;stroke:none"
         id="path240" /><path
         d="m 10345.3,14738.1 c 37.8,345.7 -22.3,418.5 57.4,422.1 26.4,1.2 48.7,-19.2 49.9,-45.6 5.8,-129.1 1.7,-259.2 -12.3,-386.9 -2.9,-26.2 -26.4,-45.2 -52.7,-42.3 -26.1,2.9 -45.1,26.4 -42.3,52.7 z m -280.2,-989.9 c -69.41,39.3 17.7,78.7 139.7,402.4 22.3,59 111.7,25.5 89.4,-33.7 -45.4,-120.4 -100.5,-238.4 -164,-350.6 -13,-23 -42.2,-31 -65.1,-18.1 z m -664.39,-735.4 c -48.4,63.1 46.84,65.4 286.04,315.5 43.7,45.6 112.78,-20.3 69.06,-66 -89.15,-93.2 -186.09,-180.2 -288.12,-258.4 -20.91,-16 -50.92,-12.1 -66.98,8.9 z m -899.8,-414.9 c -6.46,25.6 8.99,51.6 34.59,58 337.38,85.5 384.07,167.2 415.37,93.9 10.34,-24.2 -0.94,-52.3 -25.2,-62.7 -118.37,-50.4 -241.74,-92.1 -366.72,-123.8 -25.59,-6.5 -51.53,9 -58.04,34.6 z m -990.81,-28.5 c 12.09,78.4 80.68,11.2 425.8,11.5 63.02,0.2 63.45,-95.4 0.08,-95.5 -129.06,-0.1 -258.92,9.8 -385.98,29.5 -25.64,3.9 -44,28.1 -39.9,54.5"
         style="fill:#91b3fa;fill-opacity:1;fill-rule:nonzero;stroke:none"
         id="path242" /><path
         d="m 6944.14,12689 c -59.42,25.6 -118.55,53.8 -175.74,83.8 -23.34,12.2 -32.35,41.1 -20.09,64.5 30.89,58.8 80.37,5.4 233.58,-60.5 24.23,-10.4 35.43,-38.5 25.02,-62.7 -10.58,-24.6 -38.99,-35.3 -62.77,-25.1"
         style="fill:#91b3fa;fill-opacity:1;fill-rule:nonzero;stroke:none"
         id="path244" /><path
         d="m 7530.78,13900.4 c -42.54,15.7 -57.75,58.2 -44.66,93.2 13.88,37.1 55.54,55.9 92.23,42 68.81,-25.7 141,-44.3 214.61,-55.1 15.57,0.7 398.74,-82.3 772.03,194.7 740.06,550.7 443.74,1729.9 -470,1863.8 -525.71,77.1 -1018.73,-255.2 -1154.76,-755.7 -137.06,-504 147.49,-706.5 4.14,-766.1 -36.53,-15.2 -78.46,2.1 -93.68,38.7 -82.05,197 -108.93,413.4 -77.78,625.7 94.44,644.6 696.19,1094.1 1342.89,999.2 695.87,-102 1158.02,-791.8 969.81,-1483.9 -151.75,-558.3 -703.8,-947.7 -1313.47,-858.2 h -0.02 c -82.5,12.1 -163.73,32.9 -241.34,61.7"
         style="fill:#bdd0fb;fill-opacity:1;fill-rule:nonzero;stroke:none"
         id="path246" /></g></g></svg>
