<svg width="130" height="132" viewBox="0 0 130 132" fill="none" xmlns="http://www.w3.org/2000/svg">
<path d="M130 65.0005C130 100.9 100.898 130.002 65.0017 130.002C29.101 130.002 0 100.9 0 65.0005C0 29.1021 29.101 0 65.0017 0C100.898 0 130 29.1021 130 65.0005Z" fill="#82A738"/>
<path d="M92.7983 40.4352C89.3449 41.5871 93.2018 55.3201 97.1748 49.805C97.4335 51.8346 96.4529 53.9482 94.2023 53.841C93.6606 56.1602 97.0919 55.7202 97.1615 58.4374C97.2301 61.1193 94.7163 60.8805 94.7075 63.3435C94.6997 65.6837 97.2688 67.144 99.3437 66.4111C101.876 65.5146 102.07 63.3246 102.616 61.3967C103.81 63.423 104.158 66.1723 102.921 68.2063C104.521 68.4031 105.349 66.9649 105.404 65.5488C106.259 66.9085 105.932 68.8652 105.104 70.1176C105.721 69.9828 106.581 70.3067 107.21 70.205C107.616 72.5861 105.593 75.2536 103.714 76.642C101.683 78.1432 97.6137 77.8094 100.972 80.5962C103.446 82.6502 105.534 81.4695 105.615 85.437C105.674 88.2802 104.317 90.9344 101.299 90.8449C101.269 90.6459 101.195 90.4723 101.096 90.3662C103.296 92.8922 102.686 97.0487 100.414 99.2496C100.875 97.765 101.114 95.6558 99.6687 94.7383C99.8677 95.8868 99.7085 97.0741 98.5699 97.4853C99.0331 102.816 89.0111 103.092 85.4338 103.438C82.7144 103.698 80.2106 104.82 77.5243 105.086C74.9939 105.34 72.2071 104.895 69.6557 104.758C69.4114 93.7235 63.5326 83.7324 59.585 73.6308C57.8042 69.0686 60.4296 66.3348 63.6774 62.7863C68.3502 57.6758 73.443 53.2462 77.5243 47.7986L92.7983 40.4352Z" fill="#281619"/>
<path d="M35.7944 40.4352C39.2467 41.5871 35.3909 55.3201 31.4179 49.805C31.1592 51.8346 32.1376 53.9482 34.3883 53.841C34.9322 56.1602 31.4997 55.7202 31.4312 58.4374C31.3616 61.1193 33.8753 60.8805 33.8842 63.3435C33.8908 65.6837 31.3218 67.144 29.249 66.4111C26.7153 65.5146 26.5208 63.3246 25.9736 61.3967C24.7819 63.423 24.4326 66.1723 25.6685 68.2063C24.0711 68.4031 23.2431 66.9649 23.1867 65.5488C22.3322 66.9085 22.6594 68.8652 23.4852 70.1176C22.8695 69.9828 22.0105 70.3067 21.3815 70.205C20.9769 72.5861 22.9999 75.2536 24.8781 76.642C26.911 78.1432 30.978 77.8094 27.6196 80.5962C25.1467 82.6502 23.0563 81.4695 22.9745 85.437C22.9159 88.2802 24.2734 90.9344 27.2913 90.8449C27.3244 90.6459 27.3952 90.4723 27.4958 90.3662C25.2948 92.8922 25.9061 97.0487 28.1778 99.2496C27.7169 97.765 27.4759 95.6558 28.9207 94.7383C28.725 95.8868 28.882 97.0741 30.0206 97.4853C29.5586 102.816 39.5806 103.092 43.1578 103.438C45.8772 103.698 48.3822 104.82 51.0684 105.086C53.5988 105.34 56.3834 104.895 58.9337 104.758C59.1802 93.7235 65.059 83.7324 69.0066 73.6308C70.7875 69.0686 68.1609 66.3348 64.9153 62.7863C60.2404 57.6758 55.1475 53.2462 51.0684 47.7986L35.7944 40.4352Z" fill="#281619"/>
<path d="M100.258 103.004C96.1731 97.9109 63.842 86.7282 63.842 86.7282C63.842 86.7282 32.1863 99.0949 27.424 103.004C22.6562 106.912 20.8708 131.607 20.8708 131.607H105.871C105.871 131.607 104.34 108.095 100.258 103.004Z" fill="#D93B5A"/>
<path d="M73.8629 92.6976C73.8629 92.6976 72.6248 98.6969 63.8486 98.6969C55.0757 98.6969 53.8365 92.6976 53.8365 92.6976C53.8365 92.6976 56.2774 87.8457 53.8365 82.1505C51.3946 76.4552 76.8487 75.3011 73.8629 82.1505C70.8771 89.0009 73.8629 92.6976 73.8629 92.6976Z" fill="#D89461"/>
<path d="M84.754 70.2006C85.3896 61.6554 90.8119 49.3374 90.8119 49.3374C98.5246 32.0913 86.1457 6.88917 75.5754 14.0812C64.2545 -1.01923 26.2513 15.8887 37.6971 49.1042C37.6971 49.1042 42.3975 60.5544 42.8507 69.0078C43.3051 77.4634 58.494 85.5819 63.3734 85.8549C68.2518 86.1268 84.1183 78.7457 84.754 70.2006Z" fill="#281619"/>
<path d="M92.1451 54.2732C92.1451 58.7923 88.9426 65.0005 86.7826 65.0005C84.6225 65.0005 82.8726 61.3393 82.8726 56.8191C82.8726 52.3 85.0813 49.9675 86.7826 48.6365C88.873 47.0016 92.1451 48.6365 92.1451 54.2732Z" fill="#F9AA78"/>
<path d="M36.1826 54.2732C36.1826 58.7923 39.3884 65.0005 41.5463 65.0005C43.7063 65.0005 45.454 61.3393 45.454 56.8191C45.454 52.3 43.2476 49.9675 41.5463 48.6365C39.4559 47.0016 36.1826 48.6365 36.1826 54.2732Z" fill="#F9AA78"/>
<path d="M64.2544 18.4544C49.0766 18.4544 42.3643 29.0888 42.3643 44.9532C42.3643 53.034 42.3643 59.3528 42.3643 64.8192C42.3643 78.6363 58.3292 90.4569 63.3734 90.4569C68.4153 90.4569 86.1457 76.6365 86.1457 63.5469C86.1457 58.3756 86.1457 52.4161 86.1457 44.9532C86.1457 29.0888 79.4345 18.4544 64.2544 18.4544Z" fill="#F9AA78"/>
<path d="M86.1456 56.2741L86.7845 48.0352C90.092 31.9962 79.5736 16.4822 64.3958 16.4822C49.2168 16.4822 37.4482 33.4078 41.5085 49.4468L42.3641 58.8177C42.3641 58.8177 45.2881 56.3559 45.7966 51.9086C46.472 45.9989 50.7656 40.2229 59.0697 38.6366C72.1616 36.1372 75.8394 28.2852 75.8394 28.2852C75.8394 28.2852 78.6009 32.2405 81.3424 38.6366C83.1133 42.7721 81.3424 45.3069 82.8723 49.4369C84.4907 53.8001 86.1456 56.2741 86.1456 56.2741Z" fill="#281619"/>
</svg>
